<?xml version="1.0" encoding="UTF-8" standalone="no"?>
<svg xmlns="http://www.w3.org/2000/svg" version="1.2" baseProfile="tiny" width="282" height="281" viewBox="0 0 282 281" id="svg2985">
	<title>Western Nevada College</title>
	<g id="g2995">
		<path d="M 0,140.5 0,0 141,0 282,0 282,140.5 282,281 141,281 0,281 0,140.5 z m 98.932637,96.67588 4.432633,-0.67588 2.29921,-15 c 5.20321,-33.94566 8.44326,-45.27355 20.96088,-73.28356 10.17715,-22.77287 13.21987,-28.39274 15.16976,-28.01844 1.56615,0.30063 1.75775,4.11006 2.35459,46.81463 0.65803,47.08295 1.56688,60.3797 4.42523,64.74209 3.51913,5.37087 15.24205,6.96456 23.13262,3.1448 5.68698,-2.75302 12.46228,-11.87635 43.84995,-59.0465 13.47172,-20.24563 25.26995,-37.21761 26.21827,-37.7155 0.94832,-0.4979 3.63436,-1.22168 5.96898,-1.6084 2.33462,-0.38673 4.4807,-1.08491 4.76907,-1.5515 0.28838,-0.4666 -0.71906,-7.96495 -2.23875,-16.66299 -2.57577,-14.74255 -2.76342,-17.72104 -2.76814,-43.936748 l -0.005,-28.122119 -14.8846,-0.708505 c -11.80251,-0.561799 -15.15109,-0.43298 -16.17155,0.622118 -1.66474,1.721228 -5.318,23.476967 -6.1007,36.330624 -0.77254,12.686795 0.8986,25.49732 4.76143,36.5 1.64131,4.675 3.20188,9.4 3.46794,10.5 0.34015,1.40636 -2.86508,6.66501 -10.79855,17.71659 -14.22026,19.80928 -18.0284,24.36339 -19.57389,23.40823 -0.87506,-0.54082 -1.21525,-6.77819 -1.25081,-22.93384 -0.0752,-34.13763 -1.67584,-73.414517 -3.25373,-79.838428 -3.23668,-13.177139 -10.13386,-19.478658 -20.38906,-18.628217 -7.253,0.601475 -11.99225,4.169769 -21.30836,16.043572 -8.52577,10.86648 -16.77475,23.81674 -25.51479,40.056263 -3.30813,6.1467 -6.63771,11.17583 -7.39906,11.17583 -1.14308,0 -1.40186,-4.79896 -1.48521,-27.542791 C 107.48563,57.492289 107.36998,56.99084 99.752674,54.925428 92.16842,52.868979 79.013497,56.847125 47.5,70.727023 l -11,4.844873 -0.770165,7.464052 C 35.306244,87.141177 35.081244,92.975 35.229835,96 l 0.270165,5.5 10.16447,0 c 5.590459,0 10.437193,0.27173 10.770521,0.60385 0.333328,0.33212 1.750067,29.58212 3.14831,65 1.398243,35.41788 2.7594,65.85865 3.024793,67.64615 l 0.482532,3.25 15.704687,-0.0741 c 8.637578,-0.0408 17.699374,-0.37827 20.137324,-0.75 z M 64.458941,235.7536 c -0.308262,-0.80332 -1.850425,-31.56401 -3.427029,-68.35709 -1.576604,-36.79308 -2.903759,-67.06188 -2.949232,-67.26399 -0.04547,-0.202113 -4.69518,-0.202113 -10.33268,0 L 37.5,100.5 37.219543,88.897722 c -0.20598,-8.521189 0.05958,-11.866269 1,-12.596374 C 40.696836,74.378077 77.844237,59.095118 83.780878,57.55678 87.085174,56.700551 92.331689,56 95.439799,56 c 4.600021,0 6.088661,0.437554 8.003601,2.352489 3.39141,3.391413 4.09786,14.698534 2.82073,45.147511 -0.57672,13.75 -0.9065,25.15308 -0.73285,25.34017 0.17365,0.1871 3.925,-6.7879 8.33634,-15.5 14.23139,-28.106079 31.23766,-52.994308 40.76949,-59.665075 8.17322,-5.719965 17.6751,-4.368167 23.23379,3.305389 5.89601,8.139196 6.3842,13.003462 6.87681,68.519516 0.24402,27.5 0.78851,50.3654 1.20997,50.81199 0.42147,0.4466 3.91018,-3.1534 7.75268,-8 8.63538,-10.8919 26.62297,-36.43859 26.62297,-37.811 0,-0.55598 -1.19719,-4.00337 -2.66042,-7.66088 -2.97166,-7.42797 -5.12232,-16.99373 -6.08015,-27.04344 -1.12542,-11.80795 3.01536,-45.396626 5.89062,-47.78288 0.81958,-0.680191 6.35553,-0.969791 15.15397,-0.792743 L 246.5,47.5 246,57 c -1.13118,21.492391 -0.40663,38.036747 2.48065,56.64307 1.54847,9.97869 2.54743,18.84136 2.21993,19.69483 -0.32751,0.85346 -2.30662,1.84088 -4.39802,2.19425 -2.09141,0.35337 -4.47756,0.85852 -5.30256,1.12256 -0.825,0.26404 -12.87159,17.66225 -26.77021,38.66268 -31.44321,47.50984 -37.31176,55.44581 -43.21019,58.43261 -7.57849,3.83753 -17.91597,2.39017 -21.44986,-3.00322 -2.55448,-3.89864 -3.50102,-19.6607 -4.11968,-68.60254 C 144.87151,116.37564 144.6694,112 143.1339,112 c -1.87905,0 -25.97546,53.27195 -30.02104,66.37001 -2.30394,7.45931 -7.32212,32.72147 -9.16344,46.12999 -0.67976,4.95 -1.73396,9.51756 -2.34267,10.15014 -0.69712,0.72446 -7.672747,1.4118 -18.847042,1.85709 -15.087505,0.60123 -17.824102,0.48854 -18.300767,-0.75363 z m 29.742213,-17.71827 c 2.545649,-30.73228 21.053656,-81.85 39.761716,-109.81885 8.32004,-12.438591 13.85344,-16.552586 17.06262,-12.685767 1.89329,2.281272 2.87801,22.688767 3.76937,78.116937 0.85635,53.25104 0.74688,52.35235 6.37724,52.35235 8.25575,0 11.14442,-3.51781 46.80586,-57 20.60006,-30.89434 25.93764,-38.07462 29.13091,-39.1878 3.48296,-1.21416 3.48007,-1.15173 0.81157,-17.54047 C 235.78997,99.187379 235.11448,83.439401 236,67.5 l 0.5,-9 -6.19896,-0.296393 -6.19897,-0.296392 -0.97203,3.796392 c -1.84694,7.213489 -2.29823,19.93563 -1.12847,31.812348 1.25796,12.772225 4.99231,29.299575 7.4771,33.091835 0.83673,1.27701 1.52133,2.73843 1.52133,3.24759 0,2.89217 -24.99513,37.54951 -39.90566,55.33174 -7.96772,9.50227 -11.29818,12.00904 -13.29802,10.0092 -0.61811,-0.61811 -1.48163,-23.7527 -2.2526,-60.34934 -1.34219,-63.710945 -1.45929,-64.934848 -6.75183,-70.568508 -3.98367,-4.240413 -7.73745,-3.160534 -14.6314,4.209121 C 141.95417,81.536188 120.31042,116.99507 106.84769,146 c -3.70162,7.975 -7.358956,14.6315 -8.127412,14.79221 -1.155229,0.24161 -1.511402,-4.26102 -2.056688,-26 -0.362723,-14.46071 -0.660417,-34.53429 -0.661543,-44.607951 -0.0012,-10.708978 -0.431972,-19.119065 -1.037231,-20.25 -0.774806,-1.447739 -2.095327,-1.930028 -5.25,-1.917437 C 85.38079,68.03412 78.628641,70.580679 58.5,79.789424 c -10.23528,4.682586 -11,5.229814 -11,7.871509 l 0,2.839067 9.989096,0.289096 c 5.494003,0.159003 10.291639,0.609003 10.661414,1 0.369776,0.390997 1.654075,30.410904 2.853998,66.710904 1.199924,36.3 2.356954,66.57889 2.571178,67.28642 0.290793,0.96043 2.864691,1.21384 10.156906,1 L 93.5,226.5 l 0.701154,-8.46467 z" id="path3009" style="fill:#d7d7e4"/>
		<path d="M 0,140.5 0,0 141,0 282,0 282,140.5 282,281 141,281 0,281 0,140.5 z m 91.826347,97.84722 12.140353,-0.65278 0.49523,-3.09722 c 7.49779,-46.89192 9.23703,-54.18113 17.60262,-73.77314 9.46291,-22.16194 18.15711,-39.91674 19.35207,-39.51973 0.74197,0.24651 1.29174,14.04236 1.74457,43.77779 0.72546,47.63896 1.79389,62.96361 4.66548,66.91786 4.50669,6.20585 16.0739,7.80081 24.69365,3.40491 5.42152,-2.76486 13.607,-13.81121 43.97968,-59.35082 l 25,-37.48401 5.78447,-1.15285 c 3.18146,-0.63406 6.00165,-1.37002 6.26709,-1.63546 0.26544,-0.26544 -0.63561,-7.41243 -2.00235,-15.88219 -4.15492,-25.748459 -4.9407,-37.65053 -3.66822,-55.561563 C 248.49985,55.627108 249.0048,47.7125 249.0031,46.75 249.00027,45.152488 247.52738,45 232.09974,45 l -16.90026,0 -1.09802,4.75 c -2.96113,12.809702 -4.39679,25.676869 -4.37934,39.25 0.0193,14.98181 1.71389,24.24523 6.79025,37.11784 l 1.82106,4.61784 -8.3438,11.88216 c -13.24777,18.86575 -20.14795,27.62384 -21.05174,26.72005 -0.46101,-0.46101 -1.11072,-17.93813 -1.44381,-38.83804 -1.04844,-65.785461 -2.7697,-75.087181 -14.91548,-80.603519 -8.98729,-4.081822 -17.21698,-1.425173 -26.14563,8.440139 -9.00543,9.950161 -25.28042,35.028942 -33.04055,50.91353 -4.79859,9.82248 -5.28132,8.22154 -4.67364,-15.5 0.6508,-25.40467 -0.33311,-34.112272 -4.2373,-37.5 -3.62507,-3.145535 -13.726027,-3.108814 -23.693385,0.08613 -6.664964,2.136397 -41.709849,16.665914 -44.462277,18.433944 -0.964483,0.619538 -1.898465,18.626239 -1.405006,27.087786 0.06401,1.09755 1.973254,1.2223 9.958828,0.65074 7.597881,-0.54381 10.063673,-0.40935 10.676471,0.58218 0.579751,0.93806 4.665365,86.92149 6.398507,134.65921 0.05232,1.44115 10.348188,1.64699 29.871729,0.59722 z M 64.924914,235.75 c -0.0413,-0.1375 -1.365583,-30.51386 -2.942857,-67.50303 C 60.404783,131.2578 58.812301,100.50531 58.443208,99.908109 58.011039,99.208844 54.341615,98.942918 48.136065,99.161141 L 38.5,99.5 l 0,-11.307434 0,-11.307433 7.832979,-3.406082 C 81.098571,58.361627 91.72476,55.040981 99.035745,57.009625 c 2.248345,0.605417 4.461345,2.006628 5.171325,3.27434 1.76497,3.151486 2.22463,30.410825 0.89766,53.234635 -0.60196,10.35374 -0.91042,19.00905 -0.68546,19.234 0.22496,0.22496 4.73589,-8.11756 10.02428,-18.53893 14.96968,-29.499414 31.62202,-53.756768 41.30727,-60.17201 7.72728,-5.118336 16.95607,-3.481873 21.79447,3.864627 4.84393,7.354906 5.52553,12.945183 6.47347,53.093713 0.48697,20.625 0.90697,44.175 0.93332,52.33333 0.0368,11.39405 0.33775,14.74159 1.29792,14.43765 2.97874,-0.94291 34.75,-43.94874 34.75,-47.03787 0,-0.74267 -1.35431,-5.06119 -3.00957,-9.59672 -6.34705,-17.39134 -7.30878,-33.815473 -3.41441,-58.310778 2.58596,-16.265534 1.01706,-14.930336 17.15999,-14.603923 L 245.5,48.5 245.33443,53 c -0.98081,26.656211 -0.54404,42.220239 1.55747,55.5 1.21851,7.7 2.47667,16.56378 2.7959,19.69729 0.5755,5.64905 0.556,5.70239 -2.30369,6.30019 -8.34768,1.74503 -7.17878,0.36542 -32.19838,38.00252 -32.63811,49.09765 -39.01164,57.75322 -44.47354,60.39728 -9.46668,4.58274 -19.64015,1.79769 -21.72573,-5.94756 -1.63224,-6.06169 -2.89302,-37.6738 -3.04903,-76.44972 -0.13748,-34.17096 -0.43992,-38.50083 -2.74288,-39.26848 -1.40064,-0.46688 -12.84234,22.78962 -23.50106,47.76848 -8.69338,20.37305 -10.31266,26.95284 -17.47304,71 l -0.73153,4.5 -6.494458,0.63312 c -6.387756,0.62271 -29.922783,1.10554 -30.069548,0.61688 z m 22.863328,-8.38566 6.081625,-0.63565 0.666258,-6.61435 c 2.533368,-25.15026 12.382515,-57.44237 26.488945,-86.84851 13.54971,-28.24561 26.77929,-44.193682 29.87661,-36.01583 1.57132,4.14877 2.22317,19.92826 2.9914,72.41347 0.6811,46.5331 0.94644,52.44265 2.45827,54.75 3.7577,5.73497 12.83066,1.91667 20.74471,-8.73028 2.52783,-3.40076 13.52246,-19.45819 24.4325,-35.68319 29.79394,-44.30839 32.9476,-48.62174 36.43919,-49.83891 1.66774,-0.58138 3.03225,-1.74568 3.03225,-2.58734 0,-0.84167 -1.00569,-7.27757 -2.23487,-14.30202 -1.88222,-10.75648 -2.21449,-16.106834 -2.10572,-33.908044 l 0.12914,-21.136314 -3.64427,-0.60268 c -6.717,-1.110838 -9.00563,-0.749775 -10.30219,1.625308 -1.71147,3.135119 -2.3483,30.445434 -0.95189,40.82157 1.41876,10.5422 3.81371,20.28822 6.23341,25.36626 1.03202,2.16581 1.87639,4.25406 1.87639,4.64056 0,1.50258 -12.84087,20.1445 -24.05186,34.91761 -18.30882,24.1262 -25.46669,31.81879 -27.61138,29.67409 -0.86291,-0.86291 -2.19078,-50.47342 -2.27164,-84.87087 C 176.00027,82.211224 175.29865,74.593315 172.26141,68.5 167.88716,59.724343 162.44126,58.558739 155.98393,65.016073 143.22194,77.778057 120.43748,114.66003 105.95473,146 102.7655,152.90134 99.578478,158.5 98.839133,158.5 97.747665,158.5 97.407528,150.21686 97,113.71279 96.572309,75.402605 96.283073,68.779037 95,67.912291 92.577996,66.276171 84.035537,67.623871 76.5,70.830942 58.625698,78.438118 47.444495,84.08722 46.621823,85.926352 c -1.895848,4.238284 -0.322497,5.072596 9.596792,5.088961 5.104762,0.0084 9.837829,0.368736 10.517926,0.800699 0.921754,0.58545 1.83779,17.726938 3.598351,67.334808 1.298994,36.60218 2.681609,67.06686 3.072475,67.6993 0.797915,1.29105 5.380759,1.45492 14.380875,0.51422 z" id="path3007" style="fill:#afb2cc"/>
		<path d="M 0,140.5 0,0 140.5,0 281,0 281,140.5 281,281 140.5,281 0,281 0,140.5 z m 102.61935,97.95324 c 1.72395,-0.34633 2.24411,-1.40778 2.78813,-5.6895 3.56897,-28.08978 8.97092,-51.65454 15.41945,-67.26374 7.16363,-17.34015 18.0434,-40.76042 19.72657,-42.46429 1.26606,-1.28163 1.45211,-1.09451 1.49146,1.5 0.74728,49.26668 2.08888,96.33215 2.87798,100.96429 0.79182,4.64812 1.69542,6.60855 4.01042,8.70091 6.09586,5.5096 16.55544,6.04684 24.70804,1.26909 5.42757,-3.18077 13.05214,-13.60212 44.04018,-60.19467 12.88508,-19.37356 23.8181,-35.46611 24.29558,-35.76121 0.47749,-0.29511 3.24216,-0.98677 6.14372,-1.53704 2.90155,-0.55027 5.5718,-1.47982 5.93387,-2.06567 0.36207,-0.58584 0.26385,-3.16807 -0.21828,-5.73829 -5.39518,-28.76161 -6.88471,-51.601347 -4.79941,-73.591716 0.82485,-8.698429 0.77385,-11.084539 -0.25084,-11.734687 -1.70109,-1.079319 -33.51905,-1.088028 -34.1857,-0.0094 -1.60873,2.602968 -4.84838,25.674246 -5.32318,37.909145 -0.62056,15.990957 0.52074,25.559728 4.37564,36.685708 4.03592,11.64843 4.1096,10.8187 -1.71626,19.32722 -10.86361,15.86601 -22.01976,30.30729 -22.96272,29.7245 -0.59579,-0.36822 -0.989,-12.32528 -1.01264,-30.79295 C 187.87515,70.334077 185.8048,56.986752 174.3444,49.903834 169.73589,47.05562 161.07682,46.860238 156,49.489912 c -8.62822,4.469218 -26.99094,28.988155 -39.50698,52.751918 -3.11166,5.90801 -6.05727,10.98886 -6.54579,11.29079 -0.50976,0.31504 -0.84245,-10.22745 -0.78079,-24.741835 0.12102,-28.485478 -0.39531,-31.306416 -6.28785,-34.353566 C 98.513049,52.179707 87.979804,53.001691 78.5,56.339654 67.311313,60.279337 35.579848,74.06507 34.769795,75.338239 34.363252,75.977208 34.023735,82.4625 34.015313,89.75 c -0.01143,9.892086 0.301471,13.2738 1.234687,13.34392 0.6875,0.0517 5.41258,0.0151 10.500177,-0.0813 6.932018,-0.13132 9.362846,0.1584 9.69976,1.15608 0.247271,0.73223 1.61573,30.58133 3.041022,66.33133 1.425292,35.75 2.797565,65.97701 3.049497,67.17113 0.455221,2.15769 0.57721,2.16814 19.7088,1.6895 10.587909,-0.26489 20.204454,-0.67322 21.370094,-0.90739 z M 66.285414,234.8362 c -0.715553,-0.86718 -2.02897,-24.50272 -3.741845,-67.3362 -1.451607,-36.3 -2.996515,-66.66267 -3.43313,-67.4726 -0.615215,-1.141237 -3.023406,-1.478766 -10.702142,-1.5 L 38.5,98.5 38.246055,89 c -0.139669,-5.225 0.110425,-10.060132 0.555765,-10.744738 1.156917,-1.778488 37.272378,-16.99041 46.12747,-19.429005 8.153849,-2.24548 15.26873,-2.056804 17.7975,0.471964 2.28227,2.282266 3.09575,18.745282 2.15941,43.701779 -0.44365,11.825 -1.10854,23.91966 -1.47752,26.87703 -0.45664,3.65999 -0.32812,5.25664 0.40246,5 0.59033,-0.20737 4.29183,-6.90203 8.22556,-14.87703 15.52092,-31.466169 33.44127,-58.208228 43.83161,-65.408735 4.92992,-3.41644 11.33195,-3.805023 16.27098,-0.987599 4.25362,2.426442 8.40918,10.582785 9.88219,19.396334 0.61234,3.663878 1.3459,28.20724 1.68121,56.25 0.48326,40.41649 0.84424,49.75 1.92409,49.75 1.78776,0 10.2633,-10.41088 22.88932,-28.11597 15.18956,-21.29986 14.36683,-19.3127 11.16942,-26.97811 -4.40018,-10.5489 -5.85658,-17.723 -6.37565,-31.40592 -0.3783,-9.972304 -0.0182,-16.194959 1.54627,-26.718176 1.12169,-7.544997 2.53586,-14.645771 3.14261,-15.779497 1.03817,-1.939829 1.85165,-2.044847 13.80222,-1.781823 L 244.5,48.5 244.15441,70 c -0.31245,19.438036 -0.0802,23.274248 2.42152,40 3.76231,25.15352 3.961,23.08549 -2.35623,24.52447 -2.90416,0.66154 -5.41387,1.37666 -5.57713,1.58916 -0.16326,0.2125 -10.89244,16.36137 -23.84263,35.88637 -26.77869,40.37425 -38.56392,56.96011 -42.13711,59.30135 -4.26251,2.79291 -10.86654,3.99016 -15.35017,2.78284 -5.16968,-1.39205 -7.07674,-3.60717 -8.31691,-9.66044 -0.55482,-2.70806 -1.475,-28.99875 -2.04483,-58.42375 -1.04745,-54.08755 -1.31521,-57.24815 -4.67413,-55.17138 -1.6259,1.00528 -17.56771,34.18164 -24.6169,51.23004 -6.4496,15.59829 -9.39295,27.01279 -13.63638,52.88276 -1.73622,10.58479 -3.55717,18.77938 -4.274221,19.23469 -0.687109,0.4363 -6.930539,0.80016 -13.874289,0.80858 -6.94375,0.008 -13.943956,0.2791 -15.556013,0.60151 -1.859442,0.37189 -3.334107,0.0977 -4.033573,-0.75 z M 95.222961,220 c 3.477944,-36.0802 24.793439,-92.40515 44.444959,-117.44322 3.9125,-4.984932 8.43033,-7.791858 10.00568,-6.216518 1.79155,1.79155 2.43892,14.614638 3.30638,65.492568 0.52826,30.98305 1.25375,57.89613 1.6122,59.80685 1.58368,8.44175 10.22618,7.98121 18.90782,-1.00755 2.75,-2.84728 14.64308,-19.56681 26.42906,-37.1545 31.52999,-47.0508 34.59525,-51.25204 38.62148,-52.9343 1.8972,-0.7927 3.44648,-1.80174 3.44283,-2.2423 -0.004,-0.44057 -0.98708,-5.97603 -2.1854,-12.30103 -1.82252,-9.61967 -2.19549,-15.34242 -2.28109,-35 l -0.10233,-23.5 -7.39033,0 c -7.34861,0 -7.39531,0.01693 -8.2732,3 -0.48558,1.65 -1.1362,8.85 -1.44582,16 -0.7717,17.820923 2.24204,37.67202 7.77057,51.18372 1.25987,3.07912 1.11009,3.47335 -4.55915,12 C 210.23506,159.67449 183.03107,194 180.47935,194 c -0.74872,0 -1.66173,-0.48607 -2.02889,-1.08016 -0.36717,-0.59409 -1.00429,-26.80659 -1.41582,-58.25 -0.83259,-63.614977 -0.95682,-64.792018 -7.53199,-71.367186 -3.70658,-3.706582 -6.71767,-4.144871 -10.62161,-1.546065 C 148.84142,68.439833 123.1991,108.27616 106.89401,142.52042 102.84025,151.03419 99.239898,158 98.893216,158 98.546534,158 98.061157,138.21401 97.8146,114.03113 97.397473,73.118246 97.238558,69.921085 95.52817,68.031128 91.938953,64.065087 85.249325,65.831902 60.5,77.282511 l -14,6.477288 0,3.8701 0,3.870101 9.895411,0.5 c 7.411389,0.374486 10.09005,0.876541 10.670782,2 0.426455,0.825 1.744588,30.95978 2.929184,66.96619 1.184597,36.0064 2.380987,65.83376 2.658646,66.28302 0.277658,0.44926 5.306591,0.68948 11.175405,0.53382 L 94.5,227.5 95.222961,220 z" id="path3005" style="fill:#8e93b7"/>
		<path d="M 0,141.16067 0,1.3213433 27.162466,0.66067167 C 42.101823,0.29730225 105.32682,0 167.66247,0 L 281,0 281,140.5 281,281 140.5,281 0,281 0,141.16067 z m 104.32897,96.91036 c 0.5007,-0.5007 1.75511,-6.68401 2.7876,-13.74069 2.4484,-16.73399 6.46249,-36.75498 9.05166,-45.14677 C 119.96562,166.87579 139.10199,124 140.79782,124 c 0.50341,0 1.16295,19.13631 1.50786,43.75 0.62308,44.46362 1.58397,59.20214 4.18806,64.2379 3.25811,6.30048 16.49204,9.02411 25.00626,5.14644 7.09432,-3.231 11.88936,-9.60638 47.48445,-63.13434 12.25228,-18.425 22.75905,-33.80779 23.34839,-34.18397 0.58933,-0.37618 3.20789,-0.97779 5.81903,-1.33692 2.61113,-0.35912 5.22888,-1.23296 5.81721,-1.94186 0.77181,-0.92997 0.18168,-6.8235 -2.11912,-21.16308 C 248.56611,94.907724 248.41646,91.056348 249.34872,51 L 249.5,44.5 232.29771,44.226591 c -15.62031,-0.248266 -17.28969,-0.110087 -18.15275,1.502545 -0.52275,0.976775 -1.96446,7.624809 -3.2038,14.773409 -4.30361,24.823551 -2.93011,46.766355 4.03312,64.432205 l 2.11289,5.36044 -3.71483,5.6024 c -5.89115,8.88458 -21.05928,29.5977 -22.62712,30.89889 -1.22548,1.01706 -1.51975,-2.01144 -2.08599,-21.46779 -0.36258,-12.45855 -0.67528,-30.34168 -0.6949,-39.7403 -0.066,-31.604622 -2.16447,-43.957382 -8.78054,-51.686778 C 173.249,46.968146 164.78716,45.090037 156.5,48.866936 147.17133,53.118505 127.00916,80.181411 114.12148,105.75 c -1.73265,3.4375 -3.48129,6.25006 -3.88588,6.25014 -0.40458,8e-5 -0.7356,-11.38192 -0.7356,-25.293326 0,-27.600525 -0.16493,-28.475489 -6.10093,-32.364904 C 99.845937,52.013809 90.292072,52.320034 81.5,55.043829 72.891034,57.710898 36.93867,72.73578 35.33467,74.33682 c -0.962528,0.960753 -2.037799,22.018383 -1.458168,28.55613 0.100979,1.13896 1.931668,1.26842 10.03975,0.70999 7.379611,-0.50826 10.110418,-0.3688 10.675288,0.54517 0.417469,0.67548 1.994331,31.0535 3.504136,67.5067 1.509805,36.4532 3.075211,66.81267 3.478679,67.4655 0.88112,1.42568 41.270895,0.43444 42.754615,-1.04928 z M 65.924914,234.75 c -0.0413,-0.1375 -1.365583,-30.51386 -2.942857,-67.50303 C 61.404783,130.2578 59.79787,99.481963 59.411137,98.856217 58.917361,98.05727 55.763723,97.911447 48.820089,98.36649 L 38.93219,99.014483 39.216095,88.299182 39.5,77.583881 l 18,-7.775843 c 21.283067,-9.194099 29.838513,-11.95733 37.227562,-12.023727 4.294173,-0.03859 5.910998,0.409558 7.612318,2.109942 2.08095,2.079803 2.16012,2.955154 2.16012,23.88234 0,11.947874 -0.36045,28.923407 -0.801,37.723407 -0.50366,10.06066 -0.44993,15.62879 0.14473,15 0.52015,-0.55 5.39025,-9.775 10.82245,-20.5 15.10118,-29.814839 29.83557,-51.697765 40.67664,-60.411317 3.31011,-2.660515 4.6526,-3.088683 9.68434,-3.088683 5.0681,0 6.2378,0.379663 8.83461,2.867566 7.83156,7.503108 8.76689,15.277406 9.73102,80.882434 0.35362,24.0625 0.94433,43.75 1.31267,43.75 2.43583,0 15.612,-16.56457 30.91414,-38.86406 l 7.11193,-10.36406 -1.58742,-3.63594 c -3.51713,-8.05589 -6.39732,-18.68578 -7.50488,-27.69816 -1.27931,-10.410011 -0.2987,-25.257792 2.75326,-41.68778 l 1.62535,-8.75 12.83206,0 c 7.05764,0 13.05105,0.354317 13.31869,0.78737 0.26764,0.433054 0.0316,7.432012 -0.52462,15.55324 -1.12227,16.386925 -0.3581,28.444461 3.31542,52.31294 1.2119,7.87431 1.94997,14.57042 1.64014,14.88025 -0.30982,0.30983 -2.71482,1.10397 -5.34443,1.76476 l -4.78112,1.20144 -27.58699,41.20221 c -37.50971,56.02218 -37.71679,56.27083 -47.54114,57.08554 -7.50286,0.6222 -12.18917,-1.74944 -13.5669,-6.86591 -1.56493,-5.81171 -2.91979,-40.35282 -3.05645,-77.92184 -0.067,-18.425 -0.43479,-34.625 -0.81726,-36 -0.43866,-1.57697 -1.41719,-2.5 -2.65032,-2.5 -4.00242,0 -29.21093,55.04596 -34.06231,74.37935 -1.32778,5.29136 -3.87773,18.39565 -5.66656,29.12065 l -3.25242,19.5 -6.486813,0.63312 c -6.4197,0.62656 -27.91706,1.09914 -28.061903,0.61688 z m 22.845739,-6.38382 6.064035,-0.63381 0.65303,-6.11619 c 1.862903,-17.44768 5.846122,-34.66172 12.456542,-53.83264 10.41575,-30.20683 25.98856,-60.2493 35.60958,-68.696668 4.31551,-3.789064 5.21073,-3.836309 6.5381,-0.345044 1.36312,3.585282 2.81325,43.980352 2.93501,81.758172 0.11445,35.50685 0.76299,44.14201 3.46358,46.11674 2.99026,2.18652 7.7359,1.62552 12.65872,-1.49644 5.21571,-3.3077 9.63263,-9.21478 31.86867,-42.6203 29.56029,-44.40884 34.82021,-51.5 38.20056,-51.5 3.08319,0 3.18815,-2.66078 0.68525,-17.37182 -2.08367,-12.24697 -2.37776,-16.941443 -2.20867,-35.256254 l 0.19505,-21.128074 -3.69505,-0.61092 c -7.5035,-1.240587 -10.04001,-0.799276 -11.92201,2.07423 -1.5555,2.375003 -1.76842,5.227698 -1.73528,23.25 0.0403,21.934328 1.6572,32.913178 6.43927,43.723828 l 2.06095,4.65913 -3.269,5.40759 C 217.38246,149.62076 182.51803,194 180.00587,194 c -1.4183,0 -2.05304,-14.79095 -2.89673,-67.5 -0.89447,-55.882187 -1.01708,-56.978433 -7.1016,-63.491931 C 167.83724,60.684757 166.33261,60 163.39785,60 c -3.31596,0 -4.5062,0.732227 -9.34879,5.751315 -11.7981,12.228121 -29.8233,40.887735 -44.96368,71.491135 -5.37193,10.85834 -10.063754,19.44584 -10.426266,19.08333 -0.362513,-0.36251 -0.665748,-19.59661 -0.673856,-42.74245 C 97.974114,81.769498 97.663261,70.889931 96.711415,69 94.885128,65.373827 88.304993,65.12966 79.901913,68.376254 c -12.16682,4.700744 -32.295372,14.441348 -33.63867,16.278417 -0.741408,1.013936 -1.216441,2.968927 -1.055629,4.344425 0.286074,2.446917 0.511954,2.511697 10.46376,3.000904 5.594255,0.275 10.426016,0.756761 10.737246,1.07058 0.311231,0.313819 1.632406,30.62258 2.935945,67.3528 1.918756,54.0654 2.635268,66.95015 3.762753,67.66411 1.656038,1.04865 7.330767,1.14962 15.663335,0.27869 z" id="path3003" style="fill:#7c84ad"/>
		<path d="M 0,141.16081 0,1.3216253 27.75,0.66275273 C 43.0125,0.30037282 106.2375,0.00300713 168.25,0.00194009 L 281,0 281,140.5 281,281 140.5,281 0,281 0,141.16081 z m 104.54696,97.62556 c 0.3815,-0.3815 1.76357,-7.577 3.07127,-15.99 3.1871,-20.5039 6.09527,-34.72142 8.97255,-43.86507 4.46139,-14.17775 23.16869,-55.61802 24.47229,-54.21085 0.3972,0.42875 0.96386,21.25455 1.25924,46.27955 0.54949,46.55397 1.3568,57.6648 4.49991,61.93138 4.76291,6.46534 16.82682,8.3533 25.75606,4.03073 5.99534,-2.9023 11.97283,-10.90956 44.56265,-59.69473 17.9166,-26.82016 25.49978,-37.37851 27.11574,-37.75429 1.23383,-0.28692 4.04333,-0.88106 6.24333,-1.32031 3.86462,-0.77162 3.99882,-0.93223 3.96525,-4.74571 -0.0191,-2.17089 -1.316,-12.49707 -2.88196,-22.94707 -2.64896,-17.677049 -2.8098,-20.462209 -2.31,-40 0.29547,-11.55 0.80012,-21.675 1.12146,-22.5 0.32133,-0.825 0.25147,-2.01178 -0.15525,-2.637288 -0.96789,-1.48853 -33.15506,-2.856091 -35.16467,-1.494068 -2.07322,1.405133 -5.93918,23.401748 -6.7099,38.178168 -0.78369,15.024908 0.54464,25.746308 4.76012,38.420708 1.64042,4.93214 2.74106,9.88214 2.44586,11 -0.7033,2.66334 -23.75582,34.76078 -25.34604,35.29086 -0.94058,0.31352 -1.23621,-4.65912 -1.27372,-21.42505 -0.0799,-35.71211 -1.66384,-73.131432 -3.35392,-79.234005 -2.0872,-7.536482 -6.45873,-14.16366 -11.13261,-16.876868 C 171.21036,47.33334 169.33537,46.977001 164,47.233665 c -5.38923,0.259255 -7.29544,0.861128 -11.15478,3.522039 -8.38259,5.77958 -22.39586,24.97531 -35.93521,49.22494 L 110.5,111.46129 110,85.801762 c -0.46883,-24.059779 -0.63064,-25.835408 -2.59551,-28.480643 -4.37919,-5.895562 -13.402214,-6.541403 -27.637683,-1.978223 -6.797155,2.178828 -41.703264,16.672238 -44.56532,18.504023 -0.949852,0.607929 -1.352613,4.700541 -1.5,15.24208 L 33.5,103.5 l 10.5,0.0871 10.5,0.0871 0.657899,7.91294 c 0.361844,4.35212 1.625533,33.56294 2.808197,64.91294 1.182665,31.35 2.378834,58.51225 2.658153,60.36055 l 0.507854,3.36054 21.360615,-0.37054 c 11.748339,-0.2038 21.672752,-0.68268 22.054242,-1.06418 z M 66.439319,233.70246 C 66.141849,232.92727 64.608516,202.18959 63.031912,165.39651 61.455308,128.60343 60.128153,98.361812 60.08268,98.192917 60.037206,98.024021 55.3875,97.971523 49.75,98.076254 l -10.25,0.190421 0,-10.226602 0,-10.226601 19.657439,-8.355373 C 80.260502,60.488265 88.129785,58 95.394345,58 c 7.054785,0 8.253165,1.787979 9.141705,13.639425 0.70288,9.375121 -0.86209,53.692435 -2.17564,61.610575 -1.3768,8.29937 2.36018,3.30609 12.35107,-16.50327 15.42275,-30.579318 31.92708,-55.17032 41.10339,-61.242915 7.88027,-5.214914 15.86904,-3.960782 20.63378,3.239231 5.20929,7.871756 5.69899,13.269201 6.26794,69.084354 0.56069,55.00401 0.5551,54.95166 5.40039,50.56673 2.83137,-2.56235 17.97013,-22.61549 27.28468,-36.14189 l 7.74544,-11.24776 -3.08888,-8.00972 C 215.52405,111.23725 213.83333,102.05084 213.80165,89 213.77631,78.564662 215.83128,60.01675 217.8484,52.474473 L 218.64389,49.5 l 12.92806,0 c 12.33144,0 12.91835,0.0923 12.71788,2 -0.11559,1.1 -0.51597,9.2 -0.88974,18 -0.71374,16.804205 0.0718,27.258952 3.65268,48.61109 1.07098,6.3861 1.94723,12.3167 1.94723,13.17911 0,1.08308 -1.62363,1.9134 -5.25,2.68482 l -5.25,1.11682 -25.79489,38.70408 c -33.31285,49.98445 -37.60805,55.80329 -42.99733,58.24991 -2.31428,1.05064 -5.68473,1.92013 -7.4899,1.93221 -4.41184,0.0295 -9.80324,-2.33475 -11.17683,-4.90134 -2.00404,-3.74459 -3.00455,-22.73608 -3.66544,-69.5767 -0.35697,-25.3 -1.05335,-46.7875 -1.54751,-47.75 -0.49416,-0.9625 -1.79029,-1.75 -2.88029,-1.75 -1.56668,0 -3.52693,3.19451 -9.35786,15.25 -9.54801,19.74057 -19.85387,43.62704 -22.45141,52.03687 -2.32739,7.53523 -7.42766,32.91456 -9.22024,45.88064 -0.65907,4.76713 -1.4728,9.08941 -1.8083,9.60507 -0.3355,0.51566 -7.926961,1.25296 -16.869914,1.63845 -13.532722,0.58332 -16.350628,0.46448 -16.800767,-0.70857 z M 94.740842,227.75 c 0.542152,-0.6875 1.257639,-4.95566 1.589971,-9.48481 1.187494,-16.18359 8.777467,-44.20649 18.354147,-67.76519 12.26308,-30.1673 30.17423,-58.040815 34.51008,-53.704961 1.61764,1.617643 2.7755,26.912241 3.58776,78.378141 0.72001,45.62098 0.88604,48.80341 2.64768,50.75 2.91607,3.22223 9.24967,2.81554 14.41407,-0.92554 5.11177,-3.70294 10.34625,-10.76128 31.14555,-41.99764 26.14939,-39.27113 34.45433,-50.61068 37.96217,-51.83352 3.64775,-1.27161 3.83242,-3.20363 1.54526,-16.16648 -2.81104,-15.931972 -3.58648,-29.178378 -2.52478,-43.129505 0.74133,-9.741428 0.70456,-13.554385 -0.14054,-14.57267 -0.82256,-0.991125 -3.1401,-1.297364 -8.23733,-1.088482 L 222.50213,56.5 l -1.40532,4 c -0.97426,2.773076 -1.41688,8.907696 -1.44303,20 -0.0405,17.186243 1.68825,30.01369 5.43422,40.32221 3.69891,10.17902 3.74955,9.89218 -3.66563,20.76725 C 206.3633,163.67506 182.97544,193 180.42033,193 c -0.78377,0 -1.45437,-1.0084 -1.49628,-2.25 -0.0418,-1.2375 -0.61745,-27.9 -1.27929,-59.25 l -1.20334,-57 -2.65337,-5.723744 c -2.70977,-5.845419 -7.22175,-9.764843 -11.24997,-9.772518 -2.56866,-0.0049 -13.49469,11.344635 -20.70557,21.508127 C 130.06894,97.092213 112.94005,127.26131 102.9475,149 L 99.5,156.5 98.877655,138 c -0.34229,-10.175 -0.67979,-29.65795 -0.75,-43.295455 L 98,69.909091 95.545455,67.454545 c -2.875428,-2.875427 -3.34519,-2.918194 -10.780761,-0.981473 -6.514247,1.696745 -37.817197,16.010795 -38.965795,17.818076 -1.39506,2.195079 -0.886173,7.461384 0.782888,8.101863 C 47.451771,92.726855 52.150213,93 57.02277,93 c 4.872558,0 9.064544,0.3375 9.315525,0.75 0.250981,0.4125 1.468759,30.45 2.706173,66.75 1.28259,37.62524 2.669141,66.5374 3.225133,67.25 0.667361,0.85534 4.213131,1.25 11.230399,1.25 7.011699,0 10.56687,-0.39534 11.240842,-1.25 z" id="path3001" style="fill:#6f76a4"/>
		<path d="M 0,141 0,1 67.75,0.9992452 C 105.0125,0.99883006 168.2375,0.6998511 208.25,0.33484752 L 281,-0.32879537 281,140.3356 281,281 140.5,281 0,281 0,141 z m 104.70111,97.64739 c 0.6606,-0.63106 2.32505,-8.34739 3.69877,-17.14739 3.76673,-24.12956 7.353,-40.01393 11.28868,-50 4.66077,-11.82586 19.34406,-44.40213 20.27217,-44.97573 0.39916,-0.24669 1.04419,18.09692 1.43341,40.7636 0.75454,43.94222 1.78954,60.23287 4.11217,64.72433 3.41738,6.60849 14.83435,9.69612 24.26747,6.56294 8.59587,-2.85509 12.69541,-8.12706 49.82562,-64.07514 12.04533,-18.15 22.30313,-33.29175 22.7951,-33.64832 0.49198,-0.35658 3.51518,-1.16391 6.71822,-1.79407 3.20305,-0.63016 6.08346,-1.56602 6.40092,-2.07969 0.31747,-0.51366 -0.56531,-7.91566 -1.96171,-16.44887 C 249.15786,93.67757 248.47287,82.93126 249.8744,62.834437 250.55846,53.02559 250.84,44.550131 250.50005,44.000084 250.12528,43.393696 242.8498,43 232.01854,43 l -17.86344,0 -1.03072,3.25 c -1.80397,5.688159 -3.94592,18.868366 -5.08572,31.294317 -1.61794,17.638593 0.3072,32.465923 6.13216,47.229463 l 2.08077,5.27377 -3.79704,5.72623 C 203.5348,149.22546 190.70886,166.1044 189.9922,165.33424 189.56524,164.87541 188.97625,144.25 188.68332,119.5 188.25462,83.278124 187.84426,73.274675 186.57963,68.218519 183.75715,56.933863 179.28388,50.686712 171.78212,47.553048 167.3959,45.720821 163.96384,45.607448 158.5,47.114294 149.70861,49.53883 132.45633,71.011928 117.01397,98.75 c -3.44471,6.1875 -6.33344,11.25 -6.4194,11.25 -0.086,0 -0.1424,-10.4625 -0.12543,-23.25 0.0347,-26.121729 -0.58798,-29.631997 -5.82223,-32.823656 -3.93046,-2.396648 -12.804095,-2.55534 -21.186811,-0.378895 -7.211505,1.872358 -46.241035,18.104193 -48.735811,20.268541 -1.574857,1.366271 -1.744526,3.188771 -1.5,16.112267 L 33.5,104.5 l 10.5,0 10.5,0 2.76068,67 c 1.518375,36.85 2.984638,67.60911 3.258363,68.35358 0.408364,1.11065 4.309909,1.22684 21.73932,0.64739 13.69633,-0.45534 21.668287,-1.11376 22.442747,-1.85358 z m -38.112503,-5.80957 c -0.228812,-0.7358 -1.603176,-31.01981 -3.054143,-67.29781 -1.712652,-42.82078 -3.024879,-66.425997 -3.740599,-67.288388 -0.809621,-0.975533 -3.651427,-1.251797 -10.698171,-1.040013 -11.18356,0.336113 -10.801058,0.808135 -9.613622,-11.86357 l 0.677074,-7.225386 19.170427,-8.166319 c 27.318172,-11.637137 38.794611,-14.123673 42.819947,-9.277557 1.59008,1.914309 1.90663,40.613163 0.52,63.571223 -0.68013,11.26074 -0.58707,13.75 0.51406,13.75 0.74077,0 5.08774,-7.52166 9.68027,-16.75 C 126.56311,93.722401 139.10231,73.614185 150.01386,61.675215 156.39392,54.694416 159.43916,53 165.60518,53 c 4.15997,0 5.12986,0.447153 8.37951,3.863245 5.97108,6.276907 7.09909,12.225499 8.0783,42.600951 0.46162,14.319694 0.86129,38.271744 0.88816,53.226784 0.0333,18.54577 0.39645,27.40582 1.14213,27.86667 2.42247,1.49717 14.42735,-12.90878 32.24652,-38.69607 3.66311,-5.30114 6.6602,-10.60656 6.6602,-11.78984 0,-1.18328 -0.87166,-3.86001 -1.93702,-5.94828 -4.42083,-8.66556 -6.47297,-19.77971 -6.48524,-35.12346 -0.0121,-15.075126 2.54773,-35.421748 4.85299,-38.574386 1.05196,-1.438637 2.65018,-1.555374 12.69859,-0.927525 l 11.49516,0.718245 -0.39663,22.141833 c -0.35798,19.984394 -0.14483,23.798266 2.18759,39.141833 3.41425,22.4603 3.55976,20.97641 -2.16544,22.0824 l -4.75,0.9176 -28,41.66185 c -31.47462,46.83182 -35.34069,52.1604 -39.83041,54.89801 -4.66313,2.84335 -13.70101,2.67735 -17.18047,-0.31556 -3.94796,-3.3959 -4.46536,-9.96459 -5.31696,-67.50183 -0.68959,-46.59123 -0.91574,-51.41462 -2.48417,-52.98305 -1.27978,-1.27978 -2.17274,-1.46722 -3.45675,-0.72562 -2.25799,1.30413 -16.27179,29.62516 -24.72426,49.9662 -7.50771,18.06746 -10.16633,27.98748 -14.6063,54.5 -1.70398,10.175 -3.315363,18.725 -3.580854,19 -0.265492,0.275 -7.645021,0.65202 -16.398955,0.83782 -12.641199,0.2683 -16.001848,0.0625 -16.332264,-1 z M 96.697114,218.5 c 4.827266,-39.6078 27.106196,-96.67332 45.836076,-117.40506 8.26718,-9.150776 8.34427,-8.618122 9.40743,65.00132 0.63435,43.92612 1.09267,56.2009 2.18345,58.47674 3.11659,6.50254 12.00588,5.42226 19.75441,-2.40068 2.54533,-2.56978 15.51775,-20.87232 28.82761,-40.67232 30.95411,-46.04794 32.49529,-48.13947 36.79636,-49.93658 4.18526,-1.74871 4.1802,-1.68173 1.30122,-17.21405 -1.83939,-9.92363 -2.20505,-15.587294 -2.25,-34.84937 L 238.5,56.5 232,55.773043 c -3.575,-0.399826 -7.24989,-0.493939 -8.16642,-0.20914 -2.92464,0.908792 -4.11826,6.555332 -4.59172,21.721546 -0.60594,19.409852 2.02096,37.619901 6.97893,48.379011 1.75375,3.80576 1.78875,4.41642 0.40628,7.08982 -3.68604,7.12801 -31.53393,44.3955 -41.15543,55.07632 -3.79936,4.21767 -4.97677,5.01817 -5.63938,3.83415 -0.4606,-0.82305 -1.21805,-27.07182 -1.68321,-58.3306 -0.93814,-63.042557 -1.0296,-63.88417 -7.71317,-70.970817 -4.66798,-4.949501 -9.02495,-4.70507 -15.04503,0.844042 C 144.71861,73.0447 123.25187,106.59594 108.17688,137 L 99.5,154.5 99,111.85378 C 98.520869,70.987565 98.416522,69.11505 96.5,66.991069 94.758158,65.060678 93.790065,64.842746 89,65.302709 83.365666,65.843743 78.43203,67.72635 57.512093,77.318059 45.876073,82.653129 45.501464,82.923833 44.750075,86.54029 43.547337,92.329109 44.718753,93 56.02912,93 l 9.784231,0 0.597454,9.25 c 0.3286,5.0875 1.483075,35.26021 2.565501,67.05047 1.082425,31.79026 2.240762,58.24174 2.574082,58.78106 0.35662,0.57702 5.405144,0.86492 12.266998,0.69953 L 95.478348,228.5 l 1.218766,-10 z" id="path2999" style="fill:#48548d"/>
		<path d="M 0,141 0,1 67.75,0.9992452 C 105.0125,0.99883006 168.2375,0.6998511 208.25,0.33484752 L 281,-0.32879537 281,140.3356 281,281 140.5,281 0,281 0,141 z M 279.74991,71.328117 C 279.60486,32.922653 279.48616,64.05 279.48613,140.5 c -2e-5,76.45 0.11866,107.87265 0.26373,69.82812 0.14508,-38.04454 0.1451,-100.59454 5e-5,-139.000003 z M 105.62348,239.85741 c 0.61792,-0.49077 1.42258,-3.24695 1.78814,-6.12486 1.48477,-11.68909 5.7945,-35.86487 8.14079,-45.66648 2.53027,-10.57015 10.13646,-29.93005 19.27727,-49.06607 l 5.01559,-10.5 0.11583,18 c 0.18834,29.26642 1.86033,73.57648 2.99984,79.5 1.29368,6.72489 3.48104,9.91081 8.52242,12.41301 8.82986,4.38256 20.56918,2.53445 27.4204,-4.31677 4.93465,-4.93465 17.092,-22.25196 42.67778,-60.79154 l 21.37392,-32.19529 6.00498,-1.18141 c 3.30274,-0.64977 6.481,-1.75498 7.06281,-2.45601 0.75286,-0.90715 0.47909,-4.6905 -0.94965,-13.1233 -5.20874,-30.74344 -5.97958,-43.638309 -3.99609,-66.84837 0.82641,-9.670418 0.79788,-12.945545 -0.12245,-14.054469 -1.66181,-2.002355 -36.1371,-2.13636 -37.78822,-0.146881 -1.48187,1.785542 -4.94029,21.819968 -6.11471,35.422168 -1.407,16.295926 0.5647,31.161492 6.09284,45.936792 1.94386,5.19542 1.95615,5.54098 0.28943,8.134 -4.02192,6.25715 -20.50453,29.02139 -21.77897,30.07908 -1.17478,0.97497 -1.47039,-5.56308 -1.94925,-43.11087 -0.6079,-47.666102 -1.09771,-52.679053 -6.11449,-62.579201 C 177.53303,45.224756 163.8125,41.714706 152.47918,49.221589 144.34392,54.610158 131.26181,71.975458 118.36879,94.5 L 111.5,106.5 111.44266,85 C 111.37955,61.336207 110.6419,57.280555 105.73923,53.642219 101.93988,50.822672 92.41725,50.313553 84,52.479951 75.448853,54.680811 34.855275,71.715896 33.25,73.777176 32.379466,74.895 32,79.845347 32,90.084141 c 0,12.190069 0.258021,14.800889 1.510221,15.281409 0.830621,0.31874 5.780621,0.29901 11,-0.0438 L 54,104.69835 l -0.01412,4.90083 c -0.04935,17.12985 5.374321,130.0963 6.300411,131.22764 0.874409,1.0682 5.289153,1.19 22.649905,0.62485 11.860091,-0.38608 22.069374,-1.1035 22.687284,-1.59426 z M 67.01092,228.75 C 67.05379,212.06556 61.611616,98.276791 60.718444,97.182508 59.887862,96.164909 57.407461,96.023514 49.821542,96.561329 L 40,97.257642 l 0,-4.98925 c 0,-2.744087 0.273379,-6.964557 0.607509,-9.378821 L 41.215018,78.5 58.357509,71.277117 C 79.916364,62.193425 86.112656,60.064697 93,59.375733 c 9.74736,-0.975061 9.5,-1.68572 9.5,27.292817 0,13.6573 -0.37941,31.24395 -0.84313,39.08145 -0.79785,13.48463 -0.74414,14.24982 1,14.24673 1.39379,-0.002 4.32569,-4.93922 12.02631,-20.25 C 126.12364,97.000216 135.87069,80.794944 145.62573,68.302201 154.2765,57.22364 158.70691,54 165.28196,54 c 4.37097,0 5.37539,0.417238 8.19082,3.402461 5.4175,5.744229 6.70187,12.59955 7.60608,40.597539 0.43518,13.475 0.82046,37.67662 0.85619,53.78138 0.0695,31.34509 0.15485,31.84642 4.9806,29.26376 C 191.7263,178.47056 224,134.37985 224,130.38237 c 0,-1.17738 -1.16328,-4.68162 -2.58506,-7.7872 C 216.9213,112.77978 214.73197,99.340344 215.29055,85 c 0.60769,-15.601157 3.45227,-33.964079 5.37566,-34.702156 0.76392,-0.293143 5.98904,-0.219531 11.61137,0.163581 l 10.22242,0.696567 0.0518,25.671004 c 0.0461,22.880309 0.32664,27.225114 2.58021,39.966924 1.39064,7.86276 2.26734,14.44734 1.94823,14.6324 -0.31912,0.18507 -2.15521,0.67109 -4.08021,1.08006 l -3.5,0.74358 2.42585,-1.97759 2.42586,-1.97758 -2.42586,-13.8984 C 239.83122,103.39763 239.5,98.359679 239.5,78.5 l 0,-23 -7,-0.561422 c -3.85,-0.308782 -7.95728,-0.228416 -9.12728,0.178592 -3.34705,1.164332 -4.57619,6.307291 -5.11039,21.38283 -0.59174,16.69938 1.40083,32.62109 5.69423,45.5 3.37586,10.12657 4.04594,8.2166 -9.45858,26.96027 -15.95266,22.1416 -32.83129,43.0123 -33.91936,41.94185 -0.33424,-0.32883 -0.99798,-26.20383 -1.47497,-57.5 -0.7804,-51.203739 -1.05118,-57.436488 -2.70383,-62.238141 C 172.64529,60.255552 164.83416,55.37598 158.02651,59.686279 148.19773,65.90942 121.96995,106.04853 105.87445,139.5 l -5.77392,12 L 99.965883,115 C 99.815597,74.261188 99.332956,67.469278 96.433044,65.284541 93.662662,63.19739 85.933783,64.191957 76.93597,67.793461 67.490171,71.574279 45.969434,81.630566 44.781093,82.818907 c -0.496139,0.496139 -0.762351,3.102351 -0.591582,5.791582 L 44.5,93.5 l 10.174063,0.284145 10.174062,0.284144 0.550223,6.215851 c 0.302622,3.41873 1.47108,33.61136 2.596573,67.09474 1.125493,33.48339 2.288623,61.27089 2.584732,61.75 0.88345,1.42945 24.008219,1.08136 25.169804,-0.37888 0.54689,-0.6875 1.303545,-4.625 1.681456,-8.75 2.313842,-25.25625 13.821607,-61.78403 28.668767,-91 8.59694,-16.9169 18.42147,-31 21.62594,-31 1.81187,0 2.38543,12.05902 3.23426,68 0.51299,33.80821 1.247,56.53538 1.87801,58.14909 3.33265,8.52274 14.24502,7.24392 22.99324,-2.69458 2.33954,-2.65786 14.78466,-20.47 27.65582,-39.58254 27.29609,-40.53229 33.24771,-48.87754 34.84328,-48.85666 0.86114,0.0113 0.87047,0.20916 0.0354,0.75 -0.62391,0.40408 -12.83642,18.28469 -27.13892,39.73469 -36.91126,55.35723 -38.95137,57.91291 -46.74275,58.5555 -9.51025,0.78435 -12.39943,-1.25137 -13.66881,-9.63108 -0.4936,-3.25843 -1.26765,-29.32442 -1.72012,-57.92442 -0.45247,-28.6 -1.15052,-52.77037 -1.55123,-53.71193 -0.87804,-2.06321 -3.6362,-3.07357 -5.95811,-2.18257 -1.78842,0.68628 -7.88654,12.24436 -16.56408,31.39473 -14.70572,32.45391 -17.78113,42.2957 -22.8501,73.12389 -1.59383,9.69327 -3.210998,18.13077 -3.593704,18.75 C 98.110655,232.62997 92.807179,233 82.440983,233 L 67,233 67.01092,228.75 z M 27.75,2.2554319 c -4.8125,-0.1833137 -12.6875,-0.1833137 -17.5,0 -4.8125,0.1833137 -0.875,0.3332977 8.75,0.3332977 9.625,0 13.5625,-0.149984 8.75,-0.3332977 z" id="path2997" style="fill:#005993"/>
	</g>
</svg>