<?xml version="1.0" encoding="utf-8"?>
<svg xmlns="http://www.w3.org/2000/svg" version="1.2" baseProfile="tiny"
	  xmlns:xlink="http://www.w3.org/1999/xlink"
	 x="0px" y="0px" width="260px" height="135px" viewBox="0 0 260 135" xml:space="preserve">
<title>College of Southern Nevada</title>
<polygon fill="#FFD520" points="44.863,44.277 24.136,19.206 27.686,0.525 53.117,6.655 "/>
<polygon fill="#004990" points="50.215,39.93 57.915,8.324 75.01,0 85.305,24.044 "/>
<polygon fill="#004990" points="57.629,41.667 87.021,27.734 104.259,35.769 92.068,58.91 "/>
<polygon fill="#004990" points="61.17,48.685 90.621,62.505 95.383,80.914 69.768,86.225 "/>
<polygon fill="#004990" points="57.948,54.857 65.532,86.488 54.124,101.702 33.985,85.008 "/>
<polygon fill="#004990" points="44.65,52.36 12.121,52.336 0,37.686 20.938,22.01 "/>
<polygon fill="#004990" points="50.701,56.633 30.666,82.265 11.657,82.801 12.185,56.65 "/>
<path fill="#004990" d="M149.333,51.24c-1.672,1.334-7.215,3.813-13.904,3.813c-14.119,0-24.417-8.764-24.417-23.944
	c0-15.184,10.298-23.945,25.083-23.945c5.752,0,10.898,1.403,14.51,3.075c-0.666,1.204-1.131,3.812-1.402,5.217l-0.398,0.133
	c-1.873-2.071-6.42-5.953-12.709-5.953c-10.502,0-18.53,6.622-18.53,21.472c0,14.844,8.028,21.465,18.53,21.465
	c6.35,0,11.035-3.608,13.578-5.551l0.266,0.271L149.333,51.24z"/>
<path fill="#004990" d="M154.058,45.259c1.473,3.143,4.818,6.955,10.57,6.955c5.951,0,9.563-4.346,9.563-9.695
	c0-12.306-21.064-7.021-21.064-22.745c0-7.422,5.613-12.635,14.506-12.635c4.215,0,7.225,1.002,9.904,3.14
	c-0.803,1.541-1.271,3.077-1.814,5.619h-0.797c-0.938-2.476-2.943-6.286-7.955-6.286c-5.021,0-8.631,3.41-8.631,8.296
	c0,12.504,21.066,7.288,21.066,22.068c0,8.16-6.084,15.047-16.383,15.047c-5.559,0-8.701-1.936-11.041-3.814
	c0.805-2.071,1-3.405,1.271-5.951H154.058z"/>
<path fill="#004990" d="M219.937,55.053c-10.17-11.973-22.34-24.811-33.773-36.989c-0.074,2.476-0.205,6.488-0.205,13.577
	c0,5.753,0.268,19.868,0.6,22.542c-0.734-0.199-1.531-0.336-2.338-0.336c-0.805,0-1.605,0.137-2.475,0.336
	c0.535-3.146,1.4-20.269,1.4-29.097c0-8.423,0-14.915-0.197-17.922h1.072c10.9,11.838,25.68,27.957,33.844,36.183
	c0-11.972,0-25.014-0.537-35.315c0.732,0.202,1.535,0.335,2.275,0.335c0.734,0,1.402-0.133,2.143-0.335
	c-0.408,3.948-1.074,17.187-1.074,22.408c0,6.823,0.137,21.6,0.203,24.613H219.937z"/>
<path fill="#004990" d="M141.067,73.155c-0.326,0.254-1.379,0.726-2.65,0.726c-2.682,0-4.645-1.667-4.645-4.555
	c0-2.887,1.963-4.551,4.77-4.551c1.096,0,2.074,0.264,2.762,0.583c-0.129,0.229-0.213,0.724-0.271,0.991l-0.072,0.025
	c-0.355-0.393-1.227-1.133-2.418-1.133c-1.994,0-3.52,1.262-3.52,4.084c0,2.824,1.525,4.083,3.52,4.083
	c1.209,0,2.102-0.687,2.588-1.054l0.045,0.05L141.067,73.155z"/>
<path fill="#004990" d="M146.378,64.775c2.814,0,4.775,1.664,4.775,4.551c0,2.888-1.961,4.555-4.775,4.555
	c-2.797,0-4.752-1.667-4.752-4.555C141.626,66.439,143.581,64.775,146.378,64.775z M146.378,65.242
	c-1.979,0-3.508,1.262-3.508,4.084c0,2.824,1.529,4.083,3.508,4.083c2,0,3.521-1.259,3.521-4.083
	C149.899,66.504,148.378,65.242,146.378,65.242z"/>
<path fill="#004990" d="M152.294,68.232c0-1.095-0.045-2.2-0.102-3.297c0.219,0.043,0.424,0.064,0.627,0.064
	s0.406-0.021,0.621-0.064c-0.051,1.097-0.102,2.202-0.102,3.297c0,2.138,0.027,3.639,0.033,4.885c1.199,0,2.244,0,3.516-0.165
	c-0.041,0.128-0.063,0.255-0.063,0.382s0.021,0.255,0.063,0.381c-0.773-0.036-1.566-0.063-2.334-0.063
	c-0.797,0-1.572,0.026-2.361,0.063c0.057-1.095,0.102-2.201,0.102-3.293V68.232z"/>
<path fill="#004990" d="M158.019,68.232c0-1.095-0.053-2.2-0.098-3.297c0.215,0.043,0.418,0.064,0.623,0.064
	c0.207,0,0.404-0.021,0.621-0.064c-0.051,1.097-0.104,2.202-0.104,3.297c0,2.138,0.029,3.639,0.039,4.885
	c1.199,0,2.244,0,3.514-0.165c-0.043,0.128-0.061,0.255-0.061,0.382s0.018,0.255,0.061,0.381c-0.779-0.036-1.563-0.063-2.342-0.063
	c-0.787,0-1.566,0.026-2.352,0.063c0.045-1.095,0.098-2.201,0.098-3.293V68.232z"/>
<path fill="#004990" d="M163.745,68.219c0-1.092-0.055-2.201-0.107-3.283c0.77,0.043,1.52,0.064,2.281,0.064
	c0.758,0,1.51-0.021,2.26-0.064c-0.021,0.129-0.035,0.258-0.035,0.385c0,0.125,0.014,0.252,0.035,0.381
	c-1.068-0.074-1.688-0.166-3.338-0.166c-0.016,0.547-0.055,0.99-0.055,1.617c0,0.662,0.01,1.36,0.01,1.679
	c1.502,0,2.344-0.063,3.094-0.128c-0.027,0.128-0.037,0.266-0.037,0.396c0,0.125,0.01,0.252,0.037,0.38
	c-0.875-0.091-2.479-0.116-3.094-0.116c-0.01,0.307-0.01,0.625-0.01,1.844c0,0.969,0.01,1.592,0.027,1.91
	c1.129,0,2.631-0.014,3.434-0.165c-0.027,0.114-0.041,0.278-0.041,0.396c0,0.113,0.014,0.254,0.041,0.367
	c-0.752-0.036-1.516-0.063-2.289-0.063c-0.777,0-1.539,0.026-2.32,0.063c0.053-1.105,0.107-2.213,0.107-3.307V68.219z"/>
<path fill="#004990" d="M176.757,66.49c-0.521-0.625-1.516-1.248-2.797-1.248c-2.113,0-3.734,1.262-3.734,4.084
	c0,2.494,1.406,4.021,3.797,4.021c0.729,0,1.604-0.141,2.033-0.407c0.018-0.511,0.027-1.021,0.027-1.54
	c0-0.6-0.041-1.209-0.063-1.744c0.166,0.037,0.406,0.065,0.609,0.065c0.188,0,0.381-0.015,0.543-0.063
	c-0.027,0.382-0.045,1.207-0.045,2.582c0,0.33,0.012,0.688,0.012,1.03c-0.73,0.255-2.248,0.61-3.248,0.61
	c-3.023,0-4.906-1.577-4.906-4.555c0-2.887,1.963-4.551,4.975-4.551c1.717,0,2.643,0.418,3.242,0.733
	c-0.129,0.229-0.254,0.663-0.295,0.981H176.757z"/>
<path fill="#004990" d="M178.728,68.219c0-1.092-0.051-2.201-0.102-3.283c0.762,0.043,1.514,0.064,2.281,0.064
	c0.758,0,1.508-0.021,2.26-0.064c-0.021,0.129-0.037,0.258-0.037,0.385c0,0.125,0.016,0.252,0.037,0.381
	c-1.068-0.074-1.693-0.166-3.344-0.166c-0.012,0.547-0.051,0.99-0.051,1.617c0,0.662,0.012,1.36,0.012,1.679
	c1.496,0,2.346-0.063,3.09-0.128c-0.029,0.128-0.039,0.266-0.039,0.396c0,0.125,0.01,0.252,0.039,0.38
	c-0.875-0.091-2.479-0.116-3.09-0.116c-0.012,0.307-0.012,0.625-0.012,1.844c0,0.969,0.012,1.592,0.021,1.91
	c1.131,0,2.635-0.014,3.436-0.165c-0.021,0.114-0.039,0.278-0.039,0.396c0,0.113,0.018,0.254,0.039,0.367
	c-0.746-0.036-1.508-0.063-2.293-0.063c-0.768,0-1.531,0.026-2.311,0.063c0.051-1.105,0.102-2.213,0.102-3.307V68.219z"/>
<path fill="#004990" d="M191.399,64.775c2.807,0,4.768,1.664,4.768,4.551c0,2.888-1.961,4.555-4.768,4.555
	c-2.803,0-4.762-1.667-4.762-4.555C186.638,66.439,188.597,64.775,191.399,64.775z M191.399,65.242
	c-1.988,0-3.514,1.262-3.514,4.084c0,2.824,1.525,4.083,3.514,4.083c1.996,0,3.521-1.259,3.521-4.083
	C194.921,66.504,193.396,65.242,191.399,65.242z"/>
<path fill="#004990" d="M197.315,68.232c0-1.095-0.059-2.2-0.107-3.297c0.768,0.043,1.52,0.064,2.281,0.064
	c0.764,0,1.51-0.021,2.43-0.064c-0.027,0.129-0.039,0.258-0.039,0.385c0,0.125,0.012,0.252,0.039,0.381
	c-0.92-0.091-2.721-0.166-3.553-0.166c-0.014,0.6-0.023,1.133-0.023,1.667c0,0.585,0.01,1.067,0.01,1.603
	c1.1,0,2.227-0.025,3.285-0.127c-0.027,0.127-0.053,0.255-0.053,0.382c0,0.126,0.025,0.255,0.053,0.382
	c-0.854-0.09-2.186-0.102-3.285-0.102v1.082c0,1.092,0.053,2.198,0.109,3.293c-0.219-0.036-0.424-0.063-0.627-0.063
	s-0.406,0.026-0.627,0.063c0.049-1.095,0.107-2.201,0.107-3.293V68.232z"/>
<path fill="#004990" d="M112.452,84.756c0.278,0.6,0.915,1.322,2.011,1.322c1.131,0,1.819-0.824,1.819-1.842
	c0-2.344-4.006-1.337-4.006-4.326c0-1.412,1.068-2.403,2.757-2.403c0.805,0,1.373,0.189,1.884,0.597
	c-0.154,0.293-0.239,0.585-0.344,1.068h-0.15c-0.18-0.469-0.559-1.195-1.514-1.195c-0.954,0-1.644,0.65-1.644,1.578
	c0,2.377,4.011,1.386,4.011,4.195c0,1.552-1.162,2.865-3.117,2.865c-1.058,0-1.656-0.369-2.101-0.727
	c0.15-0.395,0.19-0.648,0.24-1.133H112.452z"/>
<path fill="#004990" d="M122.501,77.507c2.811,0,4.77,1.665,4.77,4.554c0,2.888-1.959,4.555-4.77,4.555
	c-2.798,0-4.755-1.667-4.755-4.555C117.746,79.172,119.703,77.507,122.501,77.507z M122.501,77.977
	c-1.986,0-3.512,1.258-3.512,4.084c0,2.824,1.526,4.083,3.512,4.083c1.996,0,3.527-1.259,3.527-4.083
	C126.028,79.234,124.497,77.977,122.501,77.977z"/>
<path fill="#004990" d="M134.972,77.672c0.158,0.039,0.344,0.064,0.52,0.064c0.123,0,0.266-0.025,0.385-0.064
	c-0.104,1.184-0.209,3.422-0.23,5.277c-0.031,2.254-1.34,3.666-3.629,3.666c-2.52,0-3.633-1.172-3.633-3.637
	c0-0.791,0.061-1.375,0.061-2.012c0-1.399-0.055-2.557-0.078-3.295c0.205,0.039,0.459,0.064,0.662,0.064
	c0.18,0,0.385-0.025,0.547-0.064c-0.078,0.748-0.152,2.48-0.152,4.363c0,1.729,0,3.981,2.836,3.981c2.785,0,2.785-2.608,2.785-4.21
	C135.044,79.389,135.044,78.168,134.972,77.672z"/>
<path fill="#004990" d="M139.452,80.967c0-0.879-0.018-1.755-0.045-2.633c-0.877,0-2.006,0.049-2.725,0.14
	c0.045-0.128,0.068-0.269,0.068-0.407c0-0.128-0.023-0.254-0.068-0.395c1.096,0.039,2.193,0.064,3.289,0.064
	s2.188-0.025,3.277-0.064c-0.035,0.141-0.063,0.267-0.063,0.406c0,0.127,0.027,0.268,0.063,0.396
	c-0.713-0.091-1.842-0.14-2.725-0.14c-0.021,0.878-0.033,1.754-0.033,2.633v2.185c0,1.097,0.051,2.204,0.102,3.298
	c-0.213-0.037-0.424-0.066-0.621-0.066c-0.209,0-0.406,0.029-0.627,0.066c0.049-1.094,0.107-2.201,0.107-3.298V80.967z"/>
<path fill="#004990" d="M150.474,80.967c0-1.094-0.045-2.201-0.1-3.295c0.213,0.039,0.416,0.064,0.621,0.064
	c0.203,0,0.406-0.025,0.627-0.064c-0.053,1.094-0.102,2.201-0.102,3.295v2.185c0,1.097,0.049,2.204,0.102,3.298
	c-0.221-0.037-0.424-0.066-0.627-0.066c-0.205,0-0.408,0.029-0.621,0.066c0.055-1.094,0.1-2.201,0.1-3.298v-1.141
	c-0.887-0.015-1.768-0.026-2.66-0.026c-0.887,0-1.768,0.012-2.654,0.026v1.141c0,1.097,0.051,2.204,0.1,3.298
	c-0.213-0.037-0.416-0.066-0.619-0.066c-0.205,0-0.408,0.029-0.623,0.066c0.045-1.094,0.102-2.201,0.102-3.298v-2.185
	c0-1.094-0.057-2.201-0.102-3.295c0.215,0.039,0.418,0.064,0.623,0.064c0.203,0,0.406-0.025,0.619-0.064
	c-0.049,1.094-0.1,2.201-0.1,3.295v0.444c0.887,0.013,1.768,0.038,2.654,0.038c0.893,0,1.773-0.025,2.66-0.038V80.967z"/>
<path fill="#004990" d="M153.372,80.954c0-1.095-0.045-2.202-0.096-3.282c0.764,0.039,1.51,0.064,2.277,0.064
	c0.764,0,1.51-0.025,2.262-0.064c-0.023,0.125-0.035,0.254-0.035,0.38c0,0.128,0.012,0.257,0.035,0.384
	c-1.068-0.077-1.697-0.167-3.346-0.167c-0.012,0.548-0.053,0.993-0.053,1.615c0,0.665,0.012,1.362,0.012,1.683
	c1.504,0,2.346-0.064,3.098-0.131c-0.029,0.131-0.041,0.268-0.041,0.394c0,0.128,0.012,0.257,0.041,0.384
	c-0.883-0.09-2.486-0.115-3.098-0.115c-0.012,0.307-0.012,0.625-0.012,1.846c0,0.967,0.012,1.59,0.029,1.906
	c1.129,0,2.627-0.01,3.43-0.163c-0.023,0.113-0.033,0.278-0.033,0.392c0,0.117,0.01,0.256,0.033,0.371
	c-0.744-0.037-1.508-0.066-2.287-0.066c-0.775,0-1.539,0.029-2.313,0.066c0.051-1.107,0.096-2.213,0.096-3.31V80.954z"/>
<path fill="#004990" d="M159.101,80.967c0-1.094-0.055-2.201-0.1-3.295c0.484,0.039,0.971,0.064,1.449,0.064
	c0.482,0,0.963-0.064,1.447-0.064c1.441,0,2.645,0.496,2.645,2.009c0,1.64-1.639,2.304-2.604,2.432
	c0.621,0.775,2.744,3.51,3.486,4.337c-0.254-0.037-0.508-0.066-0.764-0.066c-0.242,0-0.496,0.029-0.74,0.066
	c-0.51-0.775-2.199-3.117-3.295-4.225h-0.484v0.927c0,1.097,0.051,2.204,0.105,3.298c-0.213-0.037-0.422-0.066-0.621-0.066
	c-0.203,0-0.406,0.029-0.625,0.066c0.045-1.094,0.1-2.201,0.1-3.298V80.967z M160.142,81.689c0.23,0.052,0.52,0.066,0.852,0.066
	c1.047,0,2.436-0.436,2.436-1.947c0-1.335-1.105-1.667-1.971-1.667c-0.588,0-0.973,0.038-1.238,0.063
	c-0.037,0.928-0.078,1.844-0.078,2.762V81.689z"/>
<path fill="#004990" d="M173.399,86.615c-1.938-2.277-4.256-4.723-6.424-7.035c-0.018,0.469-0.041,1.232-0.041,2.582
	c0,1.091,0.053,3.778,0.113,4.287c-0.141-0.037-0.293-0.066-0.445-0.066s-0.305,0.029-0.469,0.066
	c0.096-0.6,0.266-3.855,0.266-5.535c0-1.601,0-2.836-0.039-3.407h0.209c2.072,2.251,4.875,5.317,6.436,6.882
	c0-2.276,0-4.757-0.104-6.717c0.143,0.039,0.289,0.064,0.43,0.064s0.266-0.025,0.406-0.064c-0.072,0.748-0.197,3.269-0.197,4.26
	c0,1.299,0.021,4.11,0.035,4.684H173.399z"/>
<path fill="#004990" d="M185.558,86.615c-1.934-2.277-4.248-4.723-6.424-7.035c-0.01,0.469-0.041,1.232-0.041,2.582
	c0,1.091,0.053,3.778,0.121,4.287c-0.143-0.037-0.295-0.066-0.447-0.066c-0.158,0-0.305,0.029-0.475,0.066
	c0.107-0.6,0.266-3.855,0.266-5.535c0-1.601,0-2.836-0.035-3.407h0.205c2.072,2.251,4.887,5.317,6.439,6.882
	c0-2.276,0-4.757-0.105-6.717c0.141,0.039,0.293,0.064,0.436,0.064c0.141,0,0.264-0.025,0.404-0.064
	c-0.078,0.748-0.201,3.269-0.201,4.26c0,1.299,0.027,4.11,0.037,4.684H185.558z"/>
<path fill="#004990" d="M187.659,80.954c0-1.095-0.051-2.202-0.102-3.282c0.764,0.039,1.508,0.064,2.277,0.064
	c0.764,0,1.51-0.025,2.266-0.064c-0.027,0.125-0.039,0.254-0.039,0.38c0,0.128,0.012,0.257,0.039,0.384
	c-1.072-0.077-1.695-0.167-3.35-0.167c-0.012,0.548-0.045,0.993-0.045,1.615c0,0.665,0.01,1.362,0.01,1.683
	c1.498,0,2.34-0.064,3.092-0.131c-0.029,0.131-0.041,0.268-0.041,0.394c0,0.128,0.012,0.257,0.041,0.384
	c-0.883-0.09-2.48-0.115-3.092-0.115c-0.01,0.307-0.01,0.625-0.01,1.846c0,0.967,0.01,1.59,0.021,1.906
	c1.129,0,2.633-0.01,3.434-0.163c-0.027,0.113-0.037,0.278-0.037,0.392c0,0.117,0.01,0.256,0.037,0.371
	c-0.752-0.037-1.514-0.066-2.293-0.066c-0.773,0-1.537,0.029-2.311,0.066c0.051-1.107,0.102-2.213,0.102-3.31V80.954z"/>
<path fill="#004990" d="M192.349,77.672c0.221,0.039,0.445,0.064,0.662,0.064c0.219,0,0.445-0.025,0.66-0.064
	c0.752,2.252,1.83,4.949,2.902,7.518c0.934-2.061,2.357-5.852,2.889-7.518c0.152,0.039,0.316,0.064,0.469,0.064
	c0.158,0,0.316-0.025,0.469-0.064c-1.322,2.924-2.537,5.853-3.66,8.777c-0.143-0.037-0.283-0.066-0.424-0.066
	c-0.137,0-0.299,0.029-0.412,0.066C195.134,84.35,193.587,80.596,192.349,77.672z"/>
<path fill="#004990" d="M203.722,77.507c1.254,2.952,3.158,7.58,3.832,8.942c-0.227-0.037-0.447-0.066-0.674-0.066
	c-0.23,0-0.447,0.029-0.674,0.066c-0.246-0.879-0.857-2.276-1.309-3.411c-0.549-0.011-1.113-0.024-1.666-0.024
	c-0.525,0-1.035,0.014-1.557,0.024c-0.535,1.312-1.016,2.608-1.236,3.411c-0.162-0.037-0.316-0.066-0.467-0.066
	c-0.154,0-0.307,0.029-0.471,0.066c1.363-2.977,2.684-5.941,3.984-8.942H203.722z M203.304,79.223l-1.385,3.232
	c0.447,0,0.928,0.025,1.373,0.025c0.469,0,0.955-0.013,1.424-0.025L203.304,79.223z"/>
<path fill="#004990" d="M208.378,80.967c0-1.094-0.051-2.201-0.096-3.295c0.631,0.039,1.281,0.064,1.92,0.064
	c0.633,0,1.281-0.064,1.914-0.064c2.979,0,4.199,1.59,4.199,4.211c0,3.396-2.615,4.566-4.627,4.566
	c-0.576,0-1.137-0.066-1.707-0.066s-1.129,0.029-1.699,0.066c0.045-1.094,0.096-2.201,0.096-3.298V80.967z M209.423,83.151
	c0,0.905,0.027,1.823,0.078,2.698c0.357,0.079,1.018,0.129,1.662,0.129c1.877,0,3.91-0.738,3.91-4.096
	c0-2.954-1.525-3.678-3.617-3.678c-0.752,0-1.439,0.063-1.955,0.129c-0.051,0.814-0.078,1.715-0.078,2.633V83.151z"/>
<path fill="#004990" d="M220.134,77.507c1.248,2.952,3.158,7.58,3.832,8.942c-0.232-0.037-0.447-0.066-0.674-0.066
	c-0.23,0-0.451,0.029-0.67,0.066c-0.25-0.879-0.859-2.276-1.318-3.411c-0.547-0.011-1.107-0.024-1.668-0.024
	c-0.518,0-1.027,0.014-1.553,0.024c-0.535,1.312-1.016,2.608-1.23,3.411c-0.164-0.037-0.318-0.066-0.469-0.066
	c-0.152,0-0.307,0.029-0.469,0.066c1.354-2.977,2.684-5.941,3.977-8.942H220.134z M219.712,79.223l-1.385,3.232
	c0.447,0,0.932,0.025,1.377,0.025c0.471,0,0.949-0.013,1.424-0.025L219.712,79.223z"/>
</svg>
