<?xml version="1.0" encoding="UTF-8"?>
<svg version="1.2" baseProfile="tiny" xmlns="http://www.w3.org/2000/svg" xmlns:xlink="http://www.w3.org/1999/xlink" x="0px" y="0px" width="216px" height="216px" viewBox="-0.457 -20.953 216 216" xml:space="preserve">
<title>Nevada State College</title>
<path fill="#231F20" d="M0,130.399c1.573,0.063,2.472,0.127,5.715,0.127c0.289,0,0.449,0.031,0.61,0.156  c0.16,0.064,0.257,0.254,0.29,0.443c0.128,0.506,1.637,2.244,2.054,2.656c2.73,2.75,5.105,5.184,11.206,10.59  c0.032-0.979,0.065-1.898,0.065-4.236c0-3.352-0.033-5.121-0.129-6.229c-0.065-0.6-0.129-1.391-0.803-1.58  c-0.353-0.125-1.605-0.221-1.829-0.284c-0.162-0.063-0.225-0.095-0.225-0.317l-0.064-1.199h3.756c1.188,0,2.921-0.16,3.789-0.16  c0.161,0,0.289,0.033,0.321,0.127l0.225,1.107c-1.252,0.411-1.573,0.474-2.055,0.789c-0.611,0.412-0.77,1.771-0.931,5.186  c-0.128,3.003-0.161,5.026-0.161,7.618c0,3.13,0.097,4.995,0.097,5.597c0,0.441-0.225,0.664-1.444,1.232  c-0.194,0.094-0.322,0.063-0.546-0.254c-1.831-2.401-4.176-4.932-7.354-8.219c-4.013-4.109-6.229-6.164-7.544-7.43  c-0.064,1.139-0.161,2.719-0.193,4.617c0,1.326-0.095,6.574,0.289,7.934c0.289,0.916,1.542,1.075,2.602,1.359l0.224,1.075  c0.032,0.095-0.161,0.284-0.257,0.284c-1.091,0-2.89-0.127-4.271-0.127c-1.027,0-2.28,0.064-2.794,0.096  c-0.096-0.442-0.256-0.885-0.385-1.328c2.088-0.506,2.151-0.822,2.312-1.896c0.096-0.759,0.354-3.32,0.354-6.418l0.032-3.541  c0.032-4.014-0.064-4.931-0.449-5.404c-0.417-0.538-0.932-0.728-2.151-0.949C0.097,131.756,0,131.631,0,131.315V130.399z"/>
<path fill="#231F20" d="M34.427,142.573c1.235,0,1.828,0,2.373-0.049c1.235-0.074,1.358-0.316,1.903-1.631  c0.05-0.121,0.792-0.242,1.163-0.121c-0.075,0.657-0.173,1.972-0.173,2.848c0.024,0.973,0.024,1.412,0.123,2.336  c-0.173,0.025-0.444,0.073-0.742,0.073c-0.222,0-0.321-0.048-0.396-0.169c-0.074-0.172-0.321-0.805-0.445-1.072  c-0.147-0.438-0.469-0.706-1.31-0.754c-0.692-0.049-1.211-0.073-2.275-0.073c-0.691,0-0.939,0.024-1.162,0.024  c-0.148,0.023-0.197,0.072-0.247,0.195c-0.124,0.242-0.173,1.41-0.173,3.309c0,1.242,0.026,1.633,0.224,1.875  c0.371,0.487,1.309,0.537,2.743,0.537c2.448,0,4.031-0.391,4.771-2.996c0.296-0.096,0.743-0.023,0.865,0  c0.075,0.025,0.075,0.025,0.075,0.172c-0.05,1.729-0.446,3.359-0.767,4.064c-0.099,0.146-0.173,0.195-0.296,0.195  c-0.173,0-0.371,0-1.162-0.024c-0.742-0.024-2.423-0.05-4.698-0.05c-2.67,0-5.069,0.1-6.897,0.123  c-0.124-0.049-0.099-0.682-0.074-0.901c0.049-0.146,0.049-0.146,0.173-0.194c1.188-0.219,1.483-0.292,1.508-0.804  c0.023-0.317,0.197-1.923,0.197-4.089v-5.844c0-1.775-0.147-2.336-0.197-2.48c-0.025-0.196-0.076-0.342-0.321-0.391  c-0.224-0.098-0.594-0.195-1.385-0.34c-0.099-0.051-0.125-0.051-0.099-0.27l0.099-0.682c0-0.121,0-0.17,0.147-0.17h0.717  c0.792,0,2.028,0.074,3.98,0.074h1.978c2.35,0,3.709-0.146,5.291-0.146c0.346,0,0.569,0.023,0.644,0.121  c0.074,0.121,0.172,0.292,0.098,0.707c-0.272,1.434-0.272,2.481-0.272,3.285c-0.914,0.024-0.964-0.049-1.038-0.268  c-0.693-1.947-1.261-2.385-2.349-2.385h-0.99c-1.434,0-2.249,0.048-2.546,0.098c-0.395,0.023-0.42,0.486-0.42,0.73  c0,1.557,0,3.113,0.026,4.648c0,0.34,0.048,0.486,0.296,0.486H34.427z"/>
<path fill="#231F20" d="M61.127,136.415c-0.248,0.023-0.395,0.049-0.619,0.243c-0.296,0.269-0.864,1.29-1.433,2.385  c-0.718,1.388-3.512,7.401-4.748,10.394c-0.124,0.294-0.271,0.537-0.444,0.879c-0.223,0.314-0.445,0.777-0.693,1.216  c-0.049,0.073-0.098,0.146-0.445,0.146c-0.469,0-0.692-0.073-0.765-0.194c-0.1-0.146-0.422-0.756-0.991-2.216  c-2.174-5.55-4.053-9.372-4.721-10.882c-0.865-1.874-1.236-2.02-2.521-2.215l0.297-0.828c0.049-0.146,0.147-0.17,0.247-0.17  c1.187,0.074,3.089,0.123,3.609,0.123c0.916,0,1.83-0.025,2.719-0.025c0.125,0,0.174,0.048,0.125,0.486  c-0.05,0.512-0.075,0.584-0.198,0.609c-1.087,0.17-1.162,0.244-0.94,0.9c0.199,0.658,0.396,1.119,1.509,3.821  c1.038,2.508,1.729,4.065,2.521,5.696c0.099,0.195,0.247,0.121,0.37-0.098c0.371-0.681,1.434-2.944,2.621-5.817  c0.396-0.925,0.99-2.507,1.509-4.065c0.073-0.268-0.1-0.365-0.594-0.365l-0.84-0.023c-0.174,0-0.272-0.074-0.222-0.172  c0.272-0.9,0.321-1.021,0.617-1.021c0.496,0,1.929,0.074,2.573,0.074c0.444,0,1.285-0.074,1.928-0.074  c0.37,0,0.445,0.22,0.468,1.021c0.026,0.147-0.023,0.195-0.198,0.172H61.127z"/>
<path fill="#231F20" d="M70.497,134.833c0.344,0,0.444,0.047,0.568,0.463c0.716,2.115,1.26,3.528,2.151,5.816  c0.841,2.217,2.472,6.135,2.868,7.06c0.643,1.388,1.013,1.849,2.595,2.19c0.075,0-0.221,0.998-0.395,0.998  c-2.794-0.023-3.264-0.023-4.129-0.023c-0.791,0-1.928,0.098-2.126,0.098c-0.1,0-0.149-0.025-0.173-0.098  c-0.075-0.147-0.371-0.803-0.272-0.9c1.039-0.268,1.286-0.463,1.286-0.852c0.024-0.438-0.89-2.68-1.038-2.971  c-0.173-0.316-0.371-0.535-0.667-0.535c-0.792-0.025-3.487-0.05-4.426,0.048c-0.52,0.048-0.692,0.22-0.815,0.536  c-0.272,0.705-0.817,1.898-0.817,2.701c0,0.512,0.224,0.634,1.435,0.9c0.147,0.025-0.099,0.998-0.346,1.023  c-1.558-0.025-2.991-0.025-3.486-0.025c-0.446,0-0.816,0.025-0.939,0c-0.099,0-0.123-0.023-0.149-0.096  c-0.099-0.146-0.296-0.902-0.171-0.951c1.334-0.412,1.705-1.264,2.199-2.385c0.544-1.217,3.511-7.863,4.797-10.93  c0.198-0.535,0.444-1.145,0.543-1.412c0.05-0.171,0.125-0.268,0.248-0.367c0.346-0.144,0.889-0.289,1.236-0.289H70.497z   M67.308,144.545c0.198,0,0.544,0.023,1.384,0.023c0.692,0,1.089,0,1.929-0.023c0.174,0,0.371-0.195,0.347-0.293  c-0.94-2.678-1.435-4.09-1.782-4.869c-0.048-0.097-0.222-0.146-0.271-0.073c-0.716,1.606-1.038,2.435-2.028,4.942  c-0.073,0.145,0.101,0.293,0.396,0.293H67.308z"/>
<path fill="#231F20" d="M98.953,143.303c0,1.314-0.644,3.48-2.449,5.16c-1.83,1.68-2.965,2.07-4.3,2.483  c-1.262,0.365-2.176,0.413-3.932,0.413c-1.36,0-3.832-0.098-4.351-0.098c-0.964,0-1.78,0-2.521,0.025c0-0.268-0.05-0.877,0-1.072  c1.013-0.389,1.31-0.535,1.334-0.996c0.149-1.705,0.123-5.795,0.123-8.789c0-2.41-0.049-2.92-0.073-3.115  c0-0.389-0.149-0.584-1.336-0.852c-0.147-0.025-0.147-0.221-0.174-0.584l-0.024-0.584c0.939,0,2.349-0.049,3.758-0.074  c1.705-0.049,2.621-0.098,3.857-0.098c1.729,0,5.019,0.268,7.293,2.313c1.877,1.656,2.793,3.578,2.793,5.842V143.303z   M88.272,136.34c-0.494,0-1.483,0.219-1.73,0.414c-0.124,0.098-0.173,0.268-0.173,0.535c-0.099,0.756-0.173,3.043-0.173,5.088  c0,3.434,0,5.6,0.371,7.108c0.049,0.194,0.123,0.317,0.372,0.39c0.542,0.195,1.086,0.244,1.655,0.244  c0.84,0,2.002-0.293,3.387-1.096c1.978-1.145,3.017-3.434,3.017-5.939c0-2.654-1.238-4.406-2.498-5.355  c-1.558-1.17-3.139-1.389-4.203-1.389H88.272z"/>
<path fill="#231F20" d="M110.275,134.833c0.346,0,0.445,0.047,0.568,0.463c0.717,2.115,1.26,3.528,2.151,5.816  c0.841,2.217,2.472,6.135,2.869,7.06c0.642,1.388,1.013,1.849,2.595,2.19c0.073,0-0.223,0.998-0.396,0.998  c-2.795-0.023-3.262-0.023-4.127-0.023c-0.793,0-1.93,0.098-2.127,0.098c-0.1,0-0.148-0.025-0.174-0.098  c-0.074-0.147-0.371-0.803-0.272-0.9c1.039-0.268,1.286-0.463,1.286-0.852c0.025-0.438-0.891-2.68-1.038-2.971  c-0.175-0.316-0.371-0.535-0.667-0.535c-0.791-0.025-3.487-0.05-4.427,0.048c-0.519,0.048-0.691,0.22-0.814,0.536  c-0.272,0.705-0.815,1.898-0.815,2.701c0,0.512,0.221,0.634,1.433,0.9c0.149,0.025-0.099,0.998-0.345,1.023  c-1.559-0.025-2.992-0.025-3.487-0.025c-0.445,0-0.815,0.025-0.938,0c-0.099,0-0.125-0.023-0.149-0.096  c-0.099-0.146-0.295-0.902-0.172-0.951c1.334-0.412,1.705-1.264,2.201-2.385c0.543-1.217,3.51-7.863,4.797-10.93  c0.197-0.535,0.443-1.145,0.541-1.412c0.051-0.171,0.125-0.268,0.25-0.367c0.345-0.144,0.888-0.289,1.234-0.289H110.275z   M107.085,144.545c0.199,0,0.545,0.023,1.385,0.023c0.691,0,1.088,0,1.928-0.023c0.173,0,0.371-0.195,0.348-0.293  c-0.939-2.678-1.436-4.09-1.781-4.869c-0.049-0.097-0.222-0.146-0.271-0.073c-0.718,1.606-1.038,2.435-2.028,4.942  c-0.074,0.145,0.1,0.293,0.396,0.293H107.085z"/>
<path fill="#231F20" d="M128.891,152.022c-0.161,0-0.256-0.031-0.416-0.127c-0.063,0-0.129-0.285-0.193-1.232  c-0.063-1.645-0.289-3.162-0.61-5.279c-0.033-0.223,0-0.254,0.16-0.316c0.226-0.031,0.515-0.031,0.771-0.031  c0.386,0,0.545,0.094,0.61,0.315c0.193,0.442,0.385,1.106,0.963,1.866c1.285,1.738,3.371,2.908,5.266,2.908  c2.021,0,3.82-1.266,3.82-3.479c0-1.074-0.547-2.18-1.605-2.813c-0.578-0.348-1.283-0.76-2.889-1.486  c-2.28-0.98-3.854-1.738-5.041-3.066c-0.676-0.727-1.221-1.834-1.221-3.572c0-2.309,1.316-3.698,2.729-4.49  c0.9-0.473,2.857-1.199,5.17-1.199c0.963,0,2.215,0.125,3.115,0.283c0.258,0.063,0.48,0.063,0.738,0.063  c0.385-0.031,0.609-0.283,0.803-0.6c0.225-0.063,1.059-0.031,1.219,0c-0.096,1.675-0.031,3.288,0.322,5.311  c0.063,0.349,0,0.443-0.162,0.537c-0.32,0.19-0.449,0.316-0.801,0.443c-0.291,0.063-0.385,0.031-0.482-0.189  c-0.387-1.486-0.898-2.498-2.023-3.225c-0.77-0.537-2.182-1.012-3.402-1.012c-1.639,0-3.018,1.359-3.018,3.035  c0,0.885,0.319,1.518,0.898,2.086c0.706,0.633,1.541,1.139,3.18,1.834c2.184,0.949,3.979,1.77,4.977,2.717  c1.41,1.33,1.895,2.467,1.895,4.27c0,2.402-1.35,4.109-3.053,4.963c-1.766,0.887-4.59,1.264-5.746,1.264  c-1.381,0-2.857-0.189-3.918-0.473c-0.256-0.064-0.416-0.064-0.609,0c-0.193,0.096-0.514,0.316-0.674,0.473  c-0.225,0.191-0.449,0.223-0.739,0.223H128.891z"/>
<path fill="#231F20" d="M151.08,150.264c0.42-0.072,1.111-0.17,1.482-0.267c0.545-0.122,0.988-0.317,1.088-0.925  c0.074-0.561,0.223-1.924,0.223-5.064v-2.458c0-4.14-0.025-4.893-0.074-4.893h-1.582c-2.201,0-3.264,0.269-3.559,0.511  c-0.273,0.17-0.422,0.586-0.791,1.705c-0.053,0.121-0.199,0.146-0.521,0.023c-0.248-0.123-0.594-0.293-0.668-0.56  c0.248-0.778,0.842-2.069,1.51-4.138c0.146-0.074,0.396-0.051,0.666,0.023c0.148,0.049,0.199,0.098,0.223,0.221  c0.1,0.461,0.174,0.68,0.373,0.729c0.195,0.074,0.492,0.074,1.063,0.098c0.666,0.025,1.854,0.025,4.324,0.025  c2.869,0,5.17-0.049,6.23-0.074c0.693-0.024,1.039-0.072,1.236-0.122c0.223-0.071,0.52-0.413,0.668-0.706  c0.049-0.145,0.1-0.17,0.199-0.17c0.32,0,0.518,0.074,0.791,0.17c0.096,0.025,0.123,0.098,0.047,0.341  c-0.418,1.388-0.443,1.948-0.592,3.87c-0.025,0.123-0.1,0.22-0.346,0.22c-0.223,0-0.645-0.024-0.74-0.05  c-0.125-0.072-0.199-0.145-0.199-0.242c0-0.121,0.049-1.021,0.049-1.266c0-0.219-0.1-0.34-0.371-0.439  c-0.248-0.096-1.656-0.169-3.262-0.169h-0.742c-0.373,0-0.496,0.146-0.496,0.56c0,0.365-0.098,1.606-0.098,4.553v2.482  c0,3.141,0.098,4.26,0.199,4.625c0.123,0.414,0.195,0.682,0.492,0.876c0.52,0.292,1.459,0.462,2.227,0.511  c0.197,0.025,0.221,0.051,0.172,0.27l-0.123,0.655c-0.025,0.099-0.049,0.147-0.422,0.147c-0.988,0-2.645-0.074-3.879-0.074  c-1.832,0-4.156,0.098-4.377,0.098c-0.174,0-0.248-0.072-0.297-0.193L151.08,150.264z"/>
<path fill="#231F20" d="M173.799,134.833c0.346,0,0.445,0.047,0.57,0.463c0.715,2.115,1.26,3.528,2.148,5.816  c0.842,2.217,2.473,6.135,2.867,7.06c0.645,1.388,1.016,1.849,2.598,2.19c0.074,0-0.225,0.998-0.396,0.998  c-2.793-0.023-3.262-0.023-4.129-0.023c-0.789,0-1.928,0.098-2.125,0.098c-0.1,0-0.15-0.025-0.172-0.098  c-0.076-0.147-0.373-0.803-0.273-0.9c1.039-0.268,1.285-0.463,1.285-0.852c0.025-0.438-0.889-2.68-1.039-2.971  c-0.172-0.316-0.369-0.535-0.668-0.535c-0.791-0.025-3.484-0.05-4.424,0.048c-0.52,0.048-0.693,0.22-0.816,0.536  c-0.271,0.705-0.816,1.898-0.816,2.701c0,0.512,0.223,0.634,1.436,0.9c0.148,0.025-0.1,0.998-0.346,1.023  c-1.559-0.025-2.992-0.025-3.486-0.025c-0.445,0-0.816,0.025-0.939,0c-0.1,0-0.123-0.023-0.148-0.096  c-0.1-0.146-0.299-0.902-0.172-0.951c1.332-0.412,1.705-1.264,2.199-2.385c0.543-1.217,3.512-7.863,4.795-10.93  c0.199-0.535,0.445-1.145,0.545-1.412c0.049-0.171,0.125-0.268,0.246-0.367c0.346-0.144,0.891-0.289,1.236-0.289H173.799z   M170.609,144.545c0.197,0,0.545,0.023,1.385,0.023c0.691,0,1.088,0,1.928-0.023c0.174,0,0.371-0.195,0.346-0.293  c-0.939-2.678-1.432-4.09-1.779-4.869c-0.049-0.097-0.223-0.146-0.271-0.073c-0.717,1.606-1.039,2.435-2.027,4.942  c-0.074,0.145,0.1,0.293,0.396,0.293H170.609z"/>
<path fill="#231F20" d="M186.137,150.264c0.418-0.072,1.111-0.17,1.482-0.267c0.545-0.122,0.988-0.317,1.088-0.925  c0.076-0.561,0.221-1.924,0.221-5.064v-2.458c0-4.14-0.021-4.893-0.072-4.893h-1.584c-2.197,0-3.262,0.269-3.559,0.511  c-0.273,0.17-0.42,0.586-0.791,1.705c-0.049,0.121-0.199,0.146-0.52,0.023c-0.246-0.123-0.594-0.293-0.666-0.56  c0.246-0.778,0.84-2.069,1.508-4.138c0.146-0.074,0.395-0.051,0.666,0.023c0.148,0.049,0.197,0.098,0.223,0.221  c0.098,0.461,0.172,0.68,0.371,0.729c0.199,0.074,0.496,0.074,1.063,0.098c0.668,0.025,1.855,0.025,4.326,0.025  c2.869,0,5.168-0.049,6.23-0.074c0.693-0.024,1.039-0.072,1.236-0.122c0.223-0.071,0.52-0.413,0.668-0.706  c0.051-0.145,0.1-0.17,0.197-0.17c0.322,0,0.521,0.074,0.791,0.17c0.1,0.025,0.125,0.098,0.049,0.341  c-0.42,1.388-0.443,1.948-0.592,3.87c-0.023,0.123-0.1,0.22-0.346,0.22c-0.223,0-0.645-0.024-0.742-0.05  c-0.123-0.072-0.199-0.145-0.199-0.242c0-0.121,0.051-1.021,0.051-1.266c0-0.219-0.1-0.34-0.369-0.439  c-0.248-0.096-1.658-0.169-3.266-0.169h-0.74c-0.371,0-0.494,0.146-0.494,0.56c0,0.365-0.102,1.606-0.102,4.553v2.482  c0,3.141,0.102,4.26,0.199,4.625c0.123,0.414,0.197,0.682,0.494,0.876c0.52,0.292,1.459,0.462,2.225,0.511  c0.197,0.025,0.225,0.051,0.174,0.27l-0.123,0.655c-0.025,0.099-0.051,0.147-0.422,0.147c-0.986,0-2.645-0.074-3.881-0.074  c-1.83,0-4.152,0.098-4.377,0.098c-0.172,0-0.246-0.072-0.295-0.193L186.137,150.264z"/>
<path fill="#231F20" d="M208.51,142.573c1.234,0,1.828,0,2.373-0.049c1.236-0.074,1.361-0.316,1.904-1.631  c0.049-0.121,0.791-0.242,1.162-0.121c-0.076,0.657-0.174,1.972-0.174,2.848c0.023,0.973,0.023,1.412,0.123,2.336  c-0.174,0.025-0.443,0.073-0.74,0.073c-0.225,0-0.322-0.048-0.396-0.169c-0.076-0.172-0.32-0.805-0.445-1.072  c-0.148-0.438-0.469-0.706-1.311-0.754c-0.691-0.049-1.211-0.073-2.273-0.073c-0.693,0-0.939,0.024-1.162,0.024  c-0.15,0.023-0.199,0.072-0.246,0.195c-0.125,0.242-0.174,1.41-0.174,3.309c0,1.242,0.023,1.633,0.221,1.875  c0.373,0.487,1.311,0.537,2.746,0.537c2.445,0,4.027-0.391,4.77-2.996c0.297-0.096,0.742-0.023,0.867,0  c0.074,0.025,0.074,0.025,0.074,0.172c-0.051,1.729-0.447,3.359-0.77,4.064c-0.096,0.146-0.172,0.195-0.295,0.195  c-0.174,0-0.371,0-1.162-0.024c-0.74-0.024-2.422-0.05-4.695-0.05c-2.672,0-5.07,0.1-6.898,0.123  c-0.125-0.049-0.1-0.682-0.076-0.901c0.051-0.146,0.051-0.146,0.174-0.194c1.188-0.219,1.484-0.292,1.51-0.804  c0.021-0.317,0.195-1.923,0.195-4.089v-5.844c0-1.775-0.146-2.336-0.195-2.48c-0.025-0.196-0.074-0.342-0.322-0.391  c-0.223-0.098-0.592-0.195-1.385-0.34c-0.098-0.051-0.123-0.051-0.098-0.27l0.098-0.682c0-0.121,0-0.17,0.146-0.17h0.719  c0.791,0,2.027,0.074,3.98,0.074h1.979c2.348,0,3.709-0.146,5.289-0.146c0.348,0,0.568,0.023,0.643,0.121  c0.076,0.121,0.174,0.292,0.1,0.707c-0.271,1.434-0.271,2.481-0.271,3.285c-0.914,0.024-0.965-0.049-1.037-0.268  c-0.693-1.947-1.262-2.385-2.352-2.385h-0.986c-1.436,0-2.25,0.048-2.547,0.098c-0.396,0.023-0.42,0.486-0.42,0.73  c0,1.557,0,3.113,0.023,4.648c0,0.34,0.049,0.486,0.297,0.486H208.51z"/>
<path fill="#231F20" d="M24.432,169.28c0-1.02,0.263-2.369,1.269-3.459c0.788-0.848,1.794-1.135,2.639-1.365  c0.657-0.172,1.604-0.271,2.23-0.271c0.657,0,1.429,0.156,1.793,0.3c0.205,0.044,0.351-0.028,0.613-0.144  c0.029-0.014,0.059,0,0.161,0.03c0.16,0.071,0.189,0.085,0.175,0.113c-0.307,0.704-0.336,1.437-0.248,2.227  c0,0.028-0.161,0.058-0.248,0.058c-0.204,0.042-0.219,0.027-0.248-0.058c-0.059-0.202-0.175-0.646-0.263-0.919  c-0.088-0.244-0.16-0.389-0.394-0.574c-0.306-0.172-1.005-0.46-2.056-0.46c-1.123,0-2.114,0.402-2.915,1.335  c-0.686,0.818-1.05,2.039-1.05,3.273c0,1.594,0.918,4.25,4.315,4.25c0.993,0,1.706-0.416,2.174-0.947  c0.291-0.303,0.451-0.575,0.597-0.819c0.045-0.071,0.073-0.085,0.175-0.014c0.117,0.101,0.191,0.173,0.175,0.243  c-0.16,0.646-0.51,1.436-0.699,1.738c-0.088,0.143-0.145,0.156-0.292,0.156c-0.452,0-1.341,0.246-2.362,0.246  c-3.951,0-5.541-2.614-5.541-4.925V169.28z"/>
<path fill="#231F20" d="M53.257,164.184c2.697,0,5.132,2.109,5.132,4.793c0,1.795-0.904,3.131-1.677,3.905  c-1.006,0.991-2.362,1.337-3.164,1.337c-1.589,0-3.295-0.69-4.315-1.824c-0.744-0.818-1.239-2.125-1.239-3.316  c0-1.234,0.496-2.541,1.691-3.574c0.962-0.848,2.304-1.32,3.558-1.32H53.257z M52.805,164.757c-0.788,0-1.647,0.345-2.317,1.063  c-0.817,0.904-1.036,2.268-1.036,3.113c0,1.32,0.481,2.498,1.297,3.316c1.021,1.005,1.969,1.35,3.018,1.35  c1.546,0,3.222-1.393,3.222-3.99c0-1.307-0.365-2.584-1.414-3.689c-0.613-0.66-1.502-1.163-2.755-1.163H52.805z"/>
<path fill="#231F20" d="M82.066,171.633c0.073,0,0.336,0.086,0.408,0.131c0.03,0.041,0.044,0.1,0.03,0.156  c-0.161,0.59-0.336,1.191-0.438,1.824c-0.029,0.157-0.117,0.215-0.262,0.215c-0.146,0.029-0.307,0.029-0.919,0.029  c-0.626,0-1.341-0.043-3.864-0.043c-0.801,0-1.53,0.043-1.822,0.07c-0.116,0.016-0.188,0.016-0.218,0  c-0.015-0.043-0.146-0.4-0.132-0.487c0.657-0.071,1.123-0.2,1.225-0.632c0.058-0.188,0.117-0.732,0.117-2.211v-2.971  c0-1.234-0.059-2.01-0.088-2.326c-0.029-0.316-0.131-0.374-1.167-0.374c-0.059,0-0.16-0.113-0.102-0.2l0.146-0.287  c0.029-0.072,0.058-0.072,0.116-0.072c0.423,0,0.89,0.014,1.444,0c0.642-0.014,1.414-0.043,2.187-0.1  c0.044,0.057,0.102,0.401,0.087,0.473c-0.758,0.102-1.283,0.158-1.34,0.748c-0.059,0.473-0.103,1.521-0.088,2.611l0.015,1.752  c0.014,2.311,0.029,2.756,0.043,2.986c0.015,0.216,0.088,0.329,0.278,0.373c0.277,0.057,0.787,0.086,1.443,0.086  c1.108,0,1.968-0.029,2.463-0.732c0.132-0.215,0.263-0.488,0.365-0.934c0.015-0.057,0.029-0.086,0.058-0.086H82.066z"/>
<path fill="#231F20" d="M105.904,171.633c0.074,0,0.336,0.086,0.408,0.131c0.03,0.041,0.046,0.1,0.03,0.156  c-0.16,0.59-0.336,1.191-0.438,1.824c-0.03,0.157-0.116,0.215-0.262,0.215c-0.146,0.029-0.308,0.029-0.919,0.029  c-0.627,0-1.341-0.043-3.864-0.043c-0.801,0-1.531,0.043-1.823,0.07c-0.116,0.016-0.189,0.016-0.218,0  c-0.014-0.043-0.146-0.4-0.132-0.487c0.657-0.071,1.123-0.2,1.225-0.632c0.058-0.188,0.118-0.732,0.118-2.211v-2.971  c0-1.234-0.06-2.01-0.088-2.326c-0.03-0.316-0.132-0.374-1.167-0.374c-0.058,0-0.16-0.113-0.102-0.2l0.146-0.287  c0.028-0.072,0.058-0.072,0.116-0.072c0.423,0,0.889,0.014,1.443,0c0.642-0.014,1.415-0.043,2.188-0.1  c0.042,0.057,0.102,0.401,0.088,0.473c-0.759,0.102-1.283,0.158-1.343,0.748c-0.058,0.473-0.102,1.521-0.088,2.611l0.016,1.752  c0.014,2.311,0.028,2.756,0.044,2.986c0.014,0.216,0.088,0.329,0.276,0.373c0.278,0.057,0.788,0.086,1.445,0.086  c1.107,0,1.967-0.029,2.463-0.732c0.132-0.215,0.262-0.488,0.366-0.934c0.014-0.057,0.028-0.086,0.058-0.086H105.904z"/>
<path fill="#231F20" d="M126.054,168.848c0.685,0,1.195-0.014,1.487-0.027c0.976-0.087,0.991-0.072,1.195-0.949  c0.059-0.057,0.422-0.07,0.481-0.057c-0.03,0.431-0.104,1.077-0.104,1.508c0.016,0.488,0.044,0.904,0.09,1.35  c-0.118,0.028-0.278,0.043-0.336,0.043c-0.09,0-0.118-0.028-0.146-0.115c-0.059-0.158-0.118-0.359-0.162-0.546  c-0.086-0.388-0.218-0.474-0.844-0.531c-0.308-0.028-0.833-0.028-1.591-0.028c-0.771,0-0.935,0.015-1.005,0.015  c-0.061,0.014-0.103,0.029-0.146,0.085c-0.044,0.072-0.146,0.59-0.146,1.724c0,1.077,0.015,1.479,0.16,1.694  c0.203,0.316,0.67,0.344,1.969,0.344c1.617,0,2.595-0.043,3.033-1.621c0.102,0,0.219,0,0.365,0.029  c0.042,0.027,0.042,0.041,0.042,0.1c-0.028,0.689-0.246,1.564-0.45,2.01c-0.074,0.086-0.104,0.115-0.176,0.115  c-0.117,0-0.22,0-0.699-0.016c-0.482-0.014-1.503-0.027-2.742-0.027c-1.166,0-2.332,0.043-3.527,0.086  c-0.031-0.016-0.031-0.344-0.031-0.445c0-0.029,0.045-0.072,0.072-0.072c0.672-0.114,0.716-0.229,0.73-0.459  c0.029-0.187,0.104-1.091,0.104-2.584v-2.439c0-1.982-0.09-2.672-0.104-2.758c-0.015-0.086-0.029-0.129-0.19-0.158  c-0.146-0.057-0.407-0.101-0.714-0.199c-0.043-0.015-0.043-0.015-0.043-0.059l0.043-0.358c0.014-0.058,0.014-0.071,0.088-0.071  h0.452c0.481,0,1.035,0.027,1.925,0.027h1.429c0.932,0,1.997-0.071,2.727-0.071c0.204,0,0.292,0.015,0.364,0.071  c0.131,0.086,0.131,0.072,0.088,0.332c-0.131,0.76-0.146,1.477-0.146,1.908c-0.408,0-0.451-0.029-0.466-0.129  c-0.161-1.078-0.247-1.552-1.444-1.552h-1.064c-0.859,0-1.385,0.03-1.561,0.087c-0.174,0.043-0.218,0.115-0.218,0.488  c0,1.004,0.028,2.039,0.028,3.044c0,0.129,0.076,0.214,0.189,0.214H126.054z"/>
<path fill="#231F20" d="M146.758,169.122c0-1.479,0.553-2.627,1.471-3.474c0.641-0.575,1.385-0.891,2.393-1.179  c0.902-0.228,1.895-0.285,2.346-0.285c0.453,0,1.313,0.1,1.852,0.271c0.088,0.014,0.146,0.028,0.176,0l0.115-0.214  c0.031-0.058,0.045-0.073,0.133-0.058l0.32,0.014c0.045,0,0.059,0.029,0.072,0.215c0.031,0.818,0.146,1.695,0.205,1.939  c0.029,0.127,0.029,0.301,0.014,0.358c-0.014,0.015-0.043,0.028-0.146,0.028h-0.246c-0.043,0-0.072-0.014-0.131-0.129  c-0.352-0.99-1.283-1.867-2.932-1.867c-0.889,0-1.807,0.217-2.652,0.934c-0.686,0.588-1.545,1.709-1.545,3.547  c0,0.961,0.246,2.139,1.268,3.1c1.152,1.105,2.844,1.277,3.631,1.277c0.467,0,1.094-0.158,1.297-0.315  c0.291-0.216,0.408-0.874,0.408-1.88c0-1.364-0.059-1.523-0.555-1.623c-0.16-0.027-0.859-0.115-1.004-0.158  c-0.09-0.014-0.133-0.057-0.162-0.129c-0.043-0.071-0.072-0.2-0.086-0.271c0-0.088,0-0.115,0.057-0.115  c0.844,0,1.488,0.057,2.129,0.057c0.787,0,1.297-0.057,1.531-0.057c0.045,0.027,0,0.545-0.029,0.617  c-0.16,0.014-0.293,0.043-0.57,0.057c-0.027,0.13-0.113,1.092-0.113,3.618c0,0.243-0.074,0.345-0.221,0.474  c-0.146,0.115-0.35,0.143-0.51,0.143c-0.232,0-0.467,0-1.078,0.044c-0.541,0.042-0.992,0.087-1.561,0.087  c-1.984,0-3.369-0.489-4.418-1.465c-0.846-0.775-1.457-1.995-1.457-3.547V169.122z"/>
<path fill="#231F20" d="M176.57,168.848c0.688,0,1.197-0.014,1.49-0.027c0.977-0.087,0.99-0.072,1.195-0.949  c0.057-0.057,0.422-0.07,0.479-0.057c-0.027,0.431-0.1,1.077-0.1,1.508c0.014,0.488,0.043,0.904,0.086,1.35  c-0.115,0.028-0.275,0.043-0.336,0.043c-0.086,0-0.115-0.028-0.145-0.115c-0.059-0.158-0.117-0.359-0.158-0.546  c-0.09-0.388-0.221-0.474-0.848-0.531c-0.305-0.028-0.83-0.028-1.588-0.028c-0.773,0-0.934,0.015-1.008,0.015  c-0.057,0.014-0.102,0.029-0.145,0.085c-0.045,0.072-0.146,0.59-0.146,1.724c0,1.077,0.016,1.479,0.162,1.694  c0.203,0.316,0.67,0.344,1.967,0.344c1.619,0,2.594-0.043,3.031-1.621c0.104,0,0.221,0,0.365,0.029  c0.045,0.027,0.045,0.041,0.045,0.1c-0.029,0.689-0.25,1.564-0.453,2.01c-0.072,0.086-0.1,0.115-0.174,0.115  c-0.117,0-0.221,0-0.699-0.016c-0.482-0.014-1.504-0.027-2.742-0.027c-1.166,0-2.334,0.043-3.529,0.086  c-0.027-0.016-0.027-0.344-0.027-0.445c0-0.029,0.043-0.072,0.072-0.072c0.672-0.114,0.715-0.229,0.729-0.459  c0.029-0.187,0.102-1.091,0.102-2.584v-2.439c0-1.982-0.088-2.672-0.102-2.758s-0.029-0.129-0.189-0.158  c-0.146-0.057-0.408-0.101-0.715-0.199c-0.043-0.015-0.043-0.015-0.043-0.059l0.043-0.358c0.016-0.058,0.016-0.071,0.09-0.071h0.449  c0.482,0,1.037,0.027,1.926,0.027h1.428c0.934,0,2-0.071,2.727-0.071c0.205,0,0.293,0.015,0.365,0.071  c0.131,0.086,0.131,0.072,0.086,0.332c-0.131,0.76-0.145,1.477-0.145,1.908c-0.408,0-0.453-0.029-0.467-0.129  c-0.16-1.078-0.248-1.552-1.443-1.552h-1.064c-0.859,0-1.385,0.03-1.559,0.087c-0.176,0.043-0.219,0.115-0.219,0.488  c0,1.004,0.027,2.039,0.027,3.044c0,0.129,0.072,0.214,0.191,0.214H176.57z"/>
<rect x="1.025" y="157.174" fill="#231F20" width="214.649" height="0.799"/>
<path fill="#231F20" d="M143.701,57.868v-13.15c6.375,2.163,11.115,5.445,14.129,9.809l1.639,2.379l0.051,0.027h13.813l0.061-0.064  l-2.025-28.098l-0.061-0.055h-8.85c-0.035,0.01-3.33,2.254-5.014,3.401c-4.822-1.311-9.385-2.387-13.742-3.202v-4.232  c0-4.984,0.615-9.735,1.16-10.916c0.168-0.252,0.262-0.347,0.262-0.347c0.434-0.234,2.682-0.345,4.469-0.423l6.99-0.333l0.055-0.062  l-0.021-5.173V0.077l-0.063-0.062l-13.947,0.275c-0.008,0-7.303,0.146-7.447,0.15c-0.145-0.004-22.059-0.422-22.08-0.422  l-0.062,0.061l0.033,5.538v6.862l0.056,0.061l7.6,0.544c2.336,0.159,4.994,0.351,5.595,0.681c-0.011,0.024,0.104,0.167,0.301,0.607  c1.004,2.183,1.009,7.41,1.009,9.917v2.619c-2.236-0.132-4.445-0.208-6.607-0.208c-2.936,0-5.83,0.106-8.666,0.277  c-2.631-1.5-47.521-26.878-47.521-26.878C64.783,0.089,50.549,0.434,50.36,0.439C50.19,0.437,30.748,0,30.748,0l-0.061,0.06  l0.041,5.558v7.195l0.061,0.059l5.465,0.049c5.718,0.053,7.484,1.14,10.842,3.504v24.802c0.002,1.977-0.01,6.502-0.738,8.376  c-0.988,0.524-4.733,0.719-7.5,0.854l-5.602,0.272l-0.058,0.061v12.516l0.062,0.061c0.023,0,22.064-0.417,22.211-0.42  c0.13,0.003,19.104,0.396,20.194,0.419c9.427,6.488,26.713,9.754,45.315,12.626c8.136,1.297,17.408,2.883,24.107,5.208  c6.174,2.137,7.805,4.138,7.789,4.909c-0.621,1.822-10.871,6.56-32.123,6.548c-22.57,0.002-37.044-5.21-41.881-15.026l-1.508-3.058  l-0.055-0.034H63.372L63.311,74.6v30.29l0.061,0.059h9.275c0.035-0.012,3.481-2.434,5.244-3.67  c14.492,4.085,27.339,5.873,42.367,5.873c29.905-0.008,64.854-6.566,64.884-25.227C185.125,67.71,166.504,62.103,143.701,57.868   M80.16,34.38c-9.396,5.117-11.684,11.767-11.874,15.895l-0.066,0.059c-2.304-0.181-3.404-0.456-4.078-1.192l0.046-0.041  l-0.047,0.037c-0.42-0.524-1.07-2.201-1.072-7.91c0,0-0.025-8.851-0.025-16.222c0-0.021,0.011-0.041,0.03-0.052  c0.018-0.009,0.042-0.009,0.061,0c5.911,3.297,10.14,5.48,17.026,9.323c0.018,0.008,0.032,0.029,0.032,0.053  C80.192,34.349,80.178,34.369,80.16,34.38 M114.973,52.821c-1.756-0.424-7.604-1.701-9.163-2.184c-6.474-2-8.195-3.682-8.62-4.244  l0.005-0.076c0.23-0.238,1.427-1.417,2.329-1.9l0.06,0.001c2.239,1.248,9.794,5.148,15.432,8.294  c0.027,0.014,0.038,0.045,0.027,0.074C115.034,52.809,114.979,52.822,114.973,52.821"/>
<path fill="#B09259" d="M135.783,59.53c1.127-0.498,4.018-1.774,4.021-1.775l0.035-0.057V38.911  c9.768,2.243,16.904,6.487,21.182,12.682l0.494,0.714l0.049,0.024h7.621l0.063-0.063l-1.479-20.494l-0.059-0.055h-4.049  c-0.039,0.014-4.459,3.023-5.508,3.736c-6.574-1.851-12.59-3.206-18.314-4.141v-7.43c-0.004-4.975,0.609-11.203,1.705-12.873  c1.416-2.233,2.76-2.377,7.869-2.613l3.287-0.156l0.059-0.06l-0.006-1.552V3.157l-0.063-0.06l-9.994,0.197l-7.559,0.15  l-18.174-0.345l-0.064,0.06l0.012,1.662v3.327l0.058,0.06l4.006,0.288c6.489,0.454,7.853,0.635,9.16,3.544  c1.331,2.902,1.335,8.255,1.335,11.451v6.759c-3.554-0.339-7.074-0.546-10.467-0.546c-3.26,0-6.48,0.118-9.6,0.334  C110.604,29.57,63.829,3.127,63.829,3.127L50.337,3.444v0.002c-0.374-0.012-6.947-0.158-6.955-0.158l-8.743-0.196l-0.063,0.06  L34.59,4.82v3.425l0.061,0.061L36.29,8.32c7.194,0.068,9.686,1.834,13.501,4.529c0,0,0.613,0.428,1.167,0.813v26.768  c0.001,2.872-0.003,7.679-1.16,10.17c-1.093,2.264-4.421,2.551-10.747,2.856l-1.933,0.094l-0.059,0.06v5.024l0.062,0.06  l18.374-0.347l18.072,0.376l0.059-0.046l0.334-1.217c-0.002,0.001,0.19-0.68,0.342-1.208c6.64,8.203,26.742,12.012,47.278,15.186  c13.164,2.084,35.199,5.654,35.158,13.873c0.01,2.909-3.834,5.518-10.273,7.374c-6.436,1.857-15.441,2.977-25.711,2.977  c-24.148,0-39.825-5.949-45.354-17.166l-0.454-0.918l-0.055-0.033h-7.659l-0.061,0.061v22.684l0.061,0.061h4.177  c0.035-0.012,4.673-3.27,5.749-4.025c14.878,4.351,27.832,6.229,43.099,6.229c29.365-0.012,60.99-6.656,61.021-21.426  C181.254,68.465,159.309,63.566,135.783,59.53 M123.248,36.956c2.753,0.065,5.394,0.22,7.885,0.483l0.054,0.06v3.974  c0,0.02-0.013,0.04-0.032,0.051c-0.008,0.005-0.019,0.008-0.029,0.008c-0.009,0-0.02-0.002-0.027-0.008  c-1.88-1.062-4.284-2.421-7.883-4.455c-0.022-0.014-0.035-0.041-0.027-0.068C123.195,36.975,123.221,36.956,123.248,36.956   M88.557,34.385c-10.623,3.657-16.436,9.173-16.433,15.758c0,1.195,0.288,2.298,0.716,3.36c0.006,0.02,0.004,0.042-0.007,0.057  c-0.012,0.016-0.03,0.025-0.048,0.025c-0.001,0-0.003-0.001-0.004-0.001c-0.229-0.01-1.772-0.158-1.772-0.158  s-7.661-0.271-9.737-2.546c-2.071-2.257-2.058-7.999-2.063-10.453v-22.43c0-0.021,0.011-0.04,0.031-0.051  c0.019-0.011,0.042-0.011,0.06,0c3.39,1.891,24.261,13.534,29.27,16.328c0.021,0.01,0.032,0.034,0.03,0.056  C88.596,34.356,88.58,34.376,88.557,34.385 M131.924,58.995h-0.01c-1.445-0.242-2.89-0.482-4.332-0.721l-2.344-0.388  c-10.387-1.767-31.995-5.345-32.042-12.423c0.009-2.581,3.376-4.364,5.804-5.341l0.053,0.003c1.297,0.723,22.48,12.541,22.492,12.55  c0.004-0.002,0.453,0.27,1.178,0.701c0.733,0.437,1.742,1.039,2.85,1.7c2.213,1.32,4.816,2.875,6.383,3.809  c0.025,0.014,0.035,0.045,0.025,0.073C131.971,58.979,131.949,58.995,131.924,58.995"/>
</svg>