<?xml version="1.0" encoding="UTF-8" standalone="no"?>
<svg xmlns="http://www.w3.org/2000/svg" version="1.2" baseProfile="tiny" width="113.194" height="113.189" viewBox="0 0 113.194 113.189" xml:space="preserve"><title>The University of Nevada, Reno</title><g transform="matrix(1.25,0,0,-1.25,-45.90572,151.10633)" id="g3423"><path d="m 126.564,30.824 -88.555,0 0,88.551 88.555,0 0,-88.551 z" id="path3425" style="fill:#0e2b58;fill-opacity:1;fill-rule:nonzero;stroke:none"/><g id="g3427"><g id="g3429"><path d="m 126.564,30.824 -88.555,0 0,88.551 88.555,0 0,-88.551 z" id="path3435" style="fill:none;stroke:#ffffff;stroke-width:2;stroke-linecap:butt;stroke-linejoin:miter;stroke-miterlimit:4;stroke-opacity:1;stroke-dasharray:none"/></g></g><g transform="translate(92.9375,68.0088)" id="g3437"><path d="m 0,0 -20.967,25.693 -13.067,0 0,-4.806 3.403,0 0,-27.549 -3.403,0 0,-4.802 16.199,0 0,4.802 -3.469,0 0,20.338 20.56,-25.14 13.476,0 0,4.802 -3.406,0 0,27.549 3.406,0 0,4.806 -16.136,0 0,-4.806 3.404,0 L 0,0 z m -2.926,-13.77 -15.313,18.678 0,-9.26 3.536,0 0,-9.418 -22.463,0 0,9.418 3.404,0 0,22.935 -3.404,0 0,9.37 18.446,0 15.592,-19.086 0,9.716 -3.405,0 0,9.37 22.398,0 0,-9.37 -3.407,0 0,-22.935 3.407,0 0,-9.418 -18.791,0 z" id="path3439" style="fill:#ffffff;fill-opacity:1;fill-rule:nonzero;stroke:none"/></g></g></svg>