<?xml version="1.0" encoding="UTF-8"?>
<svg xmlns="http://www.w3.org/2000/svg" version="1.2" baseProfile="tiny" id="Layer_1" width="541.334" height="196" viewBox="0 0 541.334 196" overflow="visible" enable-background="new 0 0 541.334 196" xml:space="preserve">
	<title>The University of Nevada, Las Vegas</title>
<g>
	<rect x="11.564" y="10.083" fill="none" width="518.207" height="175.834"/>
	<rect x="11.564" y="154.298" width="518.207" height="31.619"/>
	<path fill="#FFFFFF" d="M54.37,164.646v9.368c0,1.466-0.106,2.829-1.336,4.01c-1.227,1.189-3.073,1.646-4.943,1.646   c-1.789,0-3.686-0.301-4.916-1.432c-1.336-1.206-1.438-2.691-1.438-4.225v-9.368h2.293v9.368c0,0.886,0.03,2.096,0.695,2.869   c0.746,0.887,2.299,1.141,3.557,1.141c1.176,0,2.511-0.3,3.281-1.052c0.883-0.846,0.883-1.943,0.883-2.958v-9.368H54.37"/>
	<polygon fill="#FFFFFF" points="71.242,179.451 61.913,166.546 61.913,179.451 59.992,179.451 59.992,164.646 62.877,164.646    71.562,176.712 71.562,164.646 73.484,164.646 73.484,179.451  "/>
	<rect x="79.402" y="164.646" fill="#FFFFFF" width="2.293" height="14.806"/>
	<polygon fill="#FFFFFF" points="94.366,179.451 92.167,179.451 85.974,164.646 88.376,164.646 93.476,176.863 98.553,164.646    100.56,164.646  "/>
	<polygon fill="#FFFFFF" points="116.463,179.451 104.601,179.451 104.601,164.646 116.198,164.646 116.198,166.245 106.9,166.245    106.9,170.948 114.276,170.948 114.276,172.44 106.9,172.44 106.9,177.854 116.463,177.854  "/>
	<path fill="#FFFFFF" d="M127.717,171.534c1.234,0,2.25-0.069,3.156-0.825c0.641-0.519,0.933-1.227,0.933-1.942   c0-0.865-0.402-1.574-1.281-2.05c-0.8-0.454-1.574-0.472-2.538-0.472h-4.569v5.289H127.717 M131.887,179.451l-3.392-6.408h-5.077   v6.408h-2.296v-14.806h6.865c1.496,0,2.94,0.148,4.171,0.912c1.227,0.749,1.949,1.979,1.949,3.229c0,1.751-1.285,3.326-3.421,3.796   l3.605,6.868H131.887z"/>
	<path fill="#FFFFFF" d="M140.368,175.091c0.746,2.05,2.858,3.005,5.42,3.005c1.096,0,2.433-0.201,3.287-0.736   c0.696-0.436,1.125-1.192,1.125-1.9c0-1.489-1.526-2.096-3.127-2.416l-3.047-0.603c-1.227-0.242-2.35-0.478-3.314-1.192   c-0.958-0.689-1.492-1.704-1.492-2.739c0-2.85,3.042-4.076,6.224-4.076c3.072,0,5.53,1.227,6.518,3.625l-2.086,0.451   c-0.399-1.616-2.538-2.61-4.487-2.61c-1.734,0-3.925,0.735-3.925,2.352c0,1.661,1.602,2.03,3.308,2.35l2.753,0.541   c1.207,0.219,2.406,0.495,3.339,1.143c1.151,0.76,1.71,1.771,1.71,2.939c0,1.336-0.723,2.547-2.055,3.366   c-1.335,0.815-3.127,1.081-4.784,1.081c-3.74,0-6.201-1.344-7.428-4.211L140.368,175.091"/>
	<rect x="157.716" y="164.646" fill="#FFFFFF" width="2.301" height="14.806"/>
	<polygon fill="#FFFFFF" points="169.525,179.451 169.525,166.263 164.315,166.263 164.315,164.646 177.031,164.646    177.031,166.263 171.821,166.263 171.821,179.451  "/>
	<polygon fill="#FFFFFF" points="187.757,173.213 187.757,179.451 185.46,179.451 185.46,173.213 179.341,164.646 182.016,164.646    186.877,171.465 191.793,164.646 193.876,164.646  "/>
	<path fill="#FFFFFF" d="M219.183,171.983c0-1.315-0.266-2.848-1.093-4.037c-0.829-1.162-2.246-1.983-3.956-1.983   c-4.085,0-5.207,3.561-5.207,6.218c0,2.541,1.281,5.977,5.156,5.977C218.011,178.157,219.183,174.529,219.183,171.983    M206.522,172.157c0-3.69,2.246-7.725,7.533-7.725c5.155,0,7.537,3.797,7.537,7.445c0,3.628-2.301,7.792-7.509,7.792   C208.819,179.67,206.522,175.867,206.522,172.157"/>
	<polygon fill="#FFFFFF" points="226.838,179.451 226.838,164.646 238.059,164.646 238.059,166.245 229.138,166.245    229.138,170.948 236.539,170.948 236.539,172.44 229.138,172.44 229.138,179.451  "/>
	<polygon fill="#FFFFFF" points="262.248,179.451 252.926,166.546 252.926,179.451 251.002,179.451 251.002,164.646    253.891,164.646 262.571,176.712 262.571,164.646 264.494,164.646 264.494,179.451  "/>
	<polygon fill="#FFFFFF" points="282.245,179.451 270.383,179.451 270.383,164.646 281.982,164.646 281.982,166.245    272.681,166.245 272.681,170.948 280.057,170.948 280.057,172.44 272.681,172.44 272.681,177.854 282.245,177.854  "/>
	<polygon fill="#FFFFFF" points="293.399,179.451 291.204,179.451 285.007,164.646 287.411,164.646 292.513,176.863    297.589,164.646 299.597,164.646  "/>
	<path fill="#FFFFFF" d="M306.009,166.634l-2.828,7.101h5.639L306.009,166.634z M311.171,179.451l-1.848-4.319h-6.783l-1.631,4.319   h-1.926l5.932-14.806h2.643l5.959,14.806H311.171z"/>
	<path fill="#FFFFFF" d="M323.251,177.874c2.113,0,3.793-0.385,4.992-1.877c0.916-1.124,1.342-2.654,1.342-3.994   c0-1.506-0.484-3.086-1.682-4.292c-1.262-1.273-2.73-1.51-4.652-1.51h-3.365v11.673H323.251 M317.585,164.646h5.803   c2.615,0,4.57,0.432,6.299,2.092c1.578,1.492,2.223,3.345,2.223,5.266c0,1.816-0.586,3.605-1.896,5.097   c-1.469,1.66-3.371,2.352-5.879,2.352h-6.549V164.646z"/>
	<path fill="#FFFFFF" d="M340.333,166.634l-2.83,7.101h5.639L340.333,166.634z M345.489,179.451l-1.84-4.319h-6.787l-1.629,4.319   h-1.926l5.934-14.806h2.643l5.955,14.806H345.489z"/>
	<polygon fill="#FFFFFF" points="372.374,179.451 361.558,179.451 361.558,164.646 363.854,164.646 363.854,177.81 372.374,177.81     "/>
	<path fill="#FFFFFF" d="M381.655,166.634l-2.828,7.101h5.639L381.655,166.634z M386.813,179.451l-1.84-4.319h-6.789l-1.627,4.319   h-1.926l5.934-14.806h2.643l5.963,14.806H386.813z"/>
	<path fill="#FFFFFF" d="M393.61,175.091c0.742,2.05,2.859,3.005,5.42,3.005c1.098,0,2.434-0.201,3.289-0.736   c0.695-0.436,1.123-1.192,1.123-1.9c0-1.489-1.525-2.096-3.131-2.416l-3.045-0.603c-1.227-0.242-2.348-0.478-3.309-1.192   c-0.965-0.689-1.498-1.704-1.498-2.739c0-2.85,3.045-4.076,6.223-4.076c3.074,0,5.535,1.227,6.521,3.625l-2.08,0.451   c-0.402-1.616-2.543-2.61-4.492-2.61c-1.736,0-3.924,0.735-3.924,2.352c0,1.661,1.602,2.03,3.309,2.35l2.752,0.541   c1.205,0.219,2.406,0.495,3.336,1.143c1.152,0.76,1.713,1.771,1.713,2.939c0,1.336-0.719,2.547-2.057,3.366   c-1.336,0.815-3.129,1.081-4.783,1.081c-3.738,0-6.197-1.344-7.424-4.211L393.61,175.091"/>
	<polygon fill="#FFFFFF" points="426.993,179.451 424.802,179.451 418.601,164.646 421.011,164.646 426.11,176.863 431.187,164.646    433.187,164.646  "/>
	<polygon fill="#FFFFFF" points="448.56,179.451 436.7,179.451 436.7,164.646 448.286,164.646 448.286,166.245 438.997,166.245    438.997,170.948 446.366,170.948 446.366,172.44 438.997,172.44 438.997,177.854 448.56,177.854  "/>
	<path fill="#FFFFFF" d="M466.548,179.562h-1.42l-0.613-1.838c-1.152,1.36-3.07,1.946-5.076,1.946c-2.457,0-4.242-0.717-5.715-2.29   c-1.393-1.533-1.928-3.302-1.928-5.182c0-3.881,2.514-7.766,7.941-7.766c3.496,0,5.77,1.595,6.621,4.249l-2.164,0.434   c-0.453-1.858-2.221-3.132-4.619-3.132c-4.145,0-5.291,3.411-5.291,6.13c0,1.273,0.297,2.786,1.041,3.932   c0.828,1.25,2.457,2.112,4.273,2.112c2.834,0,4.596-1.554,4.596-3.8v-0.824h-4.57v-1.55h6.924V179.562"/>
	<path fill="#FFFFFF" d="M476.603,166.634l-2.832,7.101h5.637L476.603,166.634z M481.759,179.451l-1.846-4.319h-6.783l-1.631,4.319   h-1.924l5.936-14.806h2.643l5.959,14.806H481.759z"/>
	<path fill="#FFFFFF" d="M489.089,175.091c0.746,2.05,2.859,3.005,5.418,3.005c1.102,0,2.434-0.201,3.291-0.736   c0.695-0.436,1.125-1.192,1.125-1.9c0-1.489-1.525-2.096-3.129-2.416l-3.045-0.603c-1.23-0.242-2.352-0.478-3.313-1.192   c-0.959-0.689-1.498-1.704-1.498-2.739c0-2.85,3.049-4.076,6.225-4.076c3.072,0,5.533,1.227,6.521,3.625l-2.086,0.451   c-0.398-1.616-2.539-2.61-4.486-2.61c-1.736,0-3.934,0.735-3.934,2.352c0,1.661,1.609,2.03,3.316,2.35l2.754,0.541   c1.197,0.219,2.406,0.495,3.338,1.143c1.148,0.76,1.711,1.771,1.711,2.939c0,1.336-0.719,2.547-2.057,3.366   c-1.338,0.815-3.127,1.081-4.785,1.081c-3.74,0-6.193-1.344-7.42-4.211L489.089,175.091"/>
	<path fill="#D01027" d="M476.218,10.09v3.076c28.797,4.511,25.766,11.279,9.475,53.334l-22.35,58.051l-30.311-79.179   c-4.926-12.927-13.637-29.333,13.066-32.206V10.09l-134.283-0.007h-0.432h-51.255v3.018c21.394,4.025,26.315,9.66,26.505,28.779   l0.947,73.454L194.049,10.083h-31.106h-0.134h-54.767v3.018c26.502,2.616,28.396,14.29,28.396,39.846v21.132   c0,24.551,3.974,66.008-36.918,66.008c-51.879,0-45.818-51.92-45.818-55.744V43.087c0-22.137,0.375-26.162,25.182-29.986v-3.018   h-65.32v3.018c22.721,3.22,22.909,9.259,23.475,29.986v45.079c0,16.099-6.054,61.177,52.636,61.177   c42.029,0,52.445-26.359,53.011-52.321l1.137-44.075c0.757-26.52,1.895-37.792,19.042-39.833   c23.993,5.636,27.022,13.485,27.022,33.596v30.185c0,45.688,0.947,64.201-24.616,67.016v3.018h56.614v-3.018   c-27.455-5.837-26.319-16.102-26.319-66.007V40.874c31.998,36.623,65.697,71.844,95.99,109.876l2.459-0.599   c-0.947-43.877-1.891-92.372,0.76-114.514c1.508-13.006,3.957-20.636,16.832-22.498c22.488,3.226,22.688,9.294,23.258,29.947   v70.837c-0.574,20.728-0.762,26.766-23.48,29.985v3.018h105.842l10.783-37.429l-2.459-1.207   c-14.576,25.758-19.313,35.216-48.092,33.001l-23.1-1.809c-2.836-9.659-2.836-20.326-2.836-30.388V43.087   c0-20.728,0.758-26.767,23.475-29.986v-0.06c3.908-0.498,6.777-0.573,11.061,0.069v0.056c16.857,2.052,21.215,15.177,26.898,30.154   l42.811,110.978h2.648l36.182-93.544c11.74-29.741,17.232-45.947,35.037-47.588V10.09H476.218"/>
</g>
</svg>