<?xml version="1.0" encoding="UTF-8" standalone="no"?>
<svg xmlns="http://www.w3.org/2000/svg" version="1.2" baseProfile="tiny" width="360" height="216" viewBox="0 0 360 216" id="Layer_1" xml:space="preserve">
 <title>
    Desert Research Institute
  </title>
   
  <g id="g3128" transform="matrix(1.5442854,0,0,1.5442854,-84.913412,-54.854765)">
     
    <radialGradient cx="-125.8286" cy="503.84961" gradientTransform="matrix(50.7131,0,0,-50.7131,6487.8296,25640.762)" gradientUnits="userSpaceOnUse" id="SVGID_1_" r="1">
       
      <stop id="stop3131" offset="0" style="stop-color:#ffffff;stop-opacity:1"/>
       
      <stop id="stop3133" offset="1" style="stop-color:#e0e1e2;stop-opacity:1"/>
       
    </radialGradient>
     
    <circle cx="106.633" cy="88.996002" id="circle3135" r="50.713001" style="fill:url(#SVGID_1_)"/>
    <path d="m 75.53,49.139 c 0.391,-0.305 0.783,-0.606 1.182,-0.9 -0.4,0.293 -0.791,0.595 -1.182,0.9 z" id="path3137" style="fill:#231f20"/>
    <path d="m 77.931,47.372 c 0.206,-0.143 0.412,-0.285 0.619,-0.424 -0.208,0.137 -0.412,0.281 -0.619,0.424 z" id="path3139" style="fill:#231f20"/>
    <path d="m 80.357,45.788 0.036,-0.021 -0.036,0.021 z" id="path3141" style="fill:#231f20"/>
    <path d="m 60.457,68.291 c 0.26,-0.578 0.53,-1.15 0.812,-1.715 -0.284,0.564 -0.551,1.137 -0.812,1.715 z" id="path3143" style="fill:#231f20"/>
    <path d="m 57.473,76.885 c 0.688,-2.763 1.602,-5.432 2.712,-7.992 -1.117,2.562 -2.029,5.232 -2.712,7.992 z" id="path3145" style="fill:#231f20"/>
    <path d="m 56.891,79.55 c 0.132,-0.682 0.277,-1.357 0.436,-2.029 -0.158,0.671 -0.306,1.347 -0.436,2.029 z" id="path3147" style="fill:#231f20"/>
    <path d="m 56.451,82.262 c 0.078,-0.571 0.164,-1.139 0.26,-1.704 -0.096,0.566 -0.183,1.133 -0.26,1.704 z" id="path3149" style="fill:#231f20"/>
    <path d="m 56.001,88.122 c 0.013,-0.599 0.023,-1.198 0.055,-1.79 -0.032,0.593 -0.042,1.191 -0.055,1.79 z" id="path3151" style="fill:#231f20"/>
    <path d="m 73.153,51.107 c 0.567,-0.502 1.148,-0.989 1.737,-1.465 -0.59,0.475 -1.168,0.964 -1.737,1.465 z" id="path3153" style="fill:#231f20"/>
    <path d="m 56.154,85.046 c 0.043,-0.53 0.086,-1.06 0.146,-1.584 -0.06,0.526 -0.104,1.055 -0.146,1.584 z" id="path3155" style="fill:#231f20"/>
    <path d="m 63.296,62.872 c 0.527,-0.868 1.082,-1.715 1.661,-2.545 -0.576,0.832 -1.135,1.677 -1.661,2.545 z" id="path3157" style="fill:#231f20"/>
    <path d="m 101.429,114.366 c -1.309,0.447 -2.537,0.813 -3.729,1.148 -13.043,3.656 -19.373,0.926 -22.846,-0.305 -4.81,-1.705 -12.006,-5.508 -15.854,-8.822 1.681,4.64 4.021,8.963 6.905,12.858 5.489,1.811 11.354,2.576 17.297,2.334 5.158,-0.212 9.599,-1.257 13.74,-2.283 4.19,-1.04 8.078,-2.061 12.095,-2.19 12.993,-0.415 23.592,1.948 31.368,9.815 1.264,-1.127 2.472,-2.315 3.616,-3.563 -24.128,-15.997 -42.592,-8.992 -42.592,-8.992 z" id="path3159" style="fill:#004e72"/>
    <path d="m 149.16,116.619 c 3.658,-5.907 5.202,-9.197 6.91,-16.354 -0.106,0.444 0.116,-0.454 0,0 l -52.925,-1 -44.923,-0.848 h -0.008 c 9.119,10.875 22.693,15.874 36.438,15.308 1.047,-0.042 2.056,-0.128 3.046,-0.231 8.833,-0.93 15.602,-4.011 22.788,-4.239 12.096,-0.388 21.252,0.934 28.69,7.433" id="path3161" style="fill:#004e72"/>
    <path d="m 96.941,120.862 c -4.418,0.396 -6.964,1.356 -6.964,1.356 -8.632,2.646 -15.161,2.815 -19.554,2.322 9.202,9.411 22.033,15.261 36.234,15.261 9.938,0 19.198,-2.87 27.021,-7.812 C 117.954,121.13 104.656,120.17 96.941,120.862 z" id="path3163" style="fill:#004e72"/>
    <path d="m 56.141,93.019 c 11.563,-5.746 32.555,-11.944 47.005,-10.128 3.84,0.482 7.225,1.522 9.841,3.298 8.255,5.607 17.755,-4.509 23.73,-6.383 7.902,-2.478 14.594,-1.826 19.861,0.591 -4.137,-23.832 -24.903,-41.958 -49.92,-41.958 -9.615,0 -18.604,2.678 -26.265,7.329 l -0.036,0.021 c -0.612,0.373 -1.212,0.762 -1.808,1.159 -0.207,0.139 -0.413,0.281 -0.619,0.424 -0.41,0.284 -0.817,0.572 -1.219,0.867 -0.398,0.294 -0.791,0.595 -1.182,0.9 -0.214,0.167 -0.429,0.333 -0.64,0.503 -0.589,0.477 -1.17,0.963 -1.737,1.465 l -0.056,0.05 c -1.276,1.135 -2.496,2.332 -3.655,3.588 l -0.028,0.033 c 2.563,0.285 5.163,0.383 7.776,0.274 10.374,-0.427 17.847,-4.215 25.835,-4.47 13.342,-0.427 23.088,1.192 30.916,9.58 l -2.962,7.666 C 104.719,47.813 83.966,55.692 83.966,55.692 c -7.329,2.246 -13.13,2.704 -17.409,2.488 -0.432,0.556 -0.864,1.112 -1.272,1.685 -0.11,0.154 -0.222,0.307 -0.329,0.461 -0.579,0.83 -1.134,1.678 -1.661,2.545 l -0.041,0.071 c 0.827,0.005 1.654,-10e-4 2.486,-0.035 10.375,-0.427 17.842,-4.216 25.833,-4.474 13.342,-0.425 23.087,1.195 30.916,9.583 l -2.963,7.666 C 93.269,55.668 72.515,63.547 72.515,63.547 c -4.098,1.255 -7.718,1.951 -10.867,2.285 -0.128,0.247 -0.257,0.494 -0.379,0.744 -0.281,0.565 -0.552,1.138 -0.812,1.715 -0.09,0.201 -0.185,0.4 -0.272,0.603 -1.11,2.56 -2.024,5.229 -2.712,7.992 -0.052,0.21 -0.097,0.424 -0.146,0.635 -0.158,0.672 -0.304,1.348 -0.436,2.029 -0.063,0.335 -0.123,0.672 -0.18,1.009 -0.096,0.565 -0.182,1.133 -0.26,1.704 -0.055,0.399 -0.108,0.798 -0.151,1.2 -0.06,0.524 -0.103,1.054 -0.146,1.584 -0.035,0.429 -0.074,0.855 -0.099,1.286 -0.031,0.592 -0.042,1.191 -0.055,1.79 -0.006,0.333 -0.024,0.663 -0.024,0.998 10e-4,1.312 0.066,2.609 0.165,3.898 z" id="path3165" style="fill:#004e72"/>
     
    <linearGradient gradientTransform="matrix(-5.5324,0.2698,0.2698,5.5324,-698.5328,-2680.9236)" gradientUnits="userSpaceOnUse" id="SVGID_2_" x1="-127.4058" x2="-126.3687" y1="505.45901" y2="505.45901">
      <stop id="stop3168" offset="0" style="stop-color:#ffffff;stop-opacity:1"/>
      <stop id="stop3170" offset="0.4359" style="stop-color:#f3f4f4;stop-opacity:1"/>
      <stop id="stop3172" offset="1" style="stop-color:#dedfe0;stop-opacity:1"/>
    </linearGradient>
    <line id="line3174" style="fill:url(#SVGID_2_)" x1="156.653" x2="156.578" y1="80.43" y2="80.396004"/>
     
    <linearGradient gradientTransform="matrix(1.6466,0.0686,0.0686,-1.6466,319.0037,911.2097)" gradientUnits="userSpaceOnUse" id="SVGID_3_" x1="-120.5518" x2="-119.5518" y1="499.57031" y2="499.57031">
      <stop id="stop3177" offset="0" style="stop-color:#ffffff;stop-opacity:1"/>
      <stop id="stop3179" offset="0.2757" style="stop-color:#f3f4f4;stop-opacity:1"/>
      <stop id="stop3181" offset="0.76630002" style="stop-color:#d5d6d8;stop-opacity:1"/>
      <stop id="stop3183" offset="1" style="stop-color:#c4c6c8;stop-opacity:1"/>
    </linearGradient>
    <line id="line3185" style="fill:url(#SVGID_3_)" x1="156.653" x2="156.578" y1="80.43" y2="80.396004"/>
     
    <linearGradient gradientTransform="matrix(25.7923,12.5126,12.5126,-25.7923,-2955.1985,14688.347)" gradientUnits="userSpaceOnUse" id="SVGID_4_" x1="-125.6113" x2="-124.6113" y1="503.8916" y2="503.8916">
      <stop id="stop3188" offset="0" style="stop-color:#ffffff;stop-opacity:1"/>
      <stop id="stop3190" offset="0.2386" style="stop-color:#fafafa;stop-opacity:1"/>
      <stop id="stop3192" offset="0.53289998" style="stop-color:#ebebec;stop-opacity:1"/>
      <stop id="stop3194" offset="0.85530001" style="stop-color:#d2d3d5;stop-opacity:1"/>
      <stop id="stop3196" offset="1" style="stop-color:#c4c6c8;stop-opacity:1"/>
    </linearGradient>
    <path d="m 133.695,132.001 c 0,0 0.285,-0.191 0.698,-0.47 -0.236,0.155 -0.475,0.309 -0.714,0.459 l 0.016,0.011 z" id="path3198" style="fill:url(#SVGID_4_)"/>
     
    <linearGradient gradientTransform="matrix(-0.117,0,0,0.117,39.9742,-3.6932)" gradientUnits="userSpaceOnUse" id="SVGID_5_" x1="-200.0762" x2="-199.0762" y1="569.52832" y2="569.52832">
      <stop id="stop3201" offset="0" style="stop-color:#ffffff;stop-opacity:1"/>
      <stop id="stop3203" offset="0.2757" style="stop-color:#f3f4f4;stop-opacity:1"/>
      <stop id="stop3205" offset="0.76630002" style="stop-color:#d5d6d8;stop-opacity:1"/>
      <stop id="stop3207" offset="1" style="stop-color:#c4c6c8;stop-opacity:1"/>
    </linearGradient>
    <line id="line3209" style="fill:url(#SVGID_5_)" x1="63.255001" x2="63.249001" y1="62.942001" y2="62.942001"/>
    <path d="m 60.346,149.228 c 2.684,0 3.559,0.189 4.409,0.951 1.144,0.988 1.781,2.813 2.046,5.967 0.16,1.748 0.24,4.409 0.24,6.881 0,4.445 -0.214,6.727 -0.745,8.209 -0.743,2.129 -2.444,3.346 -4.648,3.346 h -6.243 v -25.354 h 4.941 z m 0.343,21.361 c 1.914,0 2.418,-0.873 2.524,-3.534 0.028,-0.494 0.028,-4.295 0.028,-4.295 0,-0.647 0.025,-3.383 -0.028,-4.866 -0.158,-3.725 -0.663,-4.675 -2.417,-4.675 H 59.15 v 17.37 h 1.539 z" id="path3211" style="fill:#004e72"/>
    <path d="m 72.168,166.827 v 1.861 1.179 c 0,1.634 0.318,2.319 1.142,2.319 0.877,0 1.302,-0.913 1.329,-2.889 l 0.026,-0.838 h 3.188 c 0,2.434 -0.24,3.649 -0.931,4.637 -0.771,1.142 -2.046,1.75 -3.613,1.75 -2.151,0 -3.64,-1.141 -4.196,-3.193 -0.16,-0.684 -0.266,-1.597 -0.294,-3.002 -0.026,-0.305 -0.026,-0.723 -0.026,-1.559 -0.026,-0.761 -0.026,-1.18 -0.026,-1.597 0,-3.534 0.187,-5.056 0.743,-6.233 0.718,-1.559 2.127,-2.395 3.959,-2.395 1.754,0 3.162,0.798 3.746,2.166 0.505,1.178 0.665,2.547 0.639,5.967 v 1.826 h -5.686 z m 2.391,-4.373 c 0,-2.279 -0.266,-2.926 -1.223,-2.926 -0.85,0 -1.168,0.799 -1.168,2.926 v 1.635 h 2.391 v -1.635 z" id="path3213" style="fill:#004e72"/>
    <path d="m 84.813,162.265 v -0.797 c -0.026,-1.369 -0.345,-1.977 -1.063,-1.977 -0.636,0 -1.036,0.57 -1.036,1.52 0,0.951 0.4,1.559 1.461,2.318 l 0.718,0.494 c 2.71,1.939 3.48,3.231 3.48,5.702 0,3.269 -1.674,5.321 -4.384,5.321 -1.966,0 -3.135,-0.57 -3.879,-1.939 -0.611,-1.102 -0.797,-2.052 -0.771,-4.066 h 3.321 l 0.026,0.76 c 0,1.673 0.318,2.281 1.116,2.281 0.69,0 1.168,-0.76 1.168,-1.825 0,-0.987 -0.238,-1.558 -0.876,-2.091 -0.187,-0.15 -0.399,-0.341 -0.665,-0.531 -0.373,-0.266 -0.611,-0.456 -0.717,-0.532 l -0.903,-0.646 c -1.78,-1.217 -2.497,-2.509 -2.497,-4.523 0,-3.079 1.699,-4.903 4.569,-4.903 1.647,0 2.79,0.569 3.454,1.673 0.559,0.912 0.744,1.824 0.744,3.762 h -3.266 z" id="path3215" style="fill:#004e72"/>
    <path d="m 93.236,166.827 v 1.861 1.179 c 0,1.634 0.318,2.319 1.141,2.319 0.878,0 1.303,-0.913 1.328,-2.889 l 0.028,-0.838 h 3.188 c 0,2.434 -0.24,3.649 -0.932,4.637 -0.77,1.142 -2.045,1.75 -3.613,1.75 -2.15,0 -3.639,-1.141 -4.196,-3.193 -0.159,-0.684 -0.266,-1.597 -0.292,-3.002 -0.027,-0.305 -0.027,-0.723 -0.027,-1.559 -0.026,-0.761 -0.026,-1.18 -0.026,-1.597 0,-3.534 0.187,-5.056 0.744,-6.233 0.716,-1.559 2.124,-2.395 3.959,-2.395 1.753,0 3.161,0.798 3.746,2.166 0.505,1.178 0.664,2.547 0.638,5.967 v 1.826 h -5.686 z m 2.391,-4.373 c 0,-2.279 -0.266,-2.926 -1.223,-2.926 -0.85,0 -1.168,0.799 -1.168,2.926 v 1.635 h 2.391 v -1.635 z" id="path3217" style="fill:#004e72"/>
    <path d="m 107.13,160.745 -0.851,-0.038 c -1.594,0 -2.15,1.14 -2.15,4.409 v 9.465 h -3.375 v -17.485 h 3.242 v 2.396 c 0.902,-2.206 1.408,-2.661 2.895,-2.661 h 0.239 v 3.914 z" id="path3219" style="fill:#004e72"/>
    <path d="m 112.922,157.096 h 1.754 v 3.116 h -1.754 v 8.4 l 0.027,1.027 c 0,1.558 0.293,2.052 1.143,2.052 l 0.824,-0.114 v 3.004 c -0.824,0.189 -1.197,0.266 -1.729,0.266 -1.301,0 -2.257,-0.38 -2.843,-1.064 -0.425,-0.531 -0.689,-1.33 -0.771,-2.509 0,-0.267 -0.025,-0.532 -0.025,-1.331 0,-0.417 0,-0.873 0,-1.33 v -8.4 h -1.754 v -3.116 h 1.754 v -2.851 l 3.373,-1.9 v 4.75 z" id="path3221" style="fill:#004e72"/>
    <path d="m 125.303,174.581 h -3.613 v -25.354 h 5.686 c 1.912,0 2.364,0.038 2.923,0.305 1.7,0.721 2.524,2.699 2.524,6.043 0,2.091 -0.293,3.688 -0.852,4.676 -0.504,0.95 -1.063,1.367 -2.311,1.711 1.222,0.265 1.78,0.607 2.258,1.367 0.718,1.103 0.904,2.167 0.957,4.904 0.026,0.797 0.053,2.166 0.105,3.839 0.027,1.14 0.08,1.481 0.293,2.509 h -3.906 c -0.105,-1.141 -0.159,-1.787 -0.159,-2.585 v -2.204 c 0,-2.699 -0.106,-4.029 -0.425,-4.865 -0.266,-0.762 -0.611,-0.951 -1.701,-0.951 h -1.779 v 10.605 z m 1.487,-14.369 c 1.647,0 2.259,-0.987 2.259,-3.648 0,-1.141 -0.186,-2.166 -0.505,-2.736 -0.319,-0.646 -0.611,-0.799 -1.647,-0.799 h -1.594 v 7.184 h 1.487 z" id="path3223" style="fill:#004e72"/>
    <path d="m 138.4,166.827 v 1.861 1.179 c 0,1.634 0.318,2.319 1.143,2.319 0.877,0 1.301,-0.913 1.328,-2.889 l 0.027,-0.838 h 3.187 c 0,2.434 -0.237,3.649 -0.93,4.637 -0.771,1.142 -2.044,1.75 -3.612,1.75 -2.152,0 -3.64,-1.141 -4.199,-3.193 -0.159,-0.684 -0.264,-1.597 -0.291,-3.002 -0.025,-0.305 -0.025,-0.723 -0.025,-1.559 -0.029,-0.761 -0.029,-1.18 -0.029,-1.597 0,-3.534 0.187,-5.056 0.746,-6.233 0.717,-1.559 2.125,-2.395 3.959,-2.395 1.754,0 3.16,0.798 3.746,2.166 0.503,1.178 0.664,2.547 0.636,5.967 v 1.826 H 138.4 z m 2.392,-4.373 c 0,-2.279 -0.267,-2.926 -1.224,-2.926 -0.85,0 -1.168,0.799 -1.168,2.926 v 1.635 h 2.392 v -1.635 z" id="path3225" style="fill:#004e72"/>
    <path d="m 151.046,162.265 v -0.797 c -0.026,-1.369 -0.345,-1.977 -1.063,-1.977 -0.638,0 -1.036,0.57 -1.036,1.52 0,0.951 0.398,1.559 1.461,2.318 l 0.718,0.494 c 2.71,1.939 3.48,3.231 3.48,5.702 0,3.269 -1.674,5.321 -4.384,5.321 -1.965,0 -3.135,-0.57 -3.879,-1.939 -0.611,-1.102 -0.797,-2.052 -0.77,-4.066 h 3.32 l 0.025,0.76 c 0,1.673 0.32,2.281 1.117,2.281 0.691,0 1.17,-0.76 1.17,-1.825 0,-0.987 -0.239,-1.558 -0.879,-2.091 -0.186,-0.15 -0.396,-0.341 -0.664,-0.531 -0.371,-0.266 -0.609,-0.456 -0.717,-0.532 l -0.903,-0.646 c -1.778,-1.217 -2.497,-2.509 -2.497,-4.523 0,-3.079 1.701,-4.903 4.57,-4.903 1.646,0 2.789,0.569 3.453,1.673 0.558,0.912 0.744,1.824 0.744,3.762 h -3.266 z" id="path3227" style="fill:#004e72"/>
    <path d="m 159.469,166.827 v 1.861 1.179 c 0,1.634 0.318,2.319 1.143,2.319 0.876,0 1.302,-0.913 1.328,-2.889 l 0.026,-0.838 h 3.188 c 0,2.434 -0.239,3.649 -0.931,4.637 -0.771,1.142 -2.046,1.75 -3.612,1.75 -2.152,0 -3.641,-1.141 -4.198,-3.193 -0.16,-0.684 -0.266,-1.597 -0.292,-3.002 -0.027,-0.305 -0.027,-0.723 -0.027,-1.559 -0.026,-0.761 -0.026,-1.18 -0.026,-1.597 0,-3.534 0.186,-5.056 0.744,-6.233 0.717,-1.559 2.125,-2.395 3.958,-2.395 1.754,0 3.162,0.798 3.746,2.166 0.506,1.178 0.665,2.547 0.639,5.967 v 1.826 h -5.686 z m 2.39,-4.373 c 0,-2.279 -0.266,-2.926 -1.222,-2.926 -0.851,0 -1.169,0.799 -1.169,2.926 v 1.635 h 2.391 v -1.635 z" id="path3229" style="fill:#004e72"/>
    <path d="m 167.066,162.151 c 0.027,-2.281 0.187,-3.004 0.771,-3.801 0.717,-0.951 2.071,-1.482 3.745,-1.482 1.647,0 2.977,0.57 3.561,1.596 0.61,0.989 0.743,2.016 0.743,5.17 v 7.069 1.255 c 0.027,0.76 0.054,1.367 0.16,2.623 h -3.48 l -0.053,-1.939 c -0.931,1.597 -1.727,2.205 -2.949,2.205 -1.887,0 -2.764,-1.635 -2.764,-5.131 0,-4.563 1.196,-6.12 4.623,-6.12 l 1.09,0.038 v -1.482 c 0,-1.102 -0.027,-1.597 -0.133,-1.939 -0.135,-0.418 -0.505,-0.684 -0.931,-0.684 -0.531,0 -0.851,0.305 -0.956,0.951 -0.08,0.418 -0.08,0.607 -0.08,1.672 h -3.347 z m 4.889,4.106 c -1.408,0 -1.754,0.607 -1.754,3.193 0,1.747 0.293,2.432 1.037,2.432 0.479,0 0.93,-0.455 1.115,-1.179 0.16,-0.608 0.16,-0.798 0.16,-2.28 v -2.166 h -0.558 z" id="path3231" style="fill:#004e72"/>
    <path d="m 184.416,160.745 -0.852,-0.038 c -1.594,0 -2.15,1.14 -2.15,4.409 v 9.465 h -3.375 v -17.485 h 3.242 v 2.396 c 0.902,-2.206 1.408,-2.661 2.896,-2.661 h 0.239 v 3.914 z" id="path3233" style="fill:#004e72"/>
    <path d="m 190.606,163.405 -0.026,-1.443 c 0,-1.369 -0.293,-1.939 -0.958,-1.939 -0.663,0 -0.929,0.57 -0.983,2.204 l -0.078,1.787 v 1.406 2.167 l 0.025,1.33 c 0.026,2.205 0.238,2.774 1.036,2.774 0.717,0 0.984,-0.722 0.984,-2.851 v -0.798 h 3.399 c -0.054,2.737 -0.133,3.421 -0.531,4.333 -0.639,1.559 -2.072,2.471 -3.853,2.471 -2.098,0 -3.587,-1.064 -4.118,-2.965 -0.187,-0.646 -0.291,-1.596 -0.318,-3.004 -0.027,-0.266 -0.027,-0.379 -0.027,-1.52 0,-0.798 0,-1.064 0,-1.445 0,-4.066 0.135,-5.473 0.611,-6.688 0.638,-1.559 1.912,-2.356 3.746,-2.356 2.179,0 3.588,0.912 4.172,2.813 0.238,0.76 0.291,1.406 0.318,3.725 h -3.399 z" id="path3235" style="fill:#004e72"/>
    <path d="m 198.92,158.92 c 0.745,-1.444 1.568,-2.09 2.791,-2.09 0.824,0 1.673,0.455 2.178,1.103 0.639,0.873 0.904,2.166 0.904,4.256 v 12.393 h -3.375 v -11.555 c 0,-1.18 -0.026,-1.635 -0.105,-2.053 -0.133,-0.609 -0.531,-0.988 -1.011,-0.988 -0.61,0 -1.089,0.531 -1.248,1.329 -0.134,0.647 -0.134,0.647 -0.134,2.548 v 10.719 h -3.373 v -25.354 h 3.373 v 9.692 z" id="path3237" style="fill:#004e72"/>
    <rect height="25.354" id="rect3239" style="fill:#004e72" width="3.7460001" x="212.44299" y="149.228"/>
    <path d="m 221.689,157.096 v 1.597 c 0.981,-1.407 1.646,-1.862 2.868,-1.862 0.983,0 1.729,0.418 2.259,1.216 0.639,0.951 0.823,1.862 0.823,4.181 v 12.354 h -3.374 v -11.708 c 0,-1.14 -0.025,-1.444 -0.08,-1.786 -0.078,-0.684 -0.477,-1.102 -1.008,-1.102 -0.932,0 -1.355,0.912 -1.355,2.888 v 11.708 h -3.374 v -17.485 h 3.241 z" id="path3241" style="fill:#004e72"/>
    <path d="m 234.787,162.265 v -0.797 c -0.027,-1.369 -0.346,-1.977 -1.063,-1.977 -0.638,0 -1.036,0.57 -1.036,1.52 0,0.951 0.398,1.559 1.461,2.318 l 0.717,0.494 c 2.711,1.939 3.481,3.231 3.481,5.702 0,3.269 -1.673,5.321 -4.384,5.321 -1.966,0 -3.135,-0.57 -3.879,-1.939 -0.611,-1.102 -0.797,-2.052 -0.771,-4.066 h 3.321 l 0.027,0.76 c 0,1.673 0.318,2.281 1.114,2.281 0.691,0 1.169,-0.76 1.169,-1.825 0,-0.987 -0.238,-1.558 -0.876,-2.091 -0.187,-0.15 -0.399,-0.341 -0.664,-0.531 -0.372,-0.266 -0.611,-0.456 -0.718,-0.532 l -0.902,-0.646 c -1.781,-1.217 -2.498,-2.509 -2.498,-4.523 0,-3.079 1.7,-4.903 4.57,-4.903 1.646,0 2.789,0.569 3.453,1.673 0.557,0.912 0.742,1.824 0.742,3.762 h -3.264 z" id="path3243" style="fill:#004e72"/>
    <path d="m 243.793,157.096 h 1.753 v 3.116 h -1.753 v 8.4 l 0.026,1.027 c 0,1.558 0.292,2.052 1.143,2.052 l 0.823,-0.114 v 3.004 c -0.823,0.189 -1.195,0.266 -1.727,0.266 -1.302,0 -2.258,-0.38 -2.844,-1.064 -0.424,-0.531 -0.689,-1.33 -0.77,-2.509 0,-0.267 -0.026,-0.532 -0.026,-1.331 0,-0.417 0,-0.873 0,-1.33 v -8.4 h -1.754 v -3.116 h 1.754 v -2.851 l 3.374,-1.9 v 4.75 z" id="path3245" style="fill:#004e72"/>
    <path d="m 250.249,153.219 h -3.375 v -3.991 h 3.375 v 3.991 z m 0,21.362 h -3.375 v -17.485 h 3.375 v 17.485 z" id="path3247" style="fill:#004e72"/>
    <path d="m 256.599,157.096 h 1.754 v 3.116 h -1.754 v 8.4 l 0.026,1.027 c 0,1.558 0.292,2.052 1.142,2.052 l 0.824,-0.114 v 3.004 c -0.824,0.189 -1.195,0.266 -1.727,0.266 -1.303,0 -2.259,-0.38 -2.844,-1.064 -0.425,-0.531 -0.69,-1.33 -0.771,-2.509 0,-0.267 -0.025,-0.532 -0.025,-1.331 0,-0.417 0,-0.873 0,-1.33 v -8.4 h -1.754 v -3.116 h 1.754 v -2.851 l 3.375,-1.9 v 4.75 z" id="path3249" style="fill:#004e72"/>
    <path d="m 268.951,174.581 h -3.241 v -1.674 c -0.824,1.369 -1.674,1.939 -2.922,1.939 -1.063,0 -1.887,-0.457 -2.364,-1.293 -0.558,-0.949 -0.72,-1.977 -0.72,-4.256 v -12.202 h 3.377 v 11.062 1.368 c -0.026,1.521 0.318,2.166 1.114,2.166 0.585,0 1.091,-0.494 1.25,-1.255 0.104,-0.455 0.134,-1.139 0.134,-2.279 v -11.062 h 3.372 v 17.486 z" id="path3251" style="fill:#004e72"/>
    <path d="m 275.302,157.096 h 1.753 v 3.116 h -1.753 v 8.4 l 0.027,1.027 c 0,1.558 0.291,2.052 1.141,2.052 l 0.823,-0.114 v 3.004 c -0.823,0.189 -1.194,0.266 -1.727,0.266 -1.302,0 -2.258,-0.38 -2.843,-1.064 -0.425,-0.531 -0.69,-1.33 -0.771,-2.509 0,-0.267 -0.026,-0.532 -0.026,-1.331 0,-0.417 0,-0.873 0,-1.33 v -8.4 h -1.752 v -3.116 h 1.752 v -2.851 l 3.375,-1.9 v 4.75 z" id="path3253" style="fill:#004e72"/>
    <path d="m 281.624,166.827 v 1.861 1.179 c 0,1.634 0.318,2.319 1.141,2.319 0.877,0 1.305,-0.913 1.33,-2.889 l 0.026,-0.838 h 3.188 c 0,2.434 -0.238,3.649 -0.93,4.637 -0.771,1.142 -2.047,1.75 -3.615,1.75 -2.148,0 -3.639,-1.141 -4.196,-3.193 -0.159,-0.684 -0.266,-1.597 -0.292,-3.002 -0.027,-0.305 -0.027,-0.723 -0.027,-1.559 -0.025,-0.761 -0.025,-1.18 -0.025,-1.597 0,-3.534 0.186,-5.056 0.744,-6.233 0.717,-1.559 2.125,-2.395 3.959,-2.395 1.752,0 3.16,0.798 3.746,2.166 0.502,1.178 0.663,2.547 0.637,5.967 v 1.826 h -5.686 z m 2.393,-4.373 c 0,-2.279 -0.267,-2.926 -1.223,-2.926 -0.852,0 -1.17,0.799 -1.17,2.926 v 1.635 h 2.393 v -1.635 z" id="path3255" style="fill:#004e72"/>
    <path d="m 213.564,88.226 c 0,19.556 -1.811,33.031 -5.426,40.428 -3.614,7.397 -9.979,11.667 -19.097,11.667 H 171.644 V 37.668 h 14.832 c 10.823,0 18.048,3.627 21.662,10.885 3.616,7.258 5.426,20.48 5.426,39.673 z m -15.405,0.994 c 0,-15.394 -0.645,-25.973 -1.927,-31.735 -1.281,-5.764 -3.615,-8.646 -6.993,-8.646 h -2.636 v 79.737 h 2.636 c 3.337,0 5.655,-1.701 6.964,-5.107 1.303,-3.404 1.956,-14.821 1.956,-34.249 z" id="path3257" style="fill:#004e72"/>
    <path d="m 268.787,140.34 h -4.483 c -5.691,0 -9.787,-2.286 -12.229,-5.673 -2.439,-3.393 -3.656,-8.877 -3.656,-16.463 v -17.792 c 0,-2.621 -0.506,-4.586 -1.512,-5.896 -1.004,-1.311 -2.426,-1.971 -4.266,-1.971 h -6.222 v 47.788 H 221.455 V 37.666 H 244.2 c 6.257,0 10.815,1.967 13.687,5.895 2.872,3.928 4.303,9.941 4.303,18.039 0,6.128 -0.88,11.074 -2.641,14.84 -1.761,3.77 -4.405,6.379 -7.927,7.828 3.551,0.566 6.296,2.374 8.243,5.423 1.944,3.052 2.92,6.836 2.92,11.36 v 21.142 c 0,2.387 0.363,4.502 1.027,5.389 0.664,0.892 3.045,1.333 4.974,1.333 V 140.34 z M 247.229,65.051 c 0,-6.285 -0.496,-10.533 -1.488,-12.75 -0.993,-2.215 -2.782,-3.324 -5.373,-3.324 h -3.948 v 31.42 h 4.335 c 2.287,0 3.941,-1.125 4.955,-3.383 1.015,-2.257 1.519,-6.243 1.519,-11.963 z" id="path3259" style="fill:#004e72"/>
    <polygon id="polygon3261" points="287.578,37.668 287.578,140.351 272.619,140.327 272.619,37.668" style="fill:#004e72"/>
  </g>
</svg>