<?xml version="1.0" encoding="utf-8"?>
<svg xmlns="http://www.w3.org/2000/svg" version="1.2" baseProfile="tiny"
	  xmlns:xlink="http://www.w3.org/1999/xlink"
	 x="0px" y="0px" width="215px" height="215px" viewBox="0 0 215 215" xml:space="preserve">
<title>Truckee Meadows Community College</title>
<rect fill="#B0BC22" width="214.24" height="214.241"/>
<path fill="#FFFFFF" d="M92.07,90.498c-9.051-6.098,37.074-7.695,23.33-11.84c-8.042-2.43-18.326-2.607-18.326-2.607
	s21.148-0.342,28.058,2.865c10.02,4.662-23.585,7.383-17.941,10.508c5.982,3.314,20.968,4.957,26.226,5.447
	c7.965,0.586,15.449,1.453,22.25,2.561l-40.756-48.6l-2.701,2.877l-4.109-4.586l-9.072,10.611l-3.287-3.283L63.098,97.496
	c12.02-1.984,26.186-3.213,41.438-3.439C99.258,93.35,94.648,92.236,92.07,90.498z"/>
<path fill="#FFFFFF" d="M34.655,124.805h-12.37v-6.35h33.798v6.35H43.712v26.982h-9.057V124.805z"/>
<path fill="#FFFFFF" d="M92.774,118.456h13.305v33.332h-8.776v-26.703h-0.094l-10.55,26.703h-7.563l-10.551-26.703h-0.093v26.703
	h-8.776v-33.332H72.98l9.897,23.996L92.774,118.456z"/>
<path fill="#FFFFFF" d="M139.875,131.061c-0.84-4.809-4.807-7.189-9.521-7.189c-8.59,0-10.41,6.723-10.41,11.25
	c0,4.529,1.82,11.25,10.41,11.25c4.387,0,8.635-2.1,9.521-7.375h9.852c-1.121,9.709-9.104,13.725-19.701,13.725
	c-12.137,0-19.699-5.229-19.699-17.6s7.563-17.6,19.699-17.6c8.029,0,18.254,2.055,19.607,13.539H139.875z"/>
<path fill="#FFFFFF" d="M182.683,131.061c-0.84-4.809-4.809-7.189-9.523-7.189c-8.59,0-10.41,6.723-10.41,11.25
	c0,4.529,1.82,11.25,10.41,11.25c4.389,0,8.637-2.1,9.523-7.375h9.85c-1.121,9.709-9.104,13.725-19.699,13.725
	c-12.139,0-19.701-5.229-19.701-17.6s7.563-17.6,19.701-17.6c8.029,0,18.252,2.055,19.605,13.539H182.683z"/>
</svg>
