<?xml version="1.0" encoding="UTF-8"?>
<svg xmlns="http://www.w3.org/2000/svg" version="1.2" baseProfile="tiny" width="112" height="75" viewBox="0 0 112 75" xml:space="preserve" id="GBCLogo">
	<title>Great Basin College</title>
	<g id="Letters">
		<path id="G" fill-rule="evenodd" d="M25.234375,22.5361328c1.5117188,0,2.9516602,0.0722656,4.3198242,0.2880859l0,0v-3.671875l0,0    c-1.3681641-0.144043-2.8081055-0.2163086-4.3198242-0.2163086c-12.6723633,0-22.6801758,6.0483398-22.6801758,13.7519531    c0,7.7763672,10.0078125,13.7524414,22.6801758,13.7524414c0.0717773,0,0.144043-0.0722656,0.2158203-0.0722656l0,0v18.9360352l0,0    c0,3.0961914-2.0161133,4.5361328-3.7441406,5.184082l0,0v4.2480469l0,0    c3.4560547-0.8642578,7.8481445-3.6000977,7.8481445-9.4321289l0,0V42.5522461l0,0    c-1.3681641,0.144043-2.8081055,0.2880859-4.3198242,0.2880859c-10.2963867,0-18.9360352-4.6079102-18.9360352-10.1523438    C6.2983398,27.2163086,14.9379883,22.5361328,25.234375,22.5361328L25.234375,22.5361328L25.234375,22.5361328z"/>
		<path id="C" fill-rule="evenodd" d="M90.5380859,42.5522461c-1.3676758,0.144043-2.8081055,0.2880859-4.2480469,0.2880859    c-10.2958984,0-19.0078125-4.6079102-19.0078125-10.1523438c0-5.4716797,8.7119141-10.1518555,19.0078125-10.1518555    c1.4399414,0,2.8803711,0.0722656,4.2480469,0.2880859l0,0v-3.671875l0,0    c-1.3676758-0.144043-2.8081055-0.2163086-4.2480469-0.2163086c-12.7436523,0-22.7519531,6.0483398-22.7519531,13.7519531    c0,7.7763672,10.0083008,13.7524414,22.7519531,13.7524414c1.4399414,0,2.8803711-0.144043,4.2480469-0.2880859l0,0V42.5522461    L90.5380859,42.5522461z"/>
		<path id="B" fill-rule="evenodd" d="M38.2661133,18.9360352c-0.0717773,0-0.144043,0-0.2880859,0l0,0V0h-4.0317383v22.8242188l0,0    c1.3676758-0.2158203,2.8081055-0.2880859,4.3198242-0.2880859c10.2958984,0,18.9360352,4.6801758,18.9360352,10.1518555    c0,5.5444336-8.6401367,10.1523438-18.9360352,10.1523438c-1.5117188,0-2.9521484-0.144043-4.3198242-0.2880859l0,0v3.6000977l0,0    c1.3676758,0.144043,2.8081055,0.2880859,4.3198242,0.2880859c12.671875,0,22.6079102-5.9760742,22.6079102-13.7524414    C60.8740234,24.984375,50.9379883,18.9360352,38.2661133,18.9360352L38.2661133,18.9360352L38.2661133,18.9360352z"/>
	</g>
	<g id="Box">
		<polygon fill-rule="evenodd" fill="#FFFFFF" stroke="#000000" stroke-width="0.4997" stroke-miterlimit="10" points="    112.1381836,62.7841797 0.25,62.7841797 0.25,51.5522461 112.1381836,51.5522461 112.1381836,62.7841797 "/>
		<polygon fill-rule="evenodd" points="110.6259766,61.3442383 1.6899414,61.3442383 1.6899414,52.9921875 110.6259766,52.9921875     110.6259766,61.3442383 "/>
	</g>
	<g id="GreatBasinCollegeText">
		<path fill-rule="evenodd" fill="#FFFFFF" d="M7.3061523,57.3842773c0-0.0722656,0.0722656-0.144043,0.0722656-0.144043l0,0    h1.4399414l0,0c0.144043,0,0.144043,0.0717773,0.144043,0.2158203l0,0v1.4399414l0,0c0,0.2163086,0,0.3603516-0.144043,0.3603516    l0,0H7.9541016l0,0c-0.144043,0-0.0717773-0.0722656-0.0717773-0.144043l0,0v-0.0722656l0,0    c-0.2163086,0.2163086-0.5761719,0.2880859-0.9360352,0.2880859c-1.3681641,0-2.3759766-0.9360352-2.3759766-2.3037109    c0-1.2963867,1.0800781-2.3041992,2.5200195-2.3041992c0.7197266,0,1.2958984,0.2158203,1.5117188,0.3598633    c0.0722656,0.0722656,0.0722656,0.0722656,0.0722656,0.144043l0,0V55.65625l0,0    c0,0.0717773-0.0722656,0.0717773-0.0722656,0.0717773l0,0l-0.2880859,0.2163086l0,0    c-0.0717773,0-0.4316406-0.7202148-1.2236328-0.7202148c-0.5761719,0-1.0800781,0.3598633-1.0800781,1.800293    c0,1.0795898,0.5039063,1.871582,1.1518555,1.871582c0.3598633,0,0.7202148-0.3598633,0.7202148-0.7197266    s-0.2880859-0.5039063-0.5761719-0.5761719c-0.0717773,0-0.0717773,0-0.0717773-0.0717773l0,0L7.3061523,57.3842773    L7.3061523,57.3842773z"/>
		<path fill-rule="evenodd" fill="#FFFFFF" d="M13.2099609,55.2241211c0.2880859,0.0722656,0.5043945,0.2163086,0.5043945,0.7919922    c0,0.5761719-0.2163086,0.8642578-0.5043945,0.9360352v0.9360352l0.7919922,1.2241211l0,0    c0,0.0717773,0.0722656,0.144043,0.144043,0.144043l0,0h1.3681641v-0.2163086l0,0    c-0.2880859-0.144043-0.7919922-0.8637695-1.3681641-1.7998047c0.7202148-0.2880859,1.0083008-0.7919922,1.0083008-1.3681641    c-0.0722656-0.7197266-0.7919922-1.0800781-1.2958984-1.0800781l0,0h-0.6484375V55.2241211z M12.7060547,55.2241211h0.4321289l0,0    h0.0717773v-0.4321289h-2.2319336l0,0c0,0-0.0717773,0.0722656-0.0717773,0.144043l0,0l-0.0722656,0.0722656l0,0    c0,0.144043,0.0722656,0.144043,0.144043,0.144043c0.2880859,0.0717773,0.3603516,0.2158203,0.3603516,0.5039063l0,0v2.8798828l0,0    c0,0.2880859-0.144043,0.3598633-0.2880859,0.4321289c-0.0722656,0-0.0722656,0-0.144043,0.0717773l0,0v0.144043l0,0    c-0.0722656,0.0722656,0,0.0722656,0.0717773,0.0722656l0,0h2.0883789l0,0h0.0717773l0,0l0.0717773-0.144043l0,0    c0-0.0722656,0-0.144043-0.0717773-0.144043c-0.3598633-0.0722656-0.4321289-0.144043-0.4321289-0.4321289l0,0v-1.0800781h0.2163086    l0.2875977,0.4321289v-0.9360352c-0.0717773,0.0722656-0.0717773,0.0722656-0.1435547,0.0722656l0,0h-0.3603516V55.2241211    L12.7060547,55.2241211z"/>
		<path fill-rule="evenodd" fill="#FFFFFF" d="M19.0419922,56.5922852h1.4399414l0,0    c0.0722656,0,0.144043,0.0717773,0.0722656,0.144043l0,0l-0.144043,0.2158203l0,0    c-0.0717773,0.0722656-0.144043,0.144043-0.2158203,0.144043l0,0h-1.1523438v1.0800781l0,0    c0,0.5039063,0.0722656,0.6479492,0.4321289,0.6479492l0,0h0.5039063l0,0c0.6479492,0,0.7202148-0.5039063,0.7919922-0.5039063l0,0    l0.2163086,0.0717773l0,0c0,0,0,0,0,0.0722656l0,0v0.6479492l0,0c0,0.144043-0.144043,0.144043-0.2880859,0.144043l0,0h-1.9438477    l0,0c-0.9360352,0-1.0800781,0-1.0800781-0.4321289l0,0V55.65625l0,0c0-0.2880859-0.144043-0.4321289-0.4321289-0.5039063    c-0.0717773,0-0.144043,0-0.0717773-0.144043l0,0v-0.0722656l0,0c0.0717773-0.0717773,0.0717773-0.144043,0.1435547-0.144043l0,0    h3.1679688l0,0c0.144043,0,0.2163086,0.0722656,0.2163086,0.2163086l0,0v0.5756836l0,0l0,0l0,0l-0.144043,0.144043l0,0    c-0.0722656,0.0722656-0.2158203-0.4316406-0.6479492-0.4316406l0,0h-0.8642578V56.5922852L19.0419922,56.5922852z"/>
		<path fill-rule="evenodd" fill="#FFFFFF" d="M24.5141602,56.1601563L24.5141602,56.1601563l0.5761719,1.3681641h-0.5761719    v0.4321289h0.7202148l0.2158203,0.5039063l0,0c0.0717773,0.4316406-0.2158203,0.3598633-0.2880859,0.5756836l0,0    l-0.0717773,0.144043l0,0c0,0.0722656,0,0.0722656,0.0717773,0.0722656l0,0h1.8720703l0,0    c0.144043,0,0.144043,0,0.2158203-0.0722656l0,0l0.0722656-0.144043l0,0c0-0.0717773-0.0722656-0.0717773-0.144043-0.144043    c-0.2158203,0-0.2880859-0.1435547-0.4321289-0.4316406c-0.3598633-0.8642578-0.9360352-2.1601563-1.3676758-3.4560547    c0-0.0722656-0.0722656-0.2163086-0.144043-0.2163086l0,0h-0.7202148V56.1601563z M24.0102539,57.5283203l0.5039063-1.3681641    v-1.3681641h-0.6479492l0,0c-0.0722656,0-0.144043,0-0.144043,0.144043l0,0l-0.0717773,0.0722656l0,0    c-0.0722656,0.2158203,0.2158203,0.144043,0.3598633,0.2880859c0.0717773,0.0717773,0.2158203,0.2158203,0.144043,0.5756836l0,0    l-1.0083008,2.5922852l0,0c-0.144043,0.3598633-0.144043,0.4316406-0.4316406,0.5039063c-0.0722656,0-0.144043,0-0.144043,0.0717773    l0,0l-0.0722656,0.0722656l0,0c-0.0717773,0.2158203,0.0722656,0.144043,0.2163086,0.144043l0,0h1.0078125l0,0    c0.144043,0,0.144043-0.0722656,0.144043-0.0722656l0,0l0.0717773-0.144043l0,0    c0.0722656-0.144043-0.4316406-0.0717773-0.2875977-0.4316406l0,0l0.2158203-0.6479492h0.6479492v-0.4321289H24.0102539    L24.0102539,57.5283203z"/>
		<path fill-rule="evenodd" fill="#FFFFFF" d="M31.1381836,58.5361328c0,0.2880859,0.0717773,0.3598633,0.3598633,0.4321289    c0.144043,0,0.144043,0.0717773,0.0722656,0.144043l0,0v0.144043l0,0c-0.0722656,0-0.0722656,0-0.144043,0l0,0h-2.0878906l0,0    c0,0-0.0722656,0-0.0722656-0.0722656l0,0l0.0722656-0.144043l0,0c0-0.0717773,0.0717773-0.0717773,0.1435547-0.0717773    c0.144043-0.0722656,0.2880859-0.144043,0.2880859-0.4321289l0,0v-3.2397461h-1.5117188l0,0    c-0.0722656,0-0.144043,0-0.0722656-0.0722656l0,0l0.144043-0.3598633l0,0c0.0722656,0,0.144043-0.0722656,0.2163086-0.0722656l0,0    h4.0317383l0,0c0.144043,0,0.2158203,0.0722656,0.144043,0.144043l0,0l-0.2158203,0.2880859l0,0    c0,0.0722656-0.0722656,0.0722656-0.144043,0.0722656l0,0h-1.2241211V58.5361328L31.1381836,58.5361328z"/>
		<path fill-rule="evenodd" fill="#FFFFFF" d="M39.9223633,55.2241211c0.2875977,0.0722656,0.4316406,0.2880859,0.4316406,0.7202148    c0,0.2880859-0.144043,0.5756836-0.4316406,0.7197266v0.5043945c0.3598633,0.0717773,0.5756836,0.4316406,0.5756836,0.8637695    c0,0.5761719-0.2158203,0.8637695-0.5756836,0.9360352v0.3598633l0,0c1.1518555,0,2.015625-0.3598633,2.015625-1.2958984    c0-0.4321289-0.2875977-1.0800781-1.2236328-1.1518555l0,0v-0.0722656l0,0    c0.5756836-0.2158203,0.9360352-0.5756836,0.9360352-1.0800781c-0.0722656-0.6479492-0.6484375-0.9360352-1.2963867-0.9360352l0,0    h-0.4316406V55.2241211z M39.4179688,55.2241211h0.2163086l0,0c0.0717773,0,0.2158203,0,0.2880859,0v-0.4321289H37.762207l0,0    c-0.0722656,0-0.0722656,0.0722656-0.144043,0.144043l0,0v0.0722656l0,0c-0.0717773,0.144043,0,0.144043,0.0717773,0.144043    c0.2880859,0.0717773,0.4321289,0.2158203,0.4321289,0.5039063l0,0v3.2397461l0,0    c0,0.144043,0.0722656,0.2880859,0.144043,0.2880859c0.3598633,0.144043,0.7919922,0.144043,1.65625,0.144043v-0.3598633h-0.0722656    c-0.2158203,0-0.4321289-0.2158203-0.4321289-0.5761719l0,0v-1.2958984l0,0h0.2163086l0,0    c0.144043,0,0.2158203,0,0.2880859,0.0722656v-0.5043945c-0.0722656,0-0.144043,0-0.2880859,0l0,0h-0.2163086V55.2241211    L39.4179688,55.2241211z"/>
		<path fill-rule="evenodd" fill="#FFFFFF" d="M46.1142578,57.5283203l-0.5039063-1.3681641l0,0v-1.3681641h0.6479492l0,0    c0.144043,0,0.144043,0.144043,0.2158203,0.2163086c0.4321289,1.2958984,0.9360352,2.5917969,1.3681641,3.4560547    c0.0717773,0.2880859,0.144043,0.4316406,0.4321289,0.4316406c0.0717773,0.0722656,0.0717773,0.0722656,0.0717773,0.144043l0,0    l-0.0717773,0.144043l0,0c0,0.0722656-0.0722656,0.0722656-0.144043,0.0722656l0,0h-1.8720703l0,0    c-0.0722656,0-0.144043,0-0.0722656-0.0722656l0,0v-0.144043l0,0c0.0722656-0.2158203,0.4321289-0.144043,0.2880859-0.5756836l0,0    l-0.2158203-0.5039063h-0.6479492v-0.4321289H46.1142578L46.1142578,57.5283203z M45.6103516,56.1601563l-0.5043945,1.3681641    h0.5043945v0.4321289h-0.6479492l-0.2880859,0.6479492l0,0c-0.0722656,0.3598633,0.3598633,0.2875977,0.2880859,0.4316406l0,0    v0.144043l0,0c-0.0722656,0-0.0722656,0.0722656-0.144043,0.0722656l0,0h-1.0800781l0,0    c-0.0722656,0-0.2163086,0.0717773-0.144043-0.144043l0,0v-0.0722656l0,0c0-0.0717773,0.0717773-0.0717773,0.144043-0.0717773    c0.2880859-0.0722656,0.3598633-0.144043,0.5039063-0.5039063l0,0l0.9360352-2.5922852l0,0    c0.144043-0.3598633,0-0.5039063-0.0722656-0.5756836c-0.1435547-0.144043-0.5039063-0.0722656-0.3598633-0.2880859l0,0v-0.0722656    l0,0c0-0.144043,0.0722656-0.144043,0.144043-0.144043l0,0h0.7202148V56.1601563z"/>
		<path fill-rule="evenodd" fill="#FFFFFF" d="M52.6660156,55.800293c-0.0717773,0.0717773-0.2158203-0.2163086-0.2875977-0.3598633    c-0.144043-0.2163086-0.2880859-0.3603516-0.5043945-0.3603516c-0.2158203,0-0.5039063,0.144043-0.5039063,0.4321289    c-0.0717773,0.5039063,0.2163086,0.7202148,0.7919922,1.0800781c0.6479492,0.4321289,1.0800781,0.7919922,1.0800781,1.4399414    c0.0717773,0.9360352-0.7919922,1.2958984-1.8720703,1.2958984c-0.4321289,0-0.7919922,0-1.0800781-0.0717773    c-0.2880859-0.144043-0.2880859-0.144043-0.2880859-0.2880859l0,0v-0.6479492l0,0c0-0.0722656-0.0717773-0.144043,0-0.144043l0,0    l0.2880859-0.144043l0,0c0,0,0.0722656,0.2880859,0.2163086,0.5039063c0.144043,0.2163086,0.3598633,0.3598633,0.5756836,0.3598633    c0.4321289,0,0.7919922-0.2158203,0.7919922-0.6479492c0.0722656-0.5756836-0.4316406-0.7197266-1.0800781-1.2236328    c-0.3598633-0.2163086-0.8637695-0.5043945-0.8637695-1.1523438c0-0.5756836,0.5761719-1.1518555,1.8720703-1.1518555    c0.4321289,0,0.6479492,0.0717773,0.8637695,0.144043c0.144043,0.0717773,0.2880859,0.144043,0.2880859,0.2158203l0,0v0.5039063l0,0    L52.8823242,55.65625l0,0L52.6660156,55.800293L52.6660156,55.800293z"/>
		<path fill-rule="evenodd" fill="#FFFFFF" d="M55.5463867,55.5839844c0-0.2875977-0.144043-0.3598633-0.4321289-0.4316406    c-0.0722656,0-0.0722656-0.0722656-0.0722656-0.144043l0,0l0.0722656-0.144043l0,0c0,0,0-0.0722656,0.0717773-0.0722656l0,0    h2.0883789l0,0c0.0717773,0,0.0717773,0.0722656,0.0717773,0.144043l0,0l-0.0717773,0.144043l0,0    c0,0.0722656-0.0722656,0.0722656-0.0722656,0.0722656c-0.144043,0.0717773-0.3598633,0.144043-0.3598633,0.4316406l0,0v2.9521484    l0,0c0,0.2880859,0.144043,0.3598633,0.4321289,0.4321289c0.0717773,0,0.0717773,0.0717773,0.0717773,0.144043l0,0    l-0.0717773,0.144043l0,0h-0.0722656l0,0h-2.0878906l0,0c-0.0722656,0-0.144043,0-0.0722656-0.0722656l0,0v-0.144043l0,0    c0.0722656-0.0717773,0.0722656-0.0717773,0.144043-0.0717773c0.144043-0.0722656,0.3603516-0.144043,0.3603516-0.4321289l0,0    V55.5839844L55.5463867,55.5839844z"/>
		<path fill-rule="evenodd" fill="#FFFFFF" d="M60.5864258,59.2563477c-0.0722656,0-0.0722656,0-0.144043,0l0,0h-1.2241211l0,0    c-0.0722656,0-0.144043,0-0.144043-0.0722656l0,0l0.0717773-0.144043l0,0c0-0.0717773,0.0722656-0.0717773,0.144043-0.0717773    c0.144043-0.0722656,0.2880859-0.144043,0.2880859-0.4321289l0,0v-2.9521484l0,0    c-0.0717773-0.1435547-0.3598633-0.2875977-0.5761719-0.4316406c-0.1435547,0-0.1435547-0.0722656-0.0717773-0.144043l0,0v-0.144043    l0,0c0.0717773,0,0.0717773-0.0722656,0.144043-0.0722656l0,0h1.5839844l0,0    c0.144043,0.0722656,0.2158203,0.144043,0.3598633,0.2880859l0,0l1.9443359,2.5922852l0,0v-2.0883789l0,0    c0-0.2875977-0.0722656-0.3598633-0.4321289-0.4316406c-0.0722656,0-0.0722656-0.0722656-0.0722656-0.144043l0,0l0.0722656-0.144043    l0,0c0,0,0.0717773-0.0722656,0.144043-0.0722656l0,0h1.2236328l0,0c0.0722656,0,0.144043,0.0722656,0.0722656,0.144043l0,0    v0.144043l0,0c-0.0722656,0.0722656-0.0722656,0.0722656-0.144043,0.0722656    c-0.144043,0.0717773-0.2880859,0.144043-0.2880859,0.4316406l0,0v3.4560547l0,0    c0,0.144043-0.0717773,0.2163086-0.2158203,0.2163086l0,0h-0.7202148l0,0c-0.0717773,0-0.0717773,0-0.2880859-0.2880859l0,0    l-2.159668-2.9521484l0,0v2.5200195l0,0c0,0.2880859,0.0717773,0.3598633,0.3598633,0.4321289    c0.0722656,0,0.144043,0.0717773,0.0722656,0.144043l0,0V59.2563477L60.5864258,59.2563477z"/>
		<path fill-rule="evenodd" fill="#FFFFFF" d="M72.6821289,58.9682617c0,0.0717773,0,0.144043-0.0717773,0.144043    c-0.2163086,0.144043-0.5761719,0.2158203-1.1523438,0.2158203c-1.5839844,0-2.5917969-0.9360352-2.5917969-2.3037109    c0-1.2963867,1.0800781-2.3041992,2.5200195-2.3041992c0.7197266,0,1.2958984,0.2158203,1.5117188,0.3598633    c0.0722656,0.0722656,0.0722656,0.0722656,0.0722656,0.144043l0,0V55.65625l0,0    c0,0.0717773-0.0722656,0.0717773-0.0722656,0.0717773l0,0l-0.2158203,0.2163086l0,0    c-0.144043,0-0.5039063-0.7202148-1.2958984-0.7202148s-1.0800781,0.7202148-1.0800781,1.7280273    c0,1.2958984,0.5039063,1.800293,1.3681641,1.800293c0.2880859,0,0.7919922-0.0722656,1.0078125-0.5043945    c0.0722656-0.0717773,0.2880859,0.0722656,0.2880859,0.0722656l0,0L72.6821289,58.9682617L72.6821289,58.9682617z"/>
		<path fill-rule="evenodd" fill="#FFFFFF" d="M77.1459961,58.8959961h-0.0717773v0.4321289    c1.4399414,0,2.3041992-1.0800781,2.3041992-2.3759766c0-1.2241211-0.9360352-2.2319336-2.2324219-2.2319336h-0.0717773v0.5039063    c0.5761719,0,0.9360352,0.6479492,0.9360352,1.800293C78.0102539,57.8881836,77.722168,58.8242188,77.1459961,58.8959961    L77.1459961,58.8959961L77.1459961,58.8959961z M77.0742188,58.8959961c-0.6479492,0-1.0078125-0.6479492-1.0078125-1.9438477    c0-0.8637695,0.3598633-1.7280273,0.9355469-1.7280273h0.0722656v-0.5039063    c-1.2958984,0.0717773-2.3759766,1.0078125-2.3759766,2.3759766c0,1.4399414,1.2241211,2.2319336,2.2319336,2.2319336l0,0l0,0    c0.0717773,0,0.0717773,0,0.144043,0V58.8959961z"/>
		<path fill-rule="evenodd" fill="#FFFFFF" d="M81.25,59.0400391c0-0.0717773,0.0722656-0.0717773,0.0722656-0.0717773    c0.2158203-0.0722656,0.3598633-0.144043,0.3598633-0.4321289l0,0v-2.9521484l0,0    c0-0.2875977-0.0717773-0.3598633-0.4321289-0.4316406c-0.0717773,0-0.0717773-0.0722656-0.0717773-0.144043l0,0L81.25,54.8642578    l0,0c0,0,0.0722656-0.0722656,0.144043-0.0722656l0,0h2.0161133l0,0c0.0717773,0,0.144043,0.0722656,0.0717773,0.144043l0,0    v0.144043l0,0c-0.0717773,0.0722656-0.0717773,0.0722656-0.1435547,0.0722656    c-0.144043,0.0717773-0.2880859,0.144043-0.2880859,0.4316406l0,0v2.5922852l0,0    c0,0.5039063,0.0717773,0.6479492,0.4316406,0.6479492l0,0h0.5043945l0,0c0.6479492,0,0.7197266-0.5039063,0.7919922-0.5039063l0,0    l0.2158203,0.0717773l0,0c0,0,0,0,0,0.0722656l0,0v0.6479492l0,0c0,0.144043-0.144043,0.144043-0.2880859,0.144043l0,0H81.25l0,0    c0,0-0.0717773,0-0.0717773-0.0722656l0,0L81.25,59.0400391L81.25,59.0400391z"/>
		<path fill-rule="evenodd" fill="#FFFFFF" d="M86.722168,59.0400391c0.0717773-0.0717773,0.0717773-0.0717773,0.144043-0.0717773    c0.144043-0.0722656,0.3598633-0.144043,0.3598633-0.4321289l0,0v-2.9521484l0,0    c0-0.2875977-0.144043-0.3598633-0.4321289-0.4316406c-0.0717773,0-0.0717773-0.0722656-0.0717773-0.144043l0,0l0.0717773-0.144043    l0,0c0,0,0-0.0722656,0.0722656-0.0722656l0,0h2.0878906l0,0c0.0722656,0,0.0722656,0.0722656,0.0722656,0.144043l0,0    l-0.0722656,0.144043l0,0c0,0.0722656-0.0717773,0.0722656-0.0717773,0.0722656    c-0.144043,0.0717773-0.3603516,0.144043-0.3603516,0.4316406l0,0v2.5922852l0,0    c0,0.5039063,0.144043,0.6479492,0.5043945,0.6479492l0,0h0.5039063l0,0c0.6479492,0,0.7197266-0.5039063,0.7919922-0.5039063l0,0    l0.144043,0.0717773l0,0c0.0717773,0,0.0717773,0,0.0717773,0.0722656l0,0v0.6479492l0,0    c0,0.144043-0.144043,0.144043-0.2880859,0.144043l0,0h-3.4560547l0,0c-0.0717773,0-0.1435547,0-0.0717773-0.0722656l0,0V59.0400391    L86.722168,59.0400391z"/>
		<path fill-rule="evenodd" fill="#FFFFFF" d="M94.0664063,56.5922852h1.4399414l0,0    c0.0717773,0,0.144043,0.0717773,0.0717773,0.144043l0,0l-0.144043,0.2158203l0,0    c-0.0717773,0.0722656-0.0717773,0.144043-0.2158203,0.144043l0,0h-1.1518555v1.0800781l0,0    c0,0.5039063,0.0717773,0.6479492,0.4316406,0.6479492l0,0h0.5039063l0,0c0.6484375,0,0.7202148-0.5039063,0.8642578-0.5039063l0,0    l0.144043,0.0717773l0,0c0,0,0,0,0,0.0722656l0,0v0.6479492l0,0c0,0.144043-0.0722656,0.144043-0.2880859,0.144043l0,0h-1.9438477    l0,0c-0.9360352,0-1.0800781,0-1.0800781-0.4321289l0,0V55.65625l0,0c0-0.2880859-0.144043-0.4321289-0.3598633-0.5039063    c-0.144043,0-0.2163086,0-0.144043-0.144043l0,0l0.0717773-0.0722656l0,0c0-0.0717773,0.0722656-0.144043,0.0722656-0.144043l0,0    h3.2397461l0,0c0.0722656,0,0.2158203,0.0722656,0.144043,0.2163086l0,0v0.5756836l0,0l0,0l0,0l-0.144043,0.144043l0,0    c-0.0717773,0.0722656-0.144043-0.4316406-0.5761719-0.4316406l0,0h-0.9355469V56.5922852L94.0664063,56.5922852z"/>
		<path fill-rule="evenodd" fill="#FFFFFF" d="M100.4741211,57.3842773c0-0.0722656,0-0.144043,0.0722656-0.144043l0,0h1.4399414l0,0    c0.144043,0,0.144043,0.0717773,0.144043,0.2158203l0,0v1.4399414l0,0c0,0.2163086,0,0.3603516-0.144043,0.3603516l0,0h-0.8642578    l0,0c-0.144043,0-0.144043-0.0722656-0.144043-0.144043l0,0v-0.0722656l0,0    c-0.2158203,0.2163086-0.5039063,0.2880859-0.9360352,0.2880859c-1.2958984,0-2.3037109-0.9360352-2.3037109-2.3037109    c0-1.2963867,1.0800781-2.3041992,2.5200195-2.3041992c0.6479492,0,1.2958984,0.2158203,1.5117188,0.3598633    c0,0.0722656,0,0.0722656,0,0.144043l0,0V55.65625l0,0c0,0.0717773,0,0.0717773,0,0.0717773l0,0l-0.2880859,0.2163086l0,0    c-0.0717773,0-0.4316406-0.7202148-1.2236328-0.7202148c-0.5761719,0-1.1523438,0.3598633-1.1523438,1.800293    c0,1.0795898,0.5043945,1.871582,1.1523438,1.871582c0.3598633,0,0.7197266-0.3598633,0.7197266-0.7197266    s-0.2158203-0.5039063-0.5039063-0.5761719c-0.0717773,0-0.144043,0-0.0717773-0.0717773l0,0L100.4741211,57.3842773    L100.4741211,57.3842773z"/>
		<path fill-rule="evenodd" fill="#FFFFFF" d="M105.8022461,56.5922852h1.5117188l0,0    c0.0722656,0,0.0722656,0.0717773,0.0722656,0.144043l0,0l-0.144043,0.2158203l0,0    c-0.0717773,0.0722656-0.144043,0.144043-0.2158203,0.144043l0,0h-1.2241211v1.0800781l0,0    c0,0.5039063,0.144043,0.6479492,0.5039063,0.6479492l0,0h0.5039063l0,0c0.6479492,0,0.7202148-0.5039063,0.7919922-0.5039063l0,0    l0.144043,0.0717773l0,0c0.0722656,0,0.0722656,0,0.0722656,0.0722656l0,0v0.6479492l0,0    c0,0.144043-0.144043,0.144043-0.2880859,0.144043l0,0h-2.0161133l0,0c-0.9360352,0-1.0078125,0-1.0078125-0.4321289l0,0V55.65625    l0,0c0-0.2880859-0.144043-0.4321289-0.4321289-0.5039063c-0.0722656,0-0.144043,0-0.144043-0.144043l0,0l0.0717773-0.0722656l0,0    c0-0.0717773,0.0722656-0.144043,0.144043-0.144043l0,0h3.1679688l0,0c0.144043,0,0.2163086,0.0722656,0.2163086,0.2163086l0,0    v0.5756836l0,0c0,0,0,0-0.0722656,0l0,0l-0.0717773,0.144043l0,0c-0.144043,0.0722656-0.2158203-0.4316406-0.6479492-0.4316406l0,0    h-0.9360352V56.5922852L105.8022461,56.5922852z"/>
		</g>
</svg>