<?xml version="1.0" encoding="utf-8"?>
<svg xmlns="http://www.w3.org/2000/svg" version="1.2" baseProfile="tiny" id="Layer_1"
	  xmlns:xlink="http://www.w3.org/1999/xlink" x="0px" y="0px" width="258.372px"
	 height="129.002px" viewBox="0 0 258.372 129.002" enable-background="new 0 0 258.372 129.002" xml:space="preserve">
	<title>The Nevada Climate Change Project</title>
	<g>
		<rect x="129.196" fill="#8DC63F" width="129.173" height="129.002"/>
		<rect x="0.001" fill="#D1E8B2" width="129.003" height="129.002"/>
		<path fill="#8DC63F" d="M21.8,4.487c-1.374-0.019-5.069,2.488-5.187,3.204C16.579,7.903,16.4,8.47,16.98,8.879
			c0.396,0.28,0.96,0.335,1.317,0.434s3.376,1.536,9.581,8.08c3.565,3.76-6.617,30.19,1.702,48.388
			c3.482,7.62,34.763,44.547,62.75,59.393l0.137-1.49l-0.555-0.322l1.457-0.574l-0.64-1.953c0,0,0.726-1.75-0.32-2.553
			c-1.046-0.801-1.476,0.1-1.046-0.801c0.709-1.484-0.195-3.965-0.234-4.627c-0.078-1.332-0.476-2.045-0.707-3.451
			c-0.078-0.477,0.461-1.389,0.895-1.461c0.524-0.088,2.301,0.309,2.715,0.051c1.72-1.074,1.054,1.41,2.926,1.404
			c0.505-0.002,1.63-1.611,1.825-2c0.734-1.455,4.729-73.196-8.297-85.801s-51.473-5.118-53.147-5.095S23.667,9.668,22.97,7.104
			c-0.189-0.695,0.026-1.233-0.029-1.657C22.865,4.868,22.465,4.496,21.8,4.487z"/>
		<g>
			<path fill="#6A952F" d="M17.614,8.606c0.268-0.202,0.563-0.382,0.895-0.463c0.334-0.08,0.69-0.023,1.005,0.105
				c0.632,0.268,1.167,0.688,1.738,1.046c1.094,0.801,2.144,1.641,3.201,2.479c2.107,1.684,4.185,3.403,6.242,5.148
				c4.097,3.509,8.103,7.126,12.023,10.834c7.828,7.43,15.256,15.292,22.144,23.617c6.802,8.38,13.125,17.231,18.021,26.893
				c2.427,4.832,4.503,9.86,5.913,15.089c1.373,5.223,2.115,10.667,1.626,16.049c0.261-5.392-0.577-10.773-2.098-15.917
				c-1.494-5.16-3.633-10.115-6.125-14.869c-4.999-9.514-11.275-18.315-18.109-26.611c-6.794-8.342-14.208-16.169-21.902-23.698
				c-3.847-3.767-7.788-7.439-11.813-11.019c-2.005-1.798-4.032-3.572-6.089-5.312c-1.029-0.866-2.063-1.736-3.12-2.56
				c-0.555-0.378-1.078-0.818-1.681-1.1c-0.302-0.135-0.639-0.202-0.968-0.137C18.189,8.246,17.889,8.413,17.614,8.606z"/>
		</g>
		<g>
			<path fill="#6A952F" d="M34.239,20.09c-1.069,3.62-1.703,7.37-2.124,11.138C31.702,35,31.53,38.802,31.593,42.601
				c0.065,3.798,0.368,7.598,1.011,11.347c0.654,3.739,1.632,7.457,3.314,10.883c-1.757-3.389-2.822-7.099-3.56-10.838
				c-0.728-3.749-1.116-7.561-1.265-11.378c-0.146-3.818-0.057-7.647,0.275-11.459c0.342-3.809,0.898-7.617,1.908-11.334
				c0.07-0.267,0.344-0.426,0.611-0.355c0.267,0.07,0.426,0.344,0.355,0.611C34.242,20.079,34.24,20.087,34.239,20.09z"/>
		</g>
		<g>
			<path fill="#6A952F" d="M39.035,23.252c4.391-0.188,8.819-0.597,13.25-0.706c4.432-0.128,8.882-0.047,13.294,0.465
				c4.402,0.521,8.795,1.464,12.875,3.238c4.066,1.756,7.79,4.459,10.353,8.086c-2.632-3.578-6.385-6.189-10.451-7.856
				c-4.08-1.683-8.452-2.536-12.83-2.97c-4.388-0.426-8.808-0.423-13.212-0.213c-4.412,0.191-8.792,0.682-13.234,0.956
				c-0.275,0.017-0.513-0.193-0.53-0.468c-0.017-0.276,0.193-0.513,0.468-0.53c0.002,0,0.005,0,0.007,0L39.035,23.252z"/>
		</g>
		<g>
			<path fill="#6A952F" d="M48.01,33.219c-1.754,6.148-2.542,12.599-2.143,18.991c0.4,6.379,2.126,12.731,5.54,18.185
				c1.644,2.777,3.26,5.573,4.771,8.429c1.505,2.855,2.917,5.779,3.946,8.851c1.107,3.05,1.297,6.359,2.854,9.214
				c1.444,2.878,3.573,5.388,6.05,7.446c-2.503-2.026-4.671-4.513-6.161-7.39c-0.747-1.435-1.31-2.969-1.67-4.547
				c-0.352-1.574-0.776-3.125-1.309-4.643c-1.062-3.038-2.503-5.927-4.04-8.754c-1.543-2.827-3.192-5.597-4.869-8.349
				c-3.525-5.47-5.374-11.924-5.86-18.39c-0.489-6.484,0.226-13.038,1.927-19.312c0.072-0.267,0.346-0.424,0.613-0.353
				s0.425,0.346,0.353,0.613C48.011,33.213,48.01,33.217,48.01,33.219z"/>
		</g>
		<g>
			<path fill="#6A952F" d="M54.733,38.596c5.019-0.478,10.221-0.445,15.104,1.145c2.422,0.799,4.735,2.041,6.616,3.793
				c0.941,0.871,1.771,1.86,2.468,2.933c0.716,1.061,1.221,2.257,1.756,3.368c1.098,2.239,2.438,4.368,4.101,6.229
				c0.829,0.931,1.739,1.789,2.695,2.596c0.949,0.816,1.969,1.561,2.853,2.482c0.44,0.458,0.823,0.993,1.097,1.563
				c0.289,0.553,0.615,1.087,0.949,1.619c0.669,1.06,1.376,2.102,2.026,3.18c1.297,2.136,2.41,4.499,2.52,7.033
				c-0.153-2.532-1.299-4.859-2.626-6.968c-0.666-1.063-1.388-2.091-2.077-3.145c-0.344-0.527-0.681-1.061-0.984-1.617
				c-0.282-0.559-0.647-1.05-1.084-1.493c-0.873-0.881-1.904-1.61-2.873-2.415c-0.977-0.797-1.915-1.652-2.773-2.584
				c-1.721-1.863-3.119-4.005-4.27-6.257c-0.572-1.141-1.067-2.264-1.778-3.282c-0.689-1.023-1.503-1.96-2.42-2.781
				c-1.833-1.652-4.07-2.807-6.425-3.542c-4.746-1.46-9.835-1.418-14.771-0.863c-0.274,0.031-0.522-0.167-0.553-0.441
				s0.167-0.522,0.441-0.553C54.727,38.597,54.731,38.596,54.733,38.596z"/>
		</g>
		<g>
			<path fill="#6A952F" d="M62.978,49.692c-1.648,3.089-2.459,6.59-2.442,10.123c0.006,3.536,0.789,7.059,1.992,10.41
				c-1.357-3.291-2.315-6.792-2.492-10.397c-0.189-3.591,0.479-7.282,2.042-10.57l0.007-0.016c0.119-0.25,0.417-0.356,0.667-0.237
				s0.356,0.417,0.237,0.667C62.986,49.678,62.981,49.686,62.978,49.692z"/>
		</g>
		<g>
			<path fill="#6A952F" d="M71.773,58.631c1.268,0.218,2.556,0.602,3.73,1.154c1.184,0.55,2.277,1.27,3.261,2.102
				c1.978,1.667,3.498,3.741,4.932,5.828c-1.567-1.99-3.22-3.95-5.241-5.436c-1.006-0.743-2.096-1.359-3.247-1.805
				c-1.158-0.45-2.344-0.723-3.588-0.855c-0.275-0.029-0.474-0.275-0.445-0.55c0.029-0.275,0.276-0.474,0.551-0.445
				c0.01,0.001,0.021,0.002,0.03,0.004L71.773,58.631z"/>
		</g>
		<g>
			<path fill="#6A952F" d="M77.034,68.542c-1.386,3.176-2.537,6.454-3.041,9.867c-0.518,3.404-0.348,6.909,0.496,10.265
				c0.436,1.662,0.995,3.344,1.373,5.05c0.404,1.702,0.731,3.421,1.016,5.144l0.829,5.166c0.312,1.71,0.665,3.436,1.431,5.01
				c-0.804-1.556-1.201-3.281-1.554-4.986l-0.952-5.146c-0.325-1.712-0.692-3.415-1.133-5.097C75.08,92.12,74.496,90.5,74.006,88.8
				c-0.941-3.392-1.205-6.984-0.756-10.492c0.433-3.515,1.537-6.908,2.86-10.15l0.002-0.005c0.104-0.256,0.396-0.378,0.652-0.273
				s0.378,0.396,0.274,0.651C77.037,68.533,77.035,68.539,77.034,68.542z"/>
		</g>
		<g>
			<path fill="#6A952F" d="M83.135,77.111c1.679,0.565,3.297,1.434,4.7,2.52c1.412,1.087,2.637,2.393,3.665,3.823
				c2.055,2.869,3.363,6.206,3.976,9.631c-0.774-3.391-2.238-6.63-4.375-9.33c-1.069-1.346-2.313-2.547-3.71-3.52
				c-1.401-0.977-2.928-1.707-4.575-2.177c-0.266-0.075-0.419-0.353-0.344-0.618s0.353-0.419,0.619-0.344
				c0.007,0.002,0.014,0.004,0.021,0.007L83.135,77.111z"/>
		</g>
		<g>
			<path fill="#FFFFFF" d="M34.958,20.45c-1.069,3.62-1.703,7.37-2.124,11.138c-0.413,3.771-0.585,7.573-0.522,11.372
				c0.065,3.798,0.368,7.598,1.011,11.347c0.654,3.739,1.632,7.457,3.314,10.883c-1.757-3.389-2.822-7.099-3.56-10.838
				c-0.728-3.75-1.116-7.561-1.265-11.378c-0.146-3.818-0.057-7.647,0.275-11.459c0.342-3.809,0.898-7.617,1.908-11.334
				c0.07-0.267,0.344-0.426,0.611-0.355c0.267,0.07,0.426,0.344,0.355,0.611C34.962,20.439,34.959,20.447,34.958,20.45z"/>
		</g>
		<g>
			<path fill="#FFFFFF" d="M39.396,23.612c4.391-0.188,8.819-0.597,13.25-0.706c4.432-0.128,8.882-0.047,13.294,0.465
				c4.402,0.521,8.795,1.464,12.875,3.238c4.066,1.756,7.79,4.459,10.353,8.086c-2.632-3.578-6.385-6.189-10.451-7.856
				c-4.08-1.683-8.452-2.536-12.83-2.971c-4.388-0.426-8.808-0.423-13.212-0.212c-4.412,0.191-8.792,0.682-13.234,0.956
				c-0.275,0.017-0.513-0.193-0.53-0.468c-0.017-0.276,0.193-0.513,0.468-0.53c0.002,0,0.005,0,0.007,0L39.396,23.612z"/>
		</g>
		<g>
			<path fill="#FFFFFF" d="M48.73,33.579c-1.754,6.148-2.542,12.599-2.143,18.991c0.4,6.379,2.126,12.731,5.54,18.186
				c1.644,2.778,3.26,5.573,4.771,8.429c1.505,2.856,2.917,5.779,3.946,8.851c1.107,3.05,1.297,6.36,2.854,9.214
				c1.443,2.879,3.572,5.389,6.049,7.447c-2.503-2.027-4.67-4.513-6.161-7.391c-0.746-1.435-1.31-2.968-1.67-4.546
				c-0.352-1.574-0.776-3.126-1.309-4.644c-1.061-3.037-2.503-5.927-4.04-8.754c-1.543-2.826-3.193-5.597-4.87-8.349
				c-3.525-5.47-5.374-11.924-5.86-18.39c-0.489-6.485,0.226-13.038,1.927-19.312c0.072-0.267,0.346-0.424,0.613-0.353
				s0.425,0.346,0.353,0.613C48.732,33.573,48.73,33.577,48.73,33.579z"/>
		</g>
		<g>
			<path fill="#FFFFFF" d="M55.093,38.956c5.019-0.478,10.221-0.445,15.104,1.145c2.422,0.8,4.735,2.041,6.616,3.794
				c0.941,0.871,1.771,1.86,2.468,2.933c0.716,1.061,1.221,2.256,1.756,3.368c1.098,2.239,2.438,4.368,4.101,6.229
				c0.829,0.932,1.738,1.789,2.695,2.597c0.949,0.815,1.969,1.561,2.854,2.482c0.439,0.458,0.823,0.993,1.097,1.563
				c0.289,0.553,0.615,1.088,0.948,1.619c0.67,1.06,1.376,2.102,2.026,3.18c1.297,2.137,2.41,4.499,2.52,7.033
				c-0.153-2.532-1.299-4.859-2.626-6.968c-0.666-1.063-1.388-2.091-2.078-3.145c-0.343-0.527-0.681-1.061-0.983-1.617
				c-0.282-0.559-0.648-1.05-1.085-1.492c-0.873-0.881-1.903-1.61-2.873-2.416c-0.977-0.797-1.915-1.652-2.773-2.584
				c-1.721-1.862-3.119-4.005-4.27-6.256c-0.572-1.141-1.067-2.264-1.778-3.282c-0.69-1.023-1.503-1.96-2.42-2.782
				c-1.832-1.651-4.07-2.807-6.424-3.542c-4.746-1.46-9.835-1.418-14.771-0.863c-0.274,0.031-0.522-0.167-0.553-0.441
				s0.167-0.522,0.441-0.553C55.087,38.957,55.091,38.956,55.093,38.956z"/>
		</g>
		<g>
			<path fill="#FFFFFF" d="M63.338,50.052c-1.648,3.089-2.459,6.591-2.442,10.123c0.006,3.537,0.789,7.06,1.992,10.41
				c-1.357-3.291-2.315-6.792-2.492-10.397c-0.189-3.591,0.479-7.282,2.042-10.569l0.007-0.016c0.119-0.25,0.417-0.356,0.667-0.237
				s0.356,0.417,0.237,0.667C63.346,50.038,63.342,50.046,63.338,50.052z"/>
		</g>
		<g>
			<path fill="#FFFFFF" d="M71.773,58.991c1.268,0.218,2.556,0.602,3.73,1.154c1.184,0.55,2.277,1.27,3.261,2.102
				c1.978,1.667,3.498,3.741,4.932,5.828c-1.567-1.99-3.22-3.949-5.242-5.436c-1.005-0.742-2.095-1.358-3.247-1.805
				c-1.158-0.449-2.344-0.723-3.588-0.854c-0.275-0.029-0.474-0.275-0.445-0.55c0.029-0.275,0.276-0.474,0.551-0.445
				c0.01,0.001,0.021,0.002,0.03,0.004L71.773,58.991z"/>
		</g>
		<g>
			<path fill="#FFFFFF" d="M77.754,68.901c-1.386,3.177-2.537,6.455-3.041,9.868c-0.518,3.404-0.348,6.909,0.496,10.264
				c0.436,1.663,0.994,3.345,1.373,5.05c0.403,1.703,0.731,3.421,1.016,5.144l0.829,5.167c0.312,1.709,0.665,3.435,1.431,5.009
				c-0.804-1.556-1.201-3.281-1.554-4.985l-0.952-5.146c-0.325-1.712-0.692-3.414-1.134-5.097
				c-0.418-1.693-1.002-3.313-1.493-5.014c-0.94-3.392-1.204-6.984-0.755-10.492c0.433-3.515,1.537-6.908,2.86-10.149l0.002-0.006
				c0.104-0.256,0.396-0.378,0.652-0.273s0.378,0.396,0.274,0.651C77.758,68.894,77.755,68.899,77.754,68.901z"/>
		</g>
		<g>
			<path fill="#FFFFFF" d="M83.135,77.472c1.679,0.565,3.297,1.434,4.7,2.52c1.412,1.087,2.637,2.393,3.665,3.823
				c2.055,2.869,3.363,6.206,3.976,9.631c-0.774-3.391-2.238-6.63-4.375-9.33c-1.069-1.346-2.313-2.547-3.71-3.52
				c-1.401-0.976-2.928-1.707-4.575-2.177c-0.266-0.075-0.419-0.353-0.344-0.618s0.353-0.419,0.619-0.344
				c0.007,0.002,0.014,0.004,0.021,0.007L83.135,77.472z"/>
		</g>
		<g>
			<path fill="#FFFFFF" d="M17.974,8.246c0.268-0.202,0.563-0.382,0.895-0.463c0.334-0.08,0.69-0.023,1.005,0.105
				c0.632,0.268,1.167,0.688,1.738,1.046c1.094,0.801,2.144,1.641,3.201,2.479c2.107,1.684,4.185,3.403,6.242,5.148
				c4.097,3.509,8.103,7.125,12.023,10.834c7.828,7.43,15.255,15.292,22.144,23.617c6.802,8.38,13.125,17.231,18.021,26.894
				c2.427,4.832,4.503,9.86,5.913,15.089c1.373,5.223,2.115,10.667,1.626,16.049c0.261-5.392-0.577-10.773-2.098-15.917
				c-1.494-5.16-3.633-10.115-6.125-14.869C77.56,68.742,71.284,59.941,64.45,51.646c-6.794-8.342-14.208-16.169-21.902-23.699
				c-3.847-3.767-7.788-7.439-11.813-11.019c-2.005-1.798-4.032-3.572-6.089-5.312c-1.029-0.866-2.063-1.736-3.12-2.56
				c-0.555-0.378-1.078-0.818-1.681-1.1c-0.302-0.135-0.639-0.202-0.968-0.137C18.549,7.886,18.249,8.053,17.974,8.246z"/>
		</g>
		<g>
			<path fill="#6A952F" d="M90.421,109.402c-0.083-0.47,0.143-0.938,0.439-1.319c0.083-0.093,0.178-0.183,0.311-0.244
				c0.157-0.064,0.257-0.056,0.396-0.067c0.241-0.005,0.473,0.009,0.704,0.021c0.458,0.018,0.921,0.077,1.343,0.049
				c0.239-0.008,0.276-0.051,0.543-0.199c0.227-0.108,0.511-0.231,0.854-0.124c0.336,0.129,0.477,0.398,0.599,0.594
				c0.12,0.208,0.222,0.4,0.343,0.565c0.216,0.342,0.609,0.505,0.972,0.529c0.317-0.04,0.678-0.448,0.974-0.756
				c0.315-0.329,0.608-0.682,0.88-1.054c-0.176,0.431-0.433,0.819-0.69,1.208c-0.138,0.189-0.284,0.372-0.448,0.548
				c-0.083,0.087-0.17,0.172-0.271,0.252c-0.073,0.07-0.295,0.179-0.382,0.182c-0.56,0.061-1.094-0.202-1.411-0.622
				c-0.303-0.383-0.49-0.905-0.73-0.975c-0.103-0.045-0.293,0-0.47,0.089c-0.098,0.038-0.156,0.098-0.326,0.167
				c-0.161,0.058-0.289,0.064-0.416,0.067c-0.498,0-0.95-0.067-1.405-0.14c-0.226-0.035-0.452-0.07-0.67-0.087
				c-0.222-0.026-0.362,0.012-0.528,0.169C90.721,108.537,90.449,108.946,90.421,109.402z"/>
		</g>
		<g>
			<path fill="#6A952F" d="M16.613,7.691c-0.101,0.375-0.065,0.828,0.254,1.087c0.299,0.263,0.697,0.359,1.079,0.439
				c0.396,0.052,0.757,0.244,1.098,0.438c0.344,0.196,0.677,0.41,1.004,0.632c1.305,0.894,2.522,1.908,3.703,2.958
				c1.178,1.055,2.314,2.154,3.422,3.281c0.279,0.285,0.55,0.558,0.827,0.859c0.266,0.306,0.432,0.71,0.536,1.092
				c0.207,0.782,0.245,1.585,0.25,2.378c-0.045,3.179-0.558,6.305-0.949,9.437c-0.416,3.13-0.812,6.261-1.08,9.404
				c-0.529,6.271-0.602,12.647,0.695,18.812c0.679,3.051,1.61,6.118,3.217,8.786c1.663,2.661,3.598,5.164,5.556,7.631
				c7.885,9.848,16.595,19.039,25.85,27.618c4.64,4.278,9.447,8.379,14.465,12.207c5.007,3.838,10.231,7.418,15.79,10.423
				c-11.189-5.914-21.146-13.894-30.48-22.385c-9.306-8.552-18.067-17.71-26.015-27.553c-1.955-2.485-3.882-4.999-5.556-7.703
				c-1.644-2.764-2.556-5.844-3.233-8.939c-1.282-6.233-1.177-12.639-0.619-18.926c0.283-3.15,0.694-6.285,1.124-9.414
				c0.407-3.128,0.925-6.256,0.993-9.399c0.005-0.782-0.023-1.573-0.212-2.322c-0.101-0.377-0.234-0.726-0.483-1.022
				c-0.253-0.283-0.535-0.574-0.805-0.857c-1.09-1.14-2.211-2.251-3.373-3.318c-1.164-1.063-2.365-2.091-3.656-2.999
				c-0.323-0.225-0.652-0.443-0.992-0.642c-0.34-0.2-0.686-0.391-1.082-0.449c-0.381-0.084-0.784-0.188-1.083-0.457
				C16.537,8.522,16.508,8.063,16.613,7.691z"/>
		</g>
		<g>
			<path fill="#FFFFFF" d="M98.782,107.396c0.307-1.732,0.346-3.504,0.47-5.259c0.1-1.759,0.178-3.519,0.244-5.279
				c0.132-3.521,0.212-7.043,0.252-10.566c0.098-7.044,0.044-14.092-0.236-21.131c-0.288-7.036-0.775-14.071-1.733-21.045
				c-0.487-3.483-1.088-6.955-1.943-10.362c-0.873-3.388-1.931-6.789-3.764-9.752c-0.899-1.491-2.136-2.718-3.555-3.734
				c-1.408-1.021-2.962-1.84-4.575-2.51c-3.236-1.333-6.69-2.099-10.163-2.588c-6.968-0.947-14.047-0.837-21.061-0.326
				c-3.51,0.263-7.012,0.647-10.501,1.121l-2.616,0.369l-1.308,0.189l-0.658,0.088c-0.208,0.038-0.492,0.031-0.704-0.038
				c-1.717-0.551-3.248-1.43-4.797-2.277c-1.534-0.873-3.036-1.802-4.494-2.797c-1.443-1.009-2.899-2.035-4.094-3.354
				c-0.279-0.338-0.576-0.704-0.657-1.161c-0.104-0.444-0.013-0.901,0.012-1.328c0.018-0.421-0.185-0.875-0.597-1.029
				c-0.398-0.175-0.855-0.101-1.265,0.036c-0.832,0.28-1.605,0.716-2.347,1.187c-0.717,0.494-1.497,0.97-1.996,1.7
				c0.491-0.737,1.266-1.223,1.979-1.726c0.738-0.481,1.506-0.927,2.344-1.221c0.413-0.143,0.889-0.23,1.315-0.048
				c0.447,0.159,0.676,0.658,0.66,1.103c-0.022,0.448-0.103,0.879,0.001,1.303c0.078,0.422,0.365,0.773,0.644,1.102
				c1.19,1.285,2.655,2.294,4.104,3.282c1.464,0.975,2.972,1.884,4.511,2.736c1.539,0.83,3.098,1.711,4.744,2.23
				c0.381,0.127,0.817-0.021,1.255-0.061l1.307-0.195l2.617-0.38c3.492-0.487,6.998-0.886,10.515-1.164
				c7.028-0.54,14.126-0.68,21.144,0.245c3.499,0.479,6.987,1.236,10.282,2.576c1.642,0.674,3.231,1.502,4.682,2.545
				c1.449,1.026,2.768,2.32,3.695,3.858c1.872,3.059,2.917,6.49,3.785,9.907c0.847,3.434,1.436,6.92,1.911,10.417
				c0.933,6.998,1.393,14.043,1.653,21.089c0.25,7.046,0.283,14.099,0.147,21.148c-0.081,3.523-0.202,7.047-0.374,10.566
				c-0.086,1.761-0.186,3.521-0.305,5.278C99.168,103.896,99.108,105.666,98.782,107.396z"/>
		</g>
		<g>
			<g>
				<path fill="#FFFFFF" d="M182.071,58.156L150.85,34.579v23.577h-5.08V14.834h5.826l31.67,23.836V14.834h5.078v43.322H182.071z"
					/>
				<path fill="#FFFFFF" d="M227.633,59.065c-8.566,0-15.412-1.818-20.541-5.456c-5.527-3.94-8.291-9.548-8.291-16.822
					c0-7.101,2.789-12.751,8.365-16.952c5.229-3.939,12.025-5.911,20.393-5.911c4.332,0,8.016,0.491,11.055,1.472
					c4.381,1.409,6.572,3.689,6.572,6.842c0,2.857-1.719,4.287-5.154,4.287c-2.838,0-5.18-0.866-7.021-2.598
					c0.348-0.346,0.711-0.79,1.084-1.332c0.373-0.541,0.561-0.942,0.561-1.202c0-1.082-0.561-1.872-1.682-2.371
					c-1.119-0.497-2.379-0.747-3.771-0.747c-4.83,0-8.117,1.869-9.859,5.606c-1.146,2.434-1.719,6.105-1.719,11.015
					c0,6.084,0.623,10.473,1.867,13.167c2.041,4.433,6.025,6.648,11.951,6.648c4.381,0,6.574-1.62,6.574-4.861v-0.919
					c1.791,0,3.311,0.477,4.555,1.429c1.244,0.953,2.018,2.252,2.316,3.897c-1.844,1.818-4.482,3.118-7.918,3.897
					C234.331,58.762,231.219,59.065,227.633,59.065z"/>
				<path fill="#FFFFFF" d="M171.875,115.887c-8.566,0-15.412-1.818-20.541-5.457c-5.527-3.939-8.293-9.543-8.293-16.811
					c0-7.102,2.791-12.752,8.367-16.952c5.229-3.939,12.025-5.911,20.391-5.911c4.332,0,8.018,0.492,11.055,1.473
					c4.381,1.408,6.574,3.688,6.574,6.842c0,2.857-1.719,4.287-5.154,4.287c-2.838,0-5.18-0.866-7.021-2.599
					c0.348-0.347,0.709-0.79,1.084-1.331c0.373-0.541,0.559-0.942,0.559-1.202c0-1.081-0.559-1.872-1.68-2.37
					s-2.379-0.747-3.771-0.747c-4.83,0-8.117,1.869-9.859,5.606c-1.146,2.434-1.719,6.104-1.719,11.015
					c0,6.081,0.623,10.464,1.867,13.157c2.041,4.432,6.025,6.648,11.951,6.648c4.381,0,6.572-1.621,6.572-4.861v-0.92
					c1.793,0,3.313,0.477,4.557,1.43c1.244,0.951,2.018,2.252,2.316,3.896c-1.844,1.818-4.482,3.117-7.918,3.896
					C178.571,115.582,175.459,115.887,171.875,115.887z"/>
				<path fill="#FFFFFF" d="M198.915,114.977V71.666h23.004c6.873,0,12.201,1.018,15.984,3.053
					c4.73,2.555,7.098,6.689,7.098,12.405c0,6.409-3.09,11.211-9.264,14.411c-5.078,2.639-11.502,3.959-19.27,3.959v9.482H198.915z
						M226.176,89.236c0-4.559-0.373-7.597-1.119-9.117c-1.297-2.647-4.158-3.972-8.59-3.972v24.998
					c3.982,0,6.695-1.214,8.141-3.642C225.655,95.77,226.176,93.014,226.176,89.236z"/>
			</g>
			<g>
				<path fill="#FFFFFF" d="M182.071,58.156L150.85,34.579v23.577h-5.08V14.834h5.826l31.67,23.836V14.834h5.078v43.322H182.071z"
					/>
				<path fill="#FFFFFF" d="M227.633,59.065c-8.566,0-15.412-1.818-20.541-5.456c-5.527-3.94-8.291-9.548-8.291-16.822
					c0-7.101,2.789-12.751,8.365-16.952c5.229-3.939,12.025-5.911,20.393-5.911c4.332,0,8.016,0.491,11.055,1.472
					c4.381,1.409,6.572,3.689,6.572,6.842c0,2.857-1.719,4.287-5.154,4.287c-2.838,0-5.18-0.866-7.021-2.598
					c0.348-0.346,0.711-0.79,1.084-1.332c0.373-0.541,0.561-0.942,0.561-1.202c0-1.082-0.561-1.872-1.682-2.371
					c-1.119-0.497-2.379-0.747-3.771-0.747c-4.83,0-8.117,1.869-9.859,5.606c-1.146,2.434-1.719,6.105-1.719,11.015
					c0,6.084,0.623,10.473,1.867,13.167c2.041,4.433,6.025,6.648,11.951,6.648c4.381,0,6.574-1.62,6.574-4.861v-0.919
					c1.791,0,3.311,0.477,4.555,1.429c1.244,0.953,2.018,2.252,2.316,3.897c-1.844,1.818-4.482,3.118-7.918,3.897
					C234.331,58.762,231.219,59.065,227.633,59.065z"/>
				<path fill="#FFFFFF" d="M171.875,115.887c-8.566,0-15.412-1.818-20.541-5.457c-5.527-3.939-8.293-9.543-8.293-16.811
					c0-7.102,2.791-12.752,8.367-16.952c5.229-3.939,12.025-5.911,20.391-5.911c4.332,0,8.018,0.492,11.055,1.473
					c4.381,1.408,6.574,3.688,6.574,6.842c0,2.857-1.719,4.287-5.154,4.287c-2.838,0-5.18-0.866-7.021-2.599
					c0.348-0.347,0.709-0.79,1.084-1.331c0.373-0.541,0.559-0.942,0.559-1.202c0-1.081-0.559-1.872-1.68-2.37
					s-2.379-0.747-3.771-0.747c-4.83,0-8.117,1.869-9.859,5.606c-1.146,2.434-1.719,6.104-1.719,11.015
					c0,6.081,0.623,10.464,1.867,13.157c2.041,4.432,6.025,6.648,11.951,6.648c4.381,0,6.572-1.621,6.572-4.861v-0.92
					c1.793,0,3.313,0.477,4.557,1.43c1.244,0.951,2.018,2.252,2.316,3.896c-1.844,1.818-4.482,3.117-7.918,3.896
					C178.571,115.582,175.459,115.887,171.875,115.887z"/>
				<path fill="#FFFFFF" d="M198.915,114.977V71.666h23.004c6.873,0,12.201,1.018,15.984,3.053
					c4.73,2.555,7.098,6.689,7.098,12.405c0,6.409-3.09,11.211-9.264,14.411c-5.078,2.639-11.502,3.959-19.27,3.959v9.482H198.915z
						M226.176,89.236c0-4.559-0.373-7.597-1.119-9.117c-1.297-2.647-4.158-3.972-8.59-3.972v24.998
					c3.982,0,6.695-1.214,8.141-3.642C225.655,95.77,226.176,93.014,226.176,89.236z"/>
			</g>
		</g>
	</g>
</svg>
